<?xml version="1.0" encoding="utf-8"?>
<!-- Generator: Adobe Illustrator 19.2.1, SVG Export Plug-In . SVG Version: 6.00 Build 0)  -->
<svg version="1.1" id="bottom-banner" xmlns="http://www.w3.org/2000/svg" xmlns:xlink="http://www.w3.org/1999/xlink" x="0px"
	 y="0px" viewBox="0 0 727.9 112" enable-background="new 0 0 727.9 112" xml:space="preserve">
<path fill="#754141" d="M711.6,107.4H17.2c-6.6,0-12-5.4-12-12V16c0-6.6,5.4-12,12-12h694.4c6.6,0,12,5.4,12,12v79.4
	C723.6,102,718.2,107.4,711.6,107.4z"/>
<path id="mint-heart-left" fill="#C2D7C2" d="M73,40.5c0,0-9-13.8-23.7-4.7c0,0-11.9,8.1-4.4,23.6c0,0,0.6,3.7,10.5,12.5
	c0,0,7.6,6.5,12.2,11.7c0,0,2.7,3.1,5.1,6.1c0,0,7-6.9,7.8-8.4c0,0,4.8-4.5,12.3-11.3c0,0,14-10,10.2-25c0,0-4.9-16.3-22-10.9
	C80.9,34.1,76.5,35.4,73,40.5z"/>
<path id="mint-heart-right" fill="#C2D7C2" d="M658.3,40.9c0,0-9-13.8-23.7-4.7c0,0-11.9,8.1-4.4,23.6c0,0,0.6,3.7,10.5,12.5
	c0,0,7.6,6.5,12.2,11.7c0,0,2.7,3.1,5.1,6.1c0,0,7-6.9,7.8-8.4c0,0,4.8-4.5,12.3-11.3c0,0,14-10,10.2-25c0,0-4.9-16.3-22-10.9
	C666.2,34.5,661.8,35.8,658.3,40.9z"/>
<g>
	<path fill="#FFFFFF" d="M221.2,44.4c0,2.4-0.9,4.3-2.8,5.6c-1.1,0.8-2.6,1.2-4.4,1.2c-1.8,0-3.1-0.5-3.9-1.4
		c-0.5-0.5-0.7-1.1-0.7-1.8c0-0.6,0.2-1.1,0.6-1.4c0.4-0.4,0.9-0.6,1.5-0.6c0.5,0,0.9,0.1,1.2,0.4s0.5,0.6,0.5,1.1
		c0,0.7-0.5,1.2-1.4,1.6c-0.4,0.2-0.6,0.3-0.6,0.5c0,0.3,0.3,0.6,0.8,0.8s1.2,0.4,1.9,0.4c1.3,0,2.3-0.5,3-1.4
		c0.9-1.3,1.4-2.9,1.4-5.1c0-1.6-0.4-2.8-1.1-3.6c-0.7-0.9-1.8-1.3-3.1-1.3c-1,0-2.2,0.4-3.4,1.2c0.1-4.3,0.2-7,0.3-8.1
		c0-0.6,0.2-1,0.4-1.2c0.3-0.1,1-0.2,2.2-0.2c0.2,0,0.5,0,1,0s0.8,0,1.1,0h1c1.3,0,2.1,0,2.3-0.1c0.2,0,0.4-0.2,0.4-0.5
		c0.1-0.4,0.2-0.6,0.4-0.6c0.2,0,0.3,0.1,0.3,0.3c0,0.1,0,0.2,0,0.3l-0.1,0.7c-0.1,1.1-0.3,1.7-0.6,2c-0.3,0.3-1,0.4-2.2,0.4h-5.5
		c-0.1,0.7-0.1,2.6-0.2,5.9c1.1-0.5,2.2-0.8,3.4-0.8c2,0,3.5,0.5,4.6,1.6C220.7,41.1,221.2,42.5,221.2,44.4z"/>
	<path fill="#FFFFFF" d="M236.9,44.4c0,1.8-0.6,3.4-1.7,4.7c-1.1,1.3-2.5,2-4,2c-2,0-3.6-0.8-4.8-2.4c-1.2-1.6-1.8-3.7-1.8-6.3
		c0-2.4,0.5-4.6,1.6-6.5c1-2,2.4-3.4,4.2-4.3c1.4-0.7,3-1.1,4.7-1.1c0.4,0,0.6,0.1,0.6,0.2c0,0.1-0.1,0.2-0.4,0.2
		c-1.7,0.2-3.2,0.8-4.5,1.9c-1.7,1.4-2.7,3.8-3,7.2c1-1,2.2-1.5,3.5-1.5c1.1,0,2.1,0.3,3,0.9C236,40.4,236.9,42.1,236.9,44.4z
		 M234,44.5c0-3.6-1.1-5.3-3.3-5.3c-1,0-1.8,0.4-2.3,1.3c-0.5,0.9-0.8,2-0.8,3.6c0,2.2,0.4,4,1.2,5.3c0.5,0.9,1.2,1.3,2.2,1.3
		C233,50.6,234,48.6,234,44.5z"/>
	<path fill="#FFFFFF" d="M254.6,30.6l-11,20.2l-1.3,0l10.3-19c-0.9,0.6-2,0.9-3.2,0.9c-0.8,0-1.7-0.2-2.5-0.5c0.7,1,1.1,2.2,1.1,3.4
		c0,1.3-0.4,2.4-1.2,3.3c-0.8,0.9-1.9,1.3-3.2,1.3c-1.3,0-2.5-0.5-3.3-1.4c-0.9-0.9-1.3-2.1-1.3-3.5c0-1.4,0.4-2.5,1.3-3.4
		c0.9-0.9,1.9-1.4,3.2-1.4c0.7,0,1.7,0.3,3.2,0.8c1.1,0.4,2.1,0.6,2.9,0.6c1.2,0,2.5-0.4,3.8-1.3L254.6,30.6z M245.6,35.2
		c0-1.3-0.2-2.3-0.6-3.1c-0.3-0.6-0.8-0.9-1.5-0.9c-1.5,0-2.2,1.4-2.2,4.3c0,3,0.8,4.5,2.3,4.5c0.7,0,1.3-0.4,1.6-1.3
		C245.5,37.8,245.6,36.6,245.6,35.2z M258,46.4c0,1.7-0.7,3-2,4c-0.6,0.5-1.4,0.7-2.4,0.7c-1.4,0-2.5-0.5-3.4-1.4
		c-0.9-0.9-1.3-2.1-1.3-3.5c0-1.4,0.4-2.5,1.3-3.4c0.9-0.9,2-1.3,3.3-1.3c1.3,0,2.3,0.4,3,1.2C257.5,43.6,258,44.8,258,46.4z
		 M255.6,45.8c0-1.2-0.2-2.3-0.6-3.1c-0.3-0.6-0.8-0.9-1.6-0.9c-1.5,0-2.2,1.4-2.2,4.3c0,3,0.8,4.5,2.3,4.5c0.7,0,1.3-0.4,1.6-1.3
		C255.5,48.5,255.6,47.3,255.6,45.8z"/>
</g>
<g>
	<path fill="#FFFFFF" d="M212.3,57.4l-1,0.8l-0.3-0.3l1.6-1.4h0.5v5.8h1v0.4h-2.8v-0.4h1V57.4z"/>
	<path fill="#FFFFFF" d="M217.6,62.6c-1.4,0-2.1-1.4-2.1-3.1c0-1.7,0.7-3.1,2.1-3.1s2.1,1.4,2.1,3.1C219.6,61.2,219,62.6,217.6,62.6
		z M217.6,56.8c-1.2,0-1.2,2.1-1.2,2.8c0,0.7,0,2.8,1.2,2.8s1.2-2.1,1.2-2.8C218.8,58.8,218.7,56.8,217.6,56.8z"/>
	<path fill="#FFFFFF" d="M220.9,62.1c0-0.3,0.1-0.6,0.4-0.6s0.4,0.3,0.4,0.6s-0.1,0.6-0.4,0.6S220.9,62.4,220.9,62.1z"/>
	<path fill="#FFFFFF" d="M223.6,61.2c0,0.6,0.4,1.1,1.1,1.1c1,0,1.4-1,1.4-1.8c0-0.8-0.4-1.5-1.4-1.5c-0.4,0-0.8,0.1-1.1,0.4
		l-0.2-0.1l0.8-2.8h2.6l-0.2,0.6h-2.2l-0.5,1.7c0.4-0.2,0.7-0.2,1.1-0.2c0.9,0,1.9,0.7,1.9,1.9c0,1.2-0.8,2.2-2.3,2.2
		c-1,0-1.8-0.5-1.9-1.5H223.6z"/>
	<path fill="#FFFFFF" d="M230.3,62.3h0.6v-3.8h-0.6v-0.3h2c0.7,0,1.4,0.2,1.4,1.1c0,0.6-0.5,0.8-1,1v0c0.6,0,1.2,0.4,1.2,1.1
		c0,0.9-0.8,1.2-1.6,1.1h-2.1V62.3z M231.4,60.2h0.7c0.6,0,1-0.3,1-0.8c0-0.5-0.4-0.8-1-0.8h-0.6V60.2z M231.4,62.3h0.8
		c0.6,0,1.1-0.2,1.1-0.9c0-0.6-0.3-1-1.2-1h-0.7V62.3z"/>
	<path fill="#FFFFFF" d="M234.5,62.3h0.6v-3.8h-0.6v-0.3h1.7v0.3h-0.6v3.8h0.6v0.3h-1.7V62.3z"/>
	<path fill="#FFFFFF" d="M236.6,62.3h0.6v-3.8h-0.6v-0.3h1.7v0.3h-0.6v3.7h1.9v-0.6h0.4v1h-3.4V62.3z"/>
	<path fill="#FFFFFF" d="M240.4,62.3h0.6v-3.8h-0.6v-0.3h1.7v0.3h-0.6v3.7h1.9v-0.6h0.4v1h-3.4V62.3z"/>
	<path fill="#FFFFFF" d="M244.3,62.3h0.6v-3.8h-0.6v-0.3h1.7v0.3h-0.6v3.8h0.6v0.3h-1.7V62.3z"/>
	<path fill="#FFFFFF" d="M248.8,58.2c1.3,0,2.3,0.8,2.3,2.2c0,1.3-0.9,2.2-2.3,2.2c-1.5,0-2.3-0.9-2.3-2.2
		C246.5,59.2,247.5,58.2,248.8,58.2z M248.8,62.4c1.1,0,1.7-0.9,1.7-2c0-1-0.5-1.9-1.7-1.9c-1.1,0-1.7,0.9-1.7,1.9
		C247.1,61.5,247.7,62.4,248.8,62.4z"/>
	<path fill="#FFFFFF" d="M251.6,62.3h0.6v-3.8h-0.6v-0.3h1l3,3.3v-3h-0.6v-0.3h1.5v0.3H256v4.1h-0.2l-3.3-3.6v3.3h0.6v0.3h-1.5V62.3
		z"/>
	<path fill="#FFFFFF" d="M222.4,66h-0.5v-0.1c0-0.8-1-1.2-1.7-1.2c-0.6,0-1.3,0.3-1.3,1c0,1.5,3.7,1,3.7,3.2c0,1.2-1,1.7-2.2,1.7
		c-1,0-1.5-0.2-1.8-0.4v0.3h-0.5v-1.6h0.5v0.4c0,0.7,1.2,0.9,1.7,0.9c0.7,0,1.5-0.3,1.5-1c0-1.8-3.7-1.1-3.7-3.3c0-1.1,1-1.6,2-1.6
		c0.7,0,1.3,0.1,1.7,0.5v-0.5h0.5V66z"/>
	<path fill="#FFFFFF" d="M223.4,70.3h0.6v-3.8h-0.6v-0.3h1.8c0.8,0,1.6,0.3,1.6,1.3c0,0.9-0.7,1.3-1.6,1.3c-0.2,0-0.4,0-0.7,0v1.5
		h0.6v0.3h-1.7V70.3z M224.5,68.5c0.2,0,0.4,0,0.6,0c0.6,0,1.1-0.3,1.1-1c0-0.6-0.4-1-1.1-1h-0.5V68.5z"/>
	<path fill="#FFFFFF" d="M229.6,66.2c1.3,0,2.3,0.8,2.3,2.2c0,1.3-0.9,2.2-2.3,2.2c-1.5,0-2.3-0.9-2.3-2.2
		C227.3,67.2,228.3,66.2,229.6,66.2z M229.6,70.3c1.1,0,1.7-0.9,1.7-2c0-1-0.5-1.9-1.7-1.9c-1.1,0-1.7,0.9-1.7,1.9
		C228,69.4,228.5,70.3,229.6,70.3z"/>
	<path fill="#FFFFFF" d="M232.5,66.2h1.7v0.3h-0.6v2.3c0,1,0.5,1.4,1.2,1.4c0.7,0,1.2-0.4,1.2-1.2v-2.6h-0.5v-0.3h1.4v0.3h-0.5v2.5
		c0,0.9-0.5,1.5-1.6,1.5c-1.3,0-1.8-0.6-1.8-1.7v-2.4h-0.6V66.2z"/>
	<path fill="#FFFFFF" d="M240.5,67.3h-0.3v0c0-0.6-0.7-0.8-1.2-0.8c-0.5,0-0.9,0.2-0.9,0.7c0,1.1,2.6,0.7,2.6,2.2
		c0,0.8-0.7,1.2-1.5,1.2c-0.7,0-1-0.2-1.2-0.3v0.2h-0.4v-1.1h0.4v0.3c0,0.5,0.8,0.6,1.2,0.6c0.5,0,1-0.2,1-0.7
		c0-1.3-2.6-0.8-2.6-2.3c0-0.8,0.7-1.1,1.4-1.1c0.5,0,0.9,0.1,1.2,0.4v-0.3h0.3V67.3z"/>
	<path fill="#FFFFFF" d="M241.2,70.3h0.6v-3.8h-0.6v-0.3h3.6v0.9h-0.3v-0.5h-2v1.5h1.7v-0.5h0.3v1.3H244v-0.5h-1.7v1.8h2.1v-0.5h0.3
		v0.9h-3.6V70.3z"/>
	<path fill="#FFFFFF" d="M248.5,67.3h-0.3v0c0-0.6-0.7-0.8-1.2-0.8c-0.5,0-0.9,0.2-0.9,0.7c0,1.1,2.6,0.7,2.6,2.2
		c0,0.8-0.7,1.2-1.5,1.2c-0.7,0-1-0.2-1.2-0.3v0.2h-0.4v-1.1h0.4v0.3c0,0.5,0.8,0.6,1.2,0.6c0.5,0,1-0.2,1-0.7
		c0-1.3-2.6-0.8-2.6-2.3c0-0.8,0.7-1.1,1.4-1.1c0.5,0,0.9,0.1,1.2,0.4v-0.3h0.3V67.3z"/>
	<path fill="#FFFFFF" d="M200.8,73.9h-0.5v-0.1c0-0.8-1-1.2-1.7-1.2c-0.6,0-1.3,0.3-1.3,1c0,1.5,3.7,1,3.7,3.2c0,1.2-1,1.7-2.2,1.7
		c-1,0-1.5-0.2-1.8-0.4v0.3h-0.5v-1.6h0.5v0.4c0,0.7,1.2,0.9,1.7,0.9c0.7,0,1.5-0.3,1.5-1c0-1.8-3.7-1.1-3.7-3.3c0-1.1,1-1.6,2-1.6
		c0.7,0,1.3,0.1,1.7,0.5v-0.5h0.5V73.9z"/>
	<path fill="#FFFFFF" d="M201.8,78.2h0.6v-3.8h-0.6v-0.3h1.7v0.3h-0.6v3.8h0.6v0.3h-1.7V78.2z"/>
	<path fill="#FFFFFF" d="M208.2,75.4h-0.3v0c0-0.6-0.8-0.9-1.4-0.9c-1.2,0-1.8,0.9-1.8,1.9c0,1,0.7,1.9,1.8,1.9
		c0.7,0,1.1-0.3,1.4-0.6v-0.9h-0.8v-0.3h1.3v2h-0.2c-0.1-0.2-0.1-0.3-0.2-0.5c-0.5,0.4-1.1,0.5-1.6,0.5c-1.3,0-2.4-0.9-2.4-2.2
		c0-1.4,1-2.2,2.3-2.2c0.5,0,1.1,0.1,1.6,0.5v-0.4h0.3V75.4z"/>
	<path fill="#FFFFFF" d="M209.1,78.2h0.6v-3.8h-0.6v-0.3h1l3,3.3v-3h-0.6v-0.3h1.5v0.3h-0.6v4.1h-0.2l-3.3-3.6v3.3h0.6v0.3h-1.5
		V78.2z"/>
	<path fill="#FFFFFF" d="M214.4,78.2h0.6v-3.8h-0.6v-0.3h1.7v0.3h-0.6v3.8h0.6v0.3h-1.7V78.2z"/>
	<path fill="#FFFFFF" d="M216.5,78.2h0.6v-3.8h-0.6v-0.3h3.4v0.9h-0.3v-0.5h-1.9v1.5h1.6v-0.5h0.3v1.3h-0.3v-0.5h-1.6v1.9h0.6v0.3
		h-1.7V78.2z"/>
	<path fill="#FFFFFF" d="M220.3,78.2h0.6v-3.8h-0.6v-0.3h1.7v0.3h-0.6v3.8h0.6v0.3h-1.7V78.2z"/>
	<path fill="#FFFFFF" d="M226.7,75.4h-0.4v-0.1c0-0.5-0.6-0.9-1.3-0.9c-1.1,0-1.8,0.8-1.8,1.9c0,1,0.7,1.9,1.8,1.9
		c0.9,0,1.3-0.3,1.7-0.7l0.2,0.2c-0.5,0.6-1.2,0.7-1.9,0.7c-1.4,0-2.4-0.9-2.4-2.2c0-1.4,1-2.2,2.3-2.2c0.6,0,1.1,0.1,1.4,0.5v-0.5
		h0.4V75.4z"/>
	<path fill="#FFFFFF" d="M227.2,78.2h0.4l1.8-4.1h0.2l1.8,4.1h0.5v0.3h-1.6v-0.3h0.5l-0.4-1h-2l-0.4,1h0.5v0.3h-1.2V78.2z
		 M229.4,74.9l-0.9,2.1h1.8L229.4,74.9z"/>
	<path fill="#FFFFFF" d="M232.2,78.2h0.6v-3.8h-0.6v-0.3h1l3,3.3v-3h-0.6v-0.3h1.5v0.3h-0.6v4.1h-0.2l-3.3-3.6v3.3h0.6v0.3h-1.5
		V78.2z"/>
	<path fill="#FFFFFF" d="M238.5,78.2h0.6v-3.7h-1.3v0.5h-0.4v-0.9h3.9v0.9H241v-0.5h-1.3v3.7h0.6v0.3h-1.7V78.2z"/>
	<path fill="#FFFFFF" d="M247.7,72.3c1.8,0,3.3,1.2,3.3,3.1c0,1.9-1.3,3.1-3.3,3.1c-2.1,0-3.3-1.3-3.3-3.1
		C244.4,73.7,245.8,72.3,247.7,72.3z M247.7,78.2c1.6,0,2.4-1.3,2.4-2.8c0-1.4-0.8-2.7-2.4-2.7s-2.4,1.3-2.4,2.7
		C245.4,76.9,246.1,78.2,247.7,78.2z"/>
	<path fill="#FFFFFF" d="M252.7,78.2h0.6v-3.7H252v0.5h-0.4v-0.9h3.9v0.9h-0.4v-0.5h-1.3v3.7h0.6v0.3h-1.7V78.2z"/>
	<path fill="#FFFFFF" d="M255.9,78.2h0.6v-3.8h-0.6v-0.3h1.7v0.3H257v1.6h2.6v-1.6H259v-0.3h1.7v0.3h-0.6v3.8h0.6v0.3H259v-0.3h0.6
		v-1.9H257v1.9h0.6v0.3h-1.7V78.2z"/>
	<path fill="#FFFFFF" d="M261.1,78.2h0.6v-3.8h-0.6v-0.3h3.6v0.9h-0.3v-0.5h-2v1.5h1.7v-0.5h0.3v1.3H264v-0.5h-1.7v1.8h2.1v-0.5h0.3
		v0.9h-3.6V78.2z"/>
	<path fill="#FFFFFF" d="M265.3,78.2h0.6v-3.8h-0.6v-0.3h1.9c0.8,0,1.5,0.3,1.5,1.2c0,0.6-0.4,1-1,1.1c0.2,0.2,0.5,0.7,0.8,1.1
		c0.2,0.3,0.3,0.6,0.7,0.6h0.1v0.3h-0.4c-0.7,0-0.9-0.8-1.7-1.8c-0.1-0.1-0.2-0.1-0.3-0.1h-0.4v1.6h0.6v0.3h-1.7V78.2z M266.5,76.3
		h0.6c0.6,0,1-0.4,1-1c0-0.5-0.3-0.9-1.1-0.9h-0.5V76.3z"/>
	<path fill="#FFFFFF" d="M272.6,75.3h-0.3v0c0-0.6-0.7-0.8-1.2-0.8c-0.5,0-0.9,0.2-0.9,0.7c0,1.1,2.6,0.7,2.6,2.2
		c0,0.8-0.7,1.2-1.5,1.2c-0.7,0-1-0.2-1.2-0.3v0.2h-0.4v-1.1h0.4v0.3c0,0.5,0.8,0.6,1.2,0.6c0.5,0,1-0.2,1-0.7
		c0-1.3-2.6-0.8-2.6-2.3c0-0.8,0.7-1.1,1.4-1.1c0.5,0,0.9,0.1,1.2,0.4v-0.3h0.3V75.3z"/>
</g>
<g id="couple">
	<g>
		<circle fill="#F2D6B7" cx="152.2" cy="27.3" r="8.4"/>
		<rect x="144.4" y="37.8" fill="#F2D6B7" width="15.6" height="17.3"/>
		<polygon fill="#F2D6B7" points="144.4,56.7 144.4,86 152.3,86 152.3,66 152.9,66 152.9,86 160,86 160,56.7 		"/>
		<path fill="#F2D6B7" d="M160.6,37.8l-0.1,0.1v6.3h0l5.7,8.2c0.6,0.8,1.8,1.1,2.6,0.5v0c0.8-0.6,1.1-1.8,0.5-2.6L160.6,37.8z"/>
		<path fill="#F2D6B7" d="M143.8,37.8l0.1,0.1v6.3h0l-5.7,8.2c-0.6,0.8-1.8,1.1-2.6,0.5v0c-0.8-0.6-1.1-1.8-0.5-2.6L143.8,37.8z"/>
	</g>
	<g>
		<circle fill="#F2D6B7" cx="179.7" cy="27.3" r="8.4"/>
		<polygon fill="#F2D6B7" points="172,37.8 187.4,37.8 179,55.1 		"/>
		<polygon fill="#F2D6B7" points="179,56.7 169.1,86 187.4,86 		"/>
		<g>
			<polygon fill="#F2D6B7" points="173.8,41.9 174.4,40.6 172.5,38.5 			"/>
			<path fill="#F2D6B7" d="M171.6,37.9l-5.5,12.9c-0.4,0.9,0.1,1.9,1,2.2l0,0c1,0.3,2.1-0.2,2.5-1.2l3.9-9.1L171.6,37.9z"/>
		</g>
		<path fill="#F2D6B7" d="M187.8,38l4.4,13.1c0.3,0.9-0.2,2-1.2,2.2l0,0c-1,0.2-2-0.3-2.3-1.3l-3.2-9.4L187.8,38z"/>
	</g>
</g>
<g>
	<path fill="#FFFFFF" d="M397,45.2c0,1.6-0.6,2.9-1.9,4.1c-1.4,1.2-3.2,1.9-5.4,1.9c-1.8,0-3.1-0.4-3.9-1.3
		c-0.5-0.5-0.8-1.1-0.8-1.8c0-0.6,0.2-1.1,0.6-1.4c0.4-0.4,0.9-0.5,1.5-0.5c0.5,0,0.9,0.1,1.2,0.4c0.3,0.3,0.5,0.7,0.5,1.1
		c0,0.7-0.4,1.2-1.3,1.6c-0.4,0.2-0.5,0.3-0.5,0.5c0,0.2,0.2,0.5,0.7,0.7c0.5,0.2,1,0.3,1.6,0.3c1.4,0,2.6-0.5,3.5-1.5
		c0.9-1,1.4-2.3,1.4-3.9c0-3.2-1.4-4.8-4.3-4.8c-0.3,0-0.5,0-0.6,0h-0.2c-0.2,0-0.4-0.1-0.4-0.3c0-0.1,0.2-0.2,0.7-0.3
		c1.3-0.2,2.4-0.7,3.1-1.5c0.7-0.8,1.1-1.8,1.1-3c0-1.2-0.3-2.2-0.9-2.9c-0.6-0.7-1.5-1.1-2.5-1.1c-0.8,0-1.5,0.2-2,0.5
		c-0.6,0.3-0.9,0.7-0.9,1.2c0,0.2,0.1,0.3,0.4,0.3c1.3,0.3,1.9,0.8,1.9,1.6c0,1-0.5,1.5-1.5,1.5c-0.6,0-1.2-0.2-1.6-0.6
		c-0.4-0.4-0.6-0.9-0.6-1.5c0-1,0.4-1.9,1.3-2.6c0.9-0.7,2.1-1,3.7-1c1.8,0,3.2,0.5,4.1,1.4c1,0.9,1.4,2,1.4,3.3
		c0,1.7-0.8,3-2.4,3.8c-0.6,0.3-1.5,0.5-2.8,0.7V40c1.6,0.1,2.9,0.4,3.8,1.1C396.3,42,397,43.4,397,45.2z"/>
	<path fill="#FFFFFF" d="M412.4,39.4c0,2.5-0.6,4.8-1.7,6.8s-2.7,3.4-4.5,4.2c-1.4,0.6-2.7,0.9-4.1,0.9c-0.5,0-0.7-0.1-0.7-0.2
		c0-0.1,0.1-0.2,0.4-0.2c3.2-0.4,5.4-2,6.6-4.8c0.5-1.1,0.8-2.6,1-4.3c-1,1-2.2,1.5-3.5,1.5c-1.3,0-2.4-0.4-3.4-1.1
		c-1.5-1.1-2.3-2.7-2.3-4.9c0-1.8,0.6-3.4,1.7-4.7c1.1-1.3,2.5-1.9,4-1.9c1.9,0,3.5,0.8,4.8,2.5C411.7,34.7,412.4,36.8,412.4,39.4z
		 M409.4,37.6c0-2.2-0.4-3.9-1.2-5.1c-0.6-0.9-1.3-1.3-2.3-1.3c-2,0-2.9,2.1-2.9,6.2c0,3.5,1.1,5.3,3.3,5.3c1,0,1.7-0.4,2.3-1.3
		C409.1,40.4,409.4,39.1,409.4,37.6z"/>
	<path fill="#FFFFFF" d="M430.3,30.6l-11,20.2l-1.3,0l10.3-19c-0.9,0.6-2,0.9-3.2,0.9c-0.8,0-1.7-0.2-2.5-0.5c0.7,1,1.1,2.2,1.1,3.4
		c0,1.3-0.4,2.4-1.2,3.3c-0.8,0.9-1.9,1.3-3.2,1.3c-1.3,0-2.5-0.5-3.3-1.4s-1.3-2.1-1.3-3.5c0-1.4,0.4-2.5,1.3-3.4s1.9-1.4,3.2-1.4
		c0.7,0,1.7,0.3,3.2,0.8c1.1,0.4,2.1,0.6,2.9,0.6c1.2,0,2.5-0.4,3.8-1.3L430.3,30.6z M421.3,35.2c0-1.3-0.2-2.3-0.6-3.1
		c-0.3-0.6-0.8-0.9-1.5-0.9c-1.5,0-2.2,1.4-2.2,4.3c0,3,0.8,4.5,2.3,4.5c0.7,0,1.3-0.4,1.6-1.3C421.2,37.8,421.3,36.6,421.3,35.2z
		 M433.7,46.4c0,1.7-0.7,3-2,4c-0.6,0.5-1.4,0.7-2.4,0.7c-1.4,0-2.5-0.5-3.4-1.4c-0.9-0.9-1.3-2.1-1.3-3.5c0-1.4,0.4-2.5,1.3-3.4
		c0.9-0.9,2-1.3,3.3-1.3c1.3,0,2.3,0.4,3,1.2C433.2,43.6,433.7,44.8,433.7,46.4z M431.3,45.8c0-1.2-0.2-2.3-0.6-3.1
		c-0.3-0.6-0.8-0.9-1.6-0.9c-1.5,0-2.2,1.4-2.2,4.3c0,3,0.8,4.5,2.3,4.5c0.7,0,1.3-0.4,1.6-1.3C431.2,48.5,431.3,47.3,431.3,45.8z"
		/>
</g>
<g>
	<path fill="#FFFFFF" d="M383.6,59.9h-0.3v0c0-0.6-0.7-0.8-1.2-0.8c-0.5,0-0.9,0.2-0.9,0.7c0,1.1,2.6,0.7,2.6,2.2
		c0,0.8-0.7,1.2-1.5,1.2c-0.7,0-1-0.2-1.2-0.3v0.2h-0.4v-1.1h0.4v0.3c0,0.5,0.8,0.6,1.2,0.6c0.5,0,1-0.2,1-0.7
		c0-1.3-2.6-0.8-2.6-2.3c0-0.8,0.7-1.1,1.4-1.1c0.5,0,0.9,0.1,1.2,0.4v-0.3h0.3V59.9z"/>
	<path fill="#FFFFFF" d="M384.3,62.8h0.6V59h-0.6v-0.3h1.8c0.8,0,1.6,0.3,1.6,1.3c0,0.9-0.7,1.3-1.6,1.3c-0.2,0-0.4,0-0.7,0v1.5h0.6
		v0.3h-1.7V62.8z M385.5,61c0.2,0,0.4,0,0.6,0c0.6,0,1.1-0.3,1.1-1c0-0.6-0.4-1-1.1-1h-0.5V61z"/>
	<path fill="#FFFFFF" d="M388.1,62.8h0.6V59h-0.6v-0.3h3.6v0.9h-0.3v-0.5h-2v1.5h1.7v-0.5h0.3v1.3H391v-0.5h-1.7v1.8h2.1v-0.5h0.3
		v0.9h-3.6V62.8z"/>
	<path fill="#FFFFFF" d="M392.4,62.8h0.6V59h-0.6v-0.3h1l3,3.3v-3h-0.6v-0.3h1.5V59h-0.6v4.1h-0.2l-3.3-3.6v3.3h0.6v0.3h-1.5V62.8z"
		/>
	<path fill="#FFFFFF" d="M398.7,62.8h0.6v-3.7h-1.3v0.5h-0.4v-0.9h3.9v0.9h-0.4v-0.5h-1.3v3.7h0.6v0.3h-1.7V62.8z"/>
	<path fill="#FFFFFF" d="M406.8,58.7c1.3,0,2.3,0.8,2.3,2.2c0,1.3-0.9,2.2-2.3,2.2c-1.5,0-2.3-0.9-2.3-2.2
		C404.5,59.7,405.4,58.7,406.8,58.7z M406.8,62.8c1.1,0,1.7-0.9,1.7-2c0-1-0.5-1.9-1.7-1.9s-1.7,0.9-1.7,1.9
		C405.1,61.9,405.6,62.8,406.8,62.8z"/>
	<path fill="#FFFFFF" d="M409.6,62.8h0.6V59h-0.6v-0.3h1l3,3.3v-3H413v-0.3h1.5V59h-0.6v4.1h-0.2l-3.3-3.6v3.3h0.6v0.3h-1.5V62.8z"
		/>
	<path fill="#FFFFFF" d="M419.8,58.7c1.3,0,2.3,0.8,2.3,2.2c0,1.3-0.9,2.2-2.3,2.2c-1.5,0-2.3-0.9-2.3-2.2
		C417.5,59.7,418.4,58.7,419.8,58.7z M419.8,62.8c1.1,0,1.7-0.9,1.7-2c0-1-0.5-1.9-1.7-1.9s-1.7,0.9-1.7,1.9
		C418.1,61.9,418.6,62.8,419.8,62.8z"/>
	<path fill="#FFFFFF" d="M423.6,62.8h0.6v-3.7h-1.3v0.5h-0.4v-0.9h3.9v0.9h-0.4v-0.5h-1.3v3.7h0.6v0.3h-1.7V62.8z"/>
	<path fill="#FFFFFF" d="M426.8,62.8h0.6V59h-0.6v-0.3h1.7V59h-0.6v1.6h2.6V59h-0.6v-0.3h1.7V59h-0.6v3.8h0.6v0.3h-1.7v-0.3h0.6
		v-1.9h-2.6v1.9h0.6v0.3h-1.7V62.8z"/>
	<path fill="#FFFFFF" d="M432,62.8h0.6V59H432v-0.3h3.6v0.9h-0.3v-0.5h-2v1.5h1.7v-0.5h0.3v1.3h-0.3v-0.5h-1.7v1.8h2.1v-0.5h0.3v0.9
		H432V62.8z"/>
	<path fill="#FFFFFF" d="M436.2,62.8h0.6V59h-0.6v-0.3h1.9c0.8,0,1.5,0.3,1.5,1.2c0,0.6-0.4,1-1,1.1c0.2,0.2,0.5,0.7,0.8,1.1
		c0.2,0.3,0.3,0.6,0.7,0.6h0.1v0.3h-0.4c-0.7,0-0.9-0.8-1.7-1.8c-0.1-0.1-0.2-0.1-0.3-0.1h-0.4v1.6h0.6v0.3h-1.7V62.8z M437.4,60.9
		h0.6c0.6,0,1-0.4,1-1c0-0.5-0.3-0.9-1.1-0.9h-0.5V60.9z"/>
	<path fill="#FFFFFF" d="M379,70.8h0.6V67H379v-0.3h3.4v0.9h-0.3v-0.5h-1.9v1.5h1.6v-0.5h0.3v1.3h-0.3v-0.5h-1.6v1.9h0.6V71H379
		V70.8z"/>
	<path fill="#FFFFFF" d="M382.4,70.8h0.4l1.8-4.1h0.2l1.8,4.1h0.5V71h-1.6v-0.3h0.5l-0.4-1h-2l-0.4,1h0.5V71h-1.2V70.8z M384.6,67.4
		l-0.9,2.1h1.8L384.6,67.4z"/>
	<path fill="#FFFFFF" d="M387.4,70.8h0.5V67h-0.5v-0.3h1.1l1.9,3.4l1.9-3.4h1.1V67h-0.5v3.8h0.5V71h-1.7v-0.3h0.6v-3.4h0l-1.9,3.4
		h-0.2l-1.8-3.3h0v3.3h0.5V71h-1.4V70.8z"/>
	<path fill="#FFFFFF" d="M393.7,70.8h0.6V67h-0.6v-0.3h1.7V67h-0.6v3.8h0.6V71h-1.7V70.8z"/>
	<path fill="#FFFFFF" d="M395.8,70.8h0.6V67h-0.6v-0.3h1.7V67H397v3.7h1.9V70h0.4v1h-3.4V70.8z"/>
	<path fill="#FFFFFF" d="M400.4,70.8h0.6v-1.3l-1.5-2.5H399v-0.3h1.7V67h-0.6l1.2,2.1l1.2-2.1H402v-0.3h1.3V67h-0.4l-1.4,2.5v1.3
		h0.6V71h-1.7V70.8z"/>
	<path fill="#FFFFFF" d="M406.1,70.8h0.5V67h-0.5v-0.3h1.1l1.9,3.4l1.9-3.4h1.1V67h-0.5v3.8h0.5V71h-1.7v-0.3h0.6v-3.4h0l-1.9,3.4
		h-0.2l-1.8-3.3h0v3.3h0.5V71h-1.4V70.8z"/>
	<path fill="#FFFFFF" d="M412.4,70.8h0.6V67h-0.6v-0.3h3.6v0.9h-0.3v-0.5h-2v1.5h1.7v-0.5h0.3v1.3h-0.3v-0.5h-1.7v1.8h2.1v-0.5h0.3
		V71h-3.6V70.8z"/>
	<path fill="#FFFFFF" d="M416.6,70.8h0.5V67h-0.5v-0.3h1.1l1.9,3.4l1.9-3.4h1.1V67H422v3.8h0.5V71h-1.7v-0.3h0.6v-3.4h0l-1.9,3.4
		h-0.2l-1.8-3.3h0v3.3h0.5V71h-1.4V70.8z"/>
	<path fill="#FFFFFF" d="M422.9,70.8h0.6V67h-0.6v-0.3h2c0.7,0,1.4,0.2,1.4,1.1c0,0.6-0.5,0.8-1,1v0c0.6,0,1.2,0.4,1.2,1.1
		c0,0.9-0.8,1.2-1.6,1.1h-2.1V70.8z M424.1,68.6h0.7c0.6,0,1-0.3,1-0.8c0-0.5-0.4-0.8-1-0.8h-0.6V68.6z M424.1,70.8h0.8
		c0.6,0,1.1-0.2,1.1-0.9c0-0.6-0.3-1-1.2-1h-0.7V70.8z"/>
	<path fill="#FFFFFF" d="M427.1,70.8h0.6V67h-0.6v-0.3h3.6v0.9h-0.3v-0.5h-2v1.5h1.7v-0.5h0.3v1.3H430v-0.5h-1.7v1.8h2.1v-0.5h0.3
		V71h-3.6V70.8z"/>
	<path fill="#FFFFFF" d="M431.3,70.8h0.6V67h-0.6v-0.3h1.9c0.8,0,1.5,0.3,1.5,1.2c0,0.6-0.4,1-1,1.1c0.2,0.2,0.5,0.7,0.8,1.1
		c0.2,0.3,0.3,0.6,0.7,0.6h0.1V71h-0.4c-0.7,0-0.9-0.8-1.7-1.8c-0.1-0.1-0.2-0.1-0.3-0.1h-0.4v1.6h0.6V71h-1.7V70.8z M432.5,68.9
		h0.6c0.6,0,1-0.4,1-1c0-0.5-0.3-0.9-1.1-0.9h-0.5V68.9z"/>
	<path fill="#FFFFFF" d="M438.6,67.8h-0.3v0c0-0.6-0.7-0.8-1.2-0.8c-0.5,0-0.9,0.2-0.9,0.7c0,1.1,2.6,0.7,2.6,2.2
		c0,0.8-0.7,1.2-1.5,1.2c-0.7,0-1-0.2-1.2-0.3V71h-0.4v-1.1h0.4v0.3c0,0.5,0.8,0.6,1.2,0.6c0.5,0,1-0.2,1-0.7c0-1.3-2.6-0.8-2.6-2.3
		c0-0.8,0.7-1.1,1.4-1.1c0.5,0,0.9,0.1,1.2,0.4v-0.3h0.3V67.8z"/>
	<path fill="#FFFFFF" d="M440.1,70h0.9l-0.6,2.3H440L440.1,70z"/>
	<path fill="#FFFFFF" d="M370.4,78.7h0.6V75h-0.6v-0.3h3.4v0.9h-0.3v-0.5h-1.9v1.5h1.6v-0.5h0.3v1.3h-0.3v-0.5h-1.6v1.9h0.6V79h-1.7
		V78.7z"/>
	<path fill="#FFFFFF" d="M374.3,78.7h0.6V75h-0.6v-0.3h1.9c0.8,0,1.5,0.3,1.5,1.2c0,0.6-0.4,1-1,1.1c0.2,0.2,0.5,0.7,0.8,1.1
		c0.2,0.3,0.3,0.6,0.7,0.6h0.1V79h-0.4c-0.7,0-0.9-0.8-1.7-1.8c-0.1-0.1-0.2-0.1-0.3-0.1h-0.4v1.6h0.6V79h-1.7V78.7z M375.4,76.8
		h0.6c0.6,0,1-0.4,1-1c0-0.5-0.3-0.9-1.1-0.9h-0.5V76.8z"/>
	<path fill="#FFFFFF" d="M378.5,78.7h0.6V75h-0.6v-0.3h1.7V75h-0.6v3.8h0.6V79h-1.7V78.7z"/>
	<path fill="#FFFFFF" d="M380.5,78.7h0.6V75h-0.6v-0.3h3.6v0.9h-0.3v-0.5h-2v1.5h1.7v-0.5h0.3v1.3h-0.3v-0.5h-1.7v1.8h2.1v-0.5h0.3
		V79h-3.6V78.7z"/>
	<path fill="#FFFFFF" d="M384.8,78.7h0.6V75h-0.6v-0.3h1l3,3.3v-3h-0.6v-0.3h1.5V75h-0.6V79H389l-3.3-3.6v3.3h0.6V79h-1.5V78.7z"/>
	<path fill="#FFFFFF" d="M390,78.7h0.6V75H390v-0.3h1.8c1.4,0,2.5,0.8,2.5,2.1c0,1.5-1.1,2.1-2.6,2.1H390V78.7z M391.2,78.7h0.5
		c1.3,0,2-0.8,2-1.9c0-1.4-0.9-1.9-1.8-1.9h-0.7V78.7z"/>
	<path fill="#FFFFFF" d="M398,75.8h-0.3v0c0-0.6-0.7-0.8-1.2-0.8c-0.5,0-0.9,0.2-0.9,0.7c0,1.1,2.6,0.7,2.6,2.2
		c0,0.8-0.7,1.2-1.5,1.2c-0.7,0-1-0.2-1.2-0.3V79h-0.4v-1.1h0.4v0.3c0,0.5,0.8,0.6,1.2,0.6c0.5,0,1-0.2,1-0.7c0-1.3-2.6-0.8-2.6-2.3
		c0-0.8,0.7-1.1,1.4-1.1c0.5,0,0.9,0.1,1.2,0.4v-0.3h0.3V75.8z"/>
	<path fill="#FFFFFF" d="M399.4,78h0.9l-0.6,2.3h-0.4L399.4,78z"/>
	<path fill="#FFFFFF" d="M408,75.9h-0.4v-0.1c0-0.5-0.6-0.9-1.3-0.9c-1.1,0-1.8,0.8-1.8,1.9c0,1,0.7,1.9,1.8,1.9
		c0.9,0,1.3-0.3,1.7-0.7l0.2,0.2c-0.5,0.6-1.2,0.7-1.9,0.7c-1.4,0-2.4-0.9-2.4-2.2c0-1.4,1-2.2,2.3-2.2c0.6,0,1.1,0.1,1.4,0.5v-0.5
		h0.4V75.9z"/>
	<path fill="#FFFFFF" d="M408.7,78.7h0.6V75h-0.6v-0.3h1.7V75h-0.6v3.7h1.9V78h0.4v1h-3.4V78.7z"/>
	<path fill="#FFFFFF" d="M412.4,78.7h0.4l1.8-4.1h0.2l1.8,4.1h0.5V79h-1.6v-0.3h0.5l-0.4-1h-2l-0.4,1h0.5V79h-1.2V78.7z M414.6,75.4
		l-0.9,2.1h1.8L414.6,75.4z"/>
	<path fill="#FFFFFF" d="M420.5,75.8h-0.3v0c0-0.6-0.7-0.8-1.2-0.8c-0.5,0-0.9,0.2-0.9,0.7c0,1.1,2.6,0.7,2.6,2.2
		c0,0.8-0.7,1.2-1.5,1.2c-0.7,0-1-0.2-1.2-0.3V79h-0.4v-1.1h0.4v0.3c0,0.5,0.8,0.6,1.2,0.6c0.5,0,1-0.2,1-0.7c0-1.3-2.6-0.8-2.6-2.3
		c0-0.8,0.7-1.1,1.4-1.1c0.5,0,0.9,0.1,1.2,0.4v-0.3h0.3V75.8z"/>
	<path fill="#FFFFFF" d="M424.4,75.8H424v0c0-0.6-0.7-0.8-1.2-0.8c-0.5,0-0.9,0.2-0.9,0.7c0,1.1,2.6,0.7,2.6,2.2
		c0,0.8-0.7,1.2-1.5,1.2c-0.7,0-1-0.2-1.2-0.3V79h-0.4v-1.1h0.4v0.3c0,0.5,0.8,0.6,1.2,0.6c0.5,0,1-0.2,1-0.7c0-1.3-2.6-0.8-2.6-2.3
		c0-0.8,0.7-1.1,1.4-1.1c0.5,0,0.9,0.1,1.2,0.4v-0.3h0.3V75.8z"/>
	<path fill="#FFFFFF" d="M427.6,78.7h0.5V75h-0.5v-0.3h1.1l1.9,3.4l1.9-3.4h1.1V75H433v3.8h0.5V79h-1.7v-0.3h0.6v-3.4h0l-1.9,3.4
		h-0.2l-1.8-3.3h0v3.3h0.5V79h-1.4V78.7z"/>
	<path fill="#FFFFFF" d="M433.8,78.7h0.4l1.8-4.1h0.2l1.8,4.1h0.5V79h-1.6v-0.3h0.5l-0.4-1h-2l-0.4,1h0.5V79h-1.2V78.7z M436,75.4
		l-0.9,2.1h1.8L436,75.4z"/>
	<path fill="#FFFFFF" d="M439.3,78.7h0.6v-3.7h-1.3v0.5h-0.4v-0.9h3.9v0.9h-0.4v-0.5h-1.3v3.7h0.6V79h-1.7V78.7z"/>
	<path fill="#FFFFFF" d="M442.4,78.7h0.6V75h-0.6v-0.3h3.6v0.9h-0.3v-0.5h-2v1.5h1.7v-0.5h0.3v1.3h-0.3v-0.5h-1.7v1.8h2.1v-0.5h0.3
		V79h-3.6V78.7z"/>
	<path fill="#FFFFFF" d="M449.8,75.8h-0.3v0c0-0.6-0.7-0.8-1.2-0.8c-0.5,0-0.9,0.2-0.9,0.7c0,1.1,2.6,0.7,2.6,2.2
		c0,0.8-0.7,1.2-1.5,1.2c-0.7,0-1-0.2-1.2-0.3V79h-0.4v-1.1h0.4v0.3c0,0.5,0.8,0.6,1.2,0.6c0.5,0,1-0.2,1-0.7c0-1.3-2.6-0.8-2.6-2.3
		c0-0.8,0.7-1.1,1.4-1.1c0.5,0,0.9,0.1,1.2,0.4v-0.3h0.3V75.8z"/>
	<path fill="#FFFFFF" d="M388.1,86.7h0.4l1.8-4.1h0.2l1.8,4.1h0.5V87h-1.6v-0.3h0.5l-0.4-1h-2l-0.4,1h0.5V87h-1.2V86.7z M390.3,83.3
		l-0.9,2.1h1.8L390.3,83.3z"/>
	<path fill="#FFFFFF" d="M393.1,86.7h0.6v-3.8h-0.6v-0.3h1l3,3.3v-3h-0.6v-0.3h1.5v0.3h-0.6V87h-0.2l-3.3-3.6v3.3h0.6V87h-1.5V86.7z
		"/>
	<path fill="#FFFFFF" d="M398.4,86.7h0.6v-3.8h-0.6v-0.3h1.8c1.4,0,2.5,0.8,2.5,2.1c0,1.5-1.1,2.1-2.6,2.1h-1.7V86.7z M399.5,86.7
		h0.5c1.3,0,2-0.8,2-1.9c0-1.4-0.9-1.9-1.8-1.9h-0.7V86.7z"/>
	<path fill="#FFFFFF" d="M408.2,82.6c1.3,0,2.3,0.8,2.3,2.2c0,1.3-0.9,2.2-2.3,2.2c-1.5,0-2.3-0.9-2.3-2.2
		C405.9,83.6,406.8,82.6,408.2,82.6z M408.2,86.7c1.1,0,1.7-0.9,1.7-2c0-1-0.5-1.9-1.7-1.9s-1.7,0.9-1.7,1.9
		C406.5,85.8,407,86.7,408.2,86.7z"/>
	<path fill="#FFFFFF" d="M412,86.7h0.6V83h-1.3v0.5h-0.4v-0.9h3.9v0.9h-0.4V83h-1.3v3.7h0.6V87H412V86.7z"/>
	<path fill="#FFFFFF" d="M415.2,86.7h0.6v-3.8h-0.6v-0.3h1.7v0.3h-0.6v1.6h2.6v-1.6h-0.6v-0.3h1.7v0.3h-0.6v3.8h0.6V87h-1.7v-0.3
		h0.6v-1.9h-2.6v1.9h0.6V87h-1.7V86.7z"/>
	<path fill="#FFFFFF" d="M420.4,86.7h0.6v-3.8h-0.6v-0.3h3.6v0.9h-0.3V83h-2v1.5h1.7V84h0.3v1.3h-0.3v-0.5h-1.7v1.8h2.1V86h0.3V87
		h-3.6V86.7z"/>
	<path fill="#FFFFFF" d="M424.7,86.7h0.6v-3.8h-0.6v-0.3h1.9c0.8,0,1.5,0.3,1.5,1.2c0,0.6-0.4,1-1,1.1c0.2,0.2,0.5,0.7,0.8,1.1
		c0.2,0.3,0.3,0.6,0.7,0.6h0.1V87h-0.4c-0.7,0-0.9-0.8-1.7-1.8c-0.1-0.1-0.2-0.1-0.3-0.1h-0.4v1.6h0.6V87h-1.7V86.7z M425.8,84.8
		h0.6c0.6,0,1-0.4,1-1c0-0.5-0.3-0.9-1.1-0.9h-0.5V84.8z"/>
	<path fill="#FFFFFF" d="M432,83.8h-0.3v0c0-0.6-0.7-0.8-1.2-0.8c-0.5,0-0.9,0.2-0.9,0.7c0,1.1,2.6,0.7,2.6,2.2
		c0,0.8-0.7,1.2-1.5,1.2c-0.7,0-1-0.2-1.2-0.3V87h-0.4v-1.1h0.4v0.3c0,0.5,0.8,0.6,1.2,0.6c0.5,0,1-0.2,1-0.7c0-1.3-2.6-0.8-2.6-2.3
		c0-0.8,0.7-1.1,1.4-1.1c0.5,0,0.9,0.1,1.2,0.4v-0.3h0.3V83.8z"/>
</g>
<g id="family">
	<g>
		<circle fill="#F2D6B7" cx="314.6" cy="25.7" r="8.4"/>
		<rect x="306.8" y="36.2" fill="#F2D6B7" width="15.6" height="17.3"/>
		<polygon fill="#F2D6B7" points="306.8,55 306.8,84.3 314.7,84.3 314.7,64.3 315.3,64.3 315.3,84.3 322.5,84.3 322.5,55 		"/>
		<path fill="#F2D6B7" d="M323.1,36.2l-0.1,0.1v6.3h0l5.7,8.2c0.6,0.8,1.8,1.1,2.6,0.5v0c0.8-0.6,1.1-1.8,0.5-2.6L323.1,36.2z"/>
		<path fill="#F2D6B7" d="M306.2,36.2l0.1,0.1v6.3h0l-5.7,8.2c-0.6,0.8-1.8,1.1-2.6,0.5l0,0c-0.8-0.6-1.1-1.8-0.5-2.6L306.2,36.2z"
			/>
	</g>
	<g>
		<circle fill="#F2D6B7" cx="340.8" cy="43.5" r="5.9"/>
		<polygon fill="#F2D6B7" points="335.5,50.8 346.1,50.8 340.3,62.8 		"/>
		<polygon fill="#F2D6B7" points="340.3,63.9 333.4,84.3 346.1,84.3 		"/>
		<g>
			<polygon fill="#F2D6B7" points="336.7,53.7 337.1,52.7 335.8,51.3 			"/>
			<path fill="#F2D6B7" d="M335.2,50.9l-3.8,8.9c-0.3,0.6,0.1,1.3,0.7,1.5l0,0c0.7,0.2,1.5-0.1,1.8-0.8l2.7-6.3L335.2,50.9z"/>
		</g>
		<path fill="#F2D6B7" d="M346.4,50.9l3.1,9.1c0.2,0.7-0.2,1.4-0.9,1.5l0,0c-0.7,0.2-1.4-0.2-1.6-0.9l-2.2-6.6L346.4,50.9z"/>
	</g>
	<g>
		<circle fill="#F2D6B7" cx="357.2" cy="63.9" r="3.5"/>
		<rect x="353.9" y="68.3" fill="#F2D6B7" width="6.6" height="7.3"/>
		<polygon fill="#F2D6B7" points="353.9,76.2 353.9,84.3 357.2,84.3 357.2,78.8 357.4,78.8 357.4,84.3 360.4,84.3 360.4,76.2 		"/>
		<path fill="#F2D6B7" d="M360.7,68.3L360.7,68.3l0,2.7h0l2.4,3.5c0.2,0.4,0.7,0.4,1.1,0.2l0,0c0.4-0.2,0.4-0.7,0.2-1.1L360.7,68.3z
			"/>
		<path fill="#F2D6B7" d="M353.6,68.3L353.6,68.3l0,2.7h0l-2.4,3.5c-0.2,0.4-0.7,0.4-1.1,0.2l0,0c-0.4-0.2-0.4-0.7-0.2-1.1
			L353.6,68.3z"/>
	</g>
</g>
<g>
	<path fill="#FFFFFF" d="M561.4,46.9c0,2.4-0.9,4.3-2.8,5.6c-1.1,0.8-2.6,1.2-4.4,1.2c-1.8,0-3.1-0.5-3.9-1.4
		c-0.5-0.5-0.7-1.1-0.7-1.8c0-0.6,0.2-1.1,0.6-1.4c0.4-0.4,0.9-0.6,1.5-0.6c0.5,0,0.9,0.1,1.2,0.4c0.3,0.3,0.5,0.6,0.5,1.1
		c0,0.7-0.5,1.2-1.4,1.6c-0.4,0.2-0.6,0.3-0.6,0.5c0,0.3,0.3,0.6,0.8,0.8s1.2,0.4,1.9,0.4c1.3,0,2.3-0.5,3-1.4
		c0.9-1.3,1.4-2.9,1.4-5.1c0-1.6-0.4-2.8-1.1-3.6c-0.7-0.9-1.8-1.3-3.1-1.3c-1,0-2.2,0.4-3.4,1.2c0.1-4.3,0.2-7,0.3-8.1
		c0-0.6,0.2-1,0.4-1.2c0.3-0.1,1-0.2,2.2-0.2c0.2,0,0.5,0,1,0c0.5,0,0.8,0,1.1,0h1c1.3,0,2.1,0,2.3-0.1c0.2,0,0.4-0.2,0.4-0.5
		c0.1-0.4,0.2-0.6,0.4-0.6s0.3,0.1,0.3,0.3c0,0.1,0,0.2,0,0.3l-0.1,0.7c-0.1,1.1-0.3,1.7-0.6,2c-0.3,0.3-1,0.4-2.2,0.4h-5.5
		c-0.1,0.7-0.1,2.6-0.2,5.9c1.1-0.5,2.2-0.8,3.4-0.8c2,0,3.5,0.5,4.6,1.6C560.8,43.7,561.4,45.1,561.4,46.9z"/>
	<path fill="#FFFFFF" d="M579.5,33.2l-11,20.2l-1.3,0l10.3-19c-0.9,0.6-2,0.9-3.2,0.9c-0.8,0-1.7-0.2-2.5-0.5c0.7,1,1.1,2.2,1.1,3.4
		c0,1.3-0.4,2.4-1.2,3.3c-0.8,0.9-1.9,1.3-3.2,1.3c-1.3,0-2.5-0.5-3.3-1.4s-1.3-2.1-1.3-3.5c0-1.4,0.4-2.5,1.3-3.4s1.9-1.4,3.2-1.4
		c0.7,0,1.7,0.3,3.2,0.8c1.1,0.4,2.1,0.6,2.9,0.6c1.2,0,2.5-0.4,3.8-1.3L579.5,33.2z M570.5,37.7c0-1.3-0.2-2.3-0.6-3.1
		c-0.3-0.6-0.8-0.9-1.5-0.9c-1.5,0-2.2,1.4-2.2,4.3c0,3,0.8,4.5,2.3,4.5c0.7,0,1.3-0.4,1.6-1.3C570.4,40.3,570.5,39.2,570.5,37.7z
		 M582.9,48.9c0,1.7-0.7,3-2,4c-0.6,0.5-1.4,0.7-2.4,0.7c-1.4,0-2.5-0.5-3.4-1.4c-0.9-0.9-1.3-2.1-1.3-3.5c0-1.4,0.4-2.5,1.3-3.4
		c0.9-0.9,2-1.3,3.3-1.3c1.3,0,2.3,0.4,3,1.2C582.4,46.1,582.9,47.4,582.9,48.9z M580.5,48.4c0-1.2-0.2-2.3-0.6-3.1
		c-0.3-0.6-0.8-0.9-1.6-0.9c-1.5,0-2.2,1.4-2.2,4.3c0,3,0.8,4.5,2.3,4.5c0.7,0,1.3-0.4,1.6-1.3C580.4,51,580.5,49.9,580.5,48.4z"/>
</g>
<g>
	<path fill="#FFFFFF" d="M528.8,64.5h0.4l1.8-4.1h0.2l1.8,4.1h0.5v0.3h-1.6v-0.3h0.5l-0.4-1h-2l-0.4,1h0.5v0.3h-1.2V64.5z M531,61.2
		l-0.9,2.1h1.8L531,61.2z"/>
	<path fill="#FFFFFF" d="M539.4,61.6h-0.3v0c0-0.6-0.7-0.8-1.2-0.8c-0.5,0-0.9,0.2-0.9,0.7c0,1.1,2.6,0.7,2.6,2.2
		c0,0.8-0.7,1.2-1.5,1.2c-0.7,0-1-0.2-1.2-0.3v0.2h-0.4v-1.1h0.4v0.3c0,0.5,0.8,0.6,1.2,0.6c0.5,0,1-0.2,1-0.7
		c0-1.3-2.6-0.8-2.6-2.3c0-0.8,0.7-1.1,1.4-1.1c0.5,0,0.9,0.1,1.2,0.4v-0.3h0.3V61.6z"/>
	<path fill="#FFFFFF" d="M540.2,60.5h1.7v0.3h-0.6v2.3c0,1,0.5,1.4,1.2,1.4c0.7,0,1.2-0.4,1.2-1.2v-2.6h-0.5v-0.3h1.4v0.3h-0.5v2.5
		c0,0.9-0.5,1.5-1.6,1.5c-1.3,0-1.8-0.6-1.8-1.7v-2.4h-0.6V60.5z"/>
	<path fill="#FFFFFF" d="M545.1,64.5h0.6v-3.8h-0.6v-0.3h1.9c0.8,0,1.5,0.3,1.5,1.2c0,0.6-0.4,1-1,1.1c0.2,0.2,0.5,0.7,0.8,1.1
		c0.2,0.3,0.3,0.6,0.7,0.6h0.1v0.3h-0.4c-0.7,0-0.9-0.8-1.7-1.8c-0.1-0.1-0.2-0.1-0.3-0.1h-0.4v1.6h0.6v0.3h-1.7V64.5z M546.2,62.6
		h0.6c0.6,0,1-0.4,1-1c0-0.5-0.3-0.9-1.1-0.9h-0.5V62.6z"/>
	<path fill="#FFFFFF" d="M549.3,64.5h0.6v-3.8h-0.6v-0.3h1.8c0.8,0,1.6,0.3,1.6,1.3c0,0.9-0.7,1.3-1.6,1.3c-0.2,0-0.4,0-0.7,0v1.5
		h0.6v0.3h-1.7V64.5z M550.4,62.8c0.2,0,0.4,0,0.6,0c0.6,0,1.1-0.3,1.1-1c0-0.6-0.4-1-1.1-1h-0.5V62.8z"/>
	<path fill="#FFFFFF" d="M553.1,64.5h0.6v-3.8h-0.6v-0.3h1.9c0.8,0,1.5,0.3,1.5,1.2c0,0.6-0.4,1-1,1.1c0.2,0.2,0.5,0.7,0.8,1.1
		c0.2,0.3,0.3,0.6,0.7,0.6h0.1v0.3h-0.4c-0.7,0-0.9-0.8-1.7-1.8c-0.1-0.1-0.2-0.1-0.3-0.1h-0.4v1.6h0.6v0.3h-1.7V64.5z M554.3,62.6
		h0.6c0.6,0,1-0.4,1-1c0-0.5-0.3-0.9-1.1-0.9h-0.5V62.6z"/>
	<path fill="#FFFFFF" d="M557.3,64.5h0.6v-3.8h-0.6v-0.3h1.7v0.3h-0.6v3.8h0.6v0.3h-1.7V64.5z"/>
	<path fill="#FFFFFF" d="M562.5,61.6h-0.3v0c0-0.6-0.7-0.8-1.2-0.8c-0.5,0-0.9,0.2-0.9,0.7c0,1.1,2.6,0.7,2.6,2.2
		c0,0.8-0.7,1.2-1.5,1.2c-0.7,0-1-0.2-1.2-0.3v0.2h-0.4v-1.1h0.4v0.3c0,0.5,0.8,0.6,1.2,0.6c0.5,0,1-0.2,1-0.7
		c0-1.3-2.6-0.8-2.6-2.3c0-0.8,0.7-1.1,1.4-1.1c0.5,0,0.9,0.1,1.2,0.4v-0.3h0.3V61.6z"/>
	<path fill="#FFFFFF" d="M563.3,64.5h0.6v-3.8h-0.6v-0.3h1.7v0.3h-0.6v3.8h0.6v0.3h-1.7V64.5z"/>
	<path fill="#FFFFFF" d="M565.4,64.5h0.6v-3.8h-0.6v-0.3h1l3,3.3v-3h-0.6v-0.3h1.5v0.3h-0.6v4.1h-0.2l-3.3-3.6v3.3h0.6v0.3h-1.5
		V64.5z"/>
	<path fill="#FFFFFF" d="M575,61.7h-0.3v0c0-0.6-0.8-0.9-1.4-0.9c-1.2,0-1.8,0.9-1.8,1.9c0,1,0.7,1.9,1.8,1.9c0.7,0,1.1-0.3,1.4-0.6
		v-0.9h-0.8v-0.3h1.3v2H575c-0.1-0.2-0.1-0.3-0.2-0.5c-0.5,0.4-1.1,0.5-1.6,0.5c-1.3,0-2.4-0.9-2.4-2.2c0-1.4,1-2.2,2.3-2.2
		c0.5,0,1.1,0.1,1.6,0.5v-0.4h0.3V61.7z"/>
	<path fill="#FFFFFF" d="M578.4,64.5h0.6v-3.8h-0.6v-0.3h3.4v0.9h-0.3v-0.5h-1.9v1.5h1.6v-0.5h0.3v1.3h-0.3v-0.5h-1.6v1.9h0.6v0.3
		h-1.7V64.5z"/>
	<path fill="#FFFFFF" d="M582.2,64.5h0.6v-3.8h-0.6v-0.3h1.7v0.3h-0.6v3.8h0.6v0.3h-1.7V64.5z"/>
	<path fill="#FFFFFF" d="M588.7,61.7h-0.3v0c0-0.6-0.8-0.9-1.4-0.9c-1.2,0-1.8,0.9-1.8,1.9c0,1,0.7,1.9,1.8,1.9
		c0.7,0,1.1-0.3,1.4-0.6v-0.9h-0.8v-0.3h1.3v2h-0.2c-0.1-0.2-0.1-0.3-0.2-0.5c-0.5,0.4-1.1,0.5-1.6,0.5c-1.3,0-2.4-0.9-2.4-2.2
		c0-1.4,1-2.2,2.3-2.2c0.5,0,1.1,0.1,1.6,0.5v-0.4h0.3V61.7z"/>
	<path fill="#FFFFFF" d="M589.6,60.5h1.7v0.3h-0.6v2.3c0,1,0.5,1.4,1.2,1.4c0.7,0,1.2-0.4,1.2-1.2v-2.6h-0.5v-0.3h1.4v0.3h-0.5v2.5
		c0,0.9-0.5,1.5-1.6,1.5c-1.3,0-1.8-0.6-1.8-1.7v-2.4h-0.6V60.5z"/>
	<path fill="#FFFFFF" d="M594.5,64.5h0.6v-3.8h-0.6v-0.3h1.9c0.8,0,1.5,0.3,1.5,1.2c0,0.6-0.4,1-1,1.1c0.2,0.2,0.5,0.7,0.8,1.1
		c0.2,0.3,0.3,0.6,0.7,0.6h0.1v0.3H598c-0.7,0-0.9-0.8-1.7-1.8c-0.1-0.1-0.2-0.1-0.3-0.1h-0.4v1.6h0.6v0.3h-1.7V64.5z M595.6,62.6
		h0.6c0.6,0,1-0.4,1-1c0-0.5-0.3-0.9-1.1-0.9h-0.5V62.6z"/>
	<path fill="#FFFFFF" d="M598.6,64.5h0.6v-3.8h-0.6v-0.3h3.6v0.9h-0.3v-0.5h-2v1.5h1.7v-0.5h0.3v1.3h-0.3v-0.5h-1.7v1.8h2.1v-0.5
		h0.3v0.9h-3.6V64.5z"/>
	<path fill="#FFFFFF" d="M532.7,68.4c1.3,0,2.3,0.8,2.3,2.2c0,1.3-0.9,2.2-2.3,2.2c-1.5,0-2.3-0.9-2.3-2.2
		C530.4,69.4,531.3,68.4,532.7,68.4z M532.7,72.5c1.1,0,1.7-0.9,1.7-2c0-1-0.5-1.9-1.7-1.9s-1.7,0.9-1.7,1.9
		C531,71.6,531.5,72.5,532.7,72.5z"/>
	<path fill="#FFFFFF" d="M535.5,72.5h0.6v-3.8h-0.6v-0.3h3.4v0.9h-0.3v-0.5h-1.9v1.5h1.6v-0.5h0.3v1.3h-0.3v-0.5h-1.6v1.9h0.6v0.3
		h-1.7V72.5z"/>
	<path fill="#FFFFFF" d="M542,71.1h0.5v0.3c0,0.5,0.7,1,1.4,1V70c-0.9-0.3-2-0.6-2-1.8c0-1.1,1-1.5,2-1.5v-0.5h0.4v0.5
		c0.5,0.1,1,0.2,1.3,0.5v-0.5h0.5v1.6h-0.5v-0.1c0-0.8-0.7-1.1-1.3-1.2v2.2c1,0.3,2.1,0.7,2.1,1.9c0,1.2-1,1.7-2.1,1.7v0.6h-0.4
		v-0.6c-0.5,0-1.1-0.2-1.4-0.5v0.4H542V71.1z M543.9,66.9c-0.6,0-1.2,0.2-1.2,1c0,0.5,0.5,0.9,1.2,1.1V66.9z M544.4,72.5
		c0.7,0,1.3-0.4,1.3-1.1c0-0.7-0.6-1-1.3-1.3V72.5z"/>
	<path fill="#FFFFFF" d="M548.4,69.5L548.4,69.5c-0.8-0.2-1.1-0.7-1.1-1.4c0-0.8,0.6-1.5,1.8-1.5c1.3,0,1.8,0.7,1.8,1.5
		c0,0.6-0.5,1.3-1.1,1.4v0c0.8,0.2,1.3,0.9,1.3,1.7c0,0.9-0.8,1.7-2,1.7c-1.3,0-2-0.7-2-1.7C547.1,70.3,547.6,69.7,548.4,69.5z
		 M549.2,72.5c0.8,0,1.2-0.6,1.2-1.4c0-0.6-0.3-1.3-1.2-1.3s-1.2,0.7-1.2,1.3C548,71.9,548.3,72.5,549.2,72.5z M549.2,69.3
		c0.7,0,1.1-0.5,1.1-1.2c0-0.7-0.4-1.2-1.1-1.2c-0.8,0-1.1,0.5-1.1,1.2C548.1,68.8,548.5,69.3,549.2,69.3z"/>
	<path fill="#FFFFFF" d="M553.9,67.5l-1,0.8l-0.3-0.3l1.6-1.4h0.5v5.8h1v0.4h-2.8v-0.4h1V67.5z"/>
	<path fill="#FFFFFF" d="M557.7,71.3c0,0.6,0.4,1.1,1.1,1.1c1,0,1.4-1,1.4-1.8c0-0.8-0.4-1.5-1.4-1.5c-0.4,0-0.8,0.1-1.1,0.4
		l-0.2-0.1l0.8-2.8h2.6l-0.2,0.6h-2.2l-0.5,1.7c0.4-0.2,0.7-0.2,1.1-0.2c0.9,0,1.9,0.7,1.9,1.9c0,1.2-0.8,2.2-2.3,2.2
		c-1,0-1.8-0.5-1.9-1.5H557.7z"/>
	<path fill="#FFFFFF" d="M564.4,72.5h0.5v-3.8h-0.5v-0.3h1.1l1.9,3.4l1.9-3.4h1.1v0.3h-0.5v3.8h0.5v0.3h-1.7v-0.3h0.6v-3.4h0
		l-1.9,3.4h-0.2l-1.8-3.3h0v3.3h0.5v0.3h-1.4V72.5z"/>
	<path fill="#FFFFFF" d="M570.7,72.5h0.6v-3.8h-0.6v-0.3h1.7v0.3h-0.6v3.8h0.6v0.3h-1.7V72.5z"/>
	<path fill="#FFFFFF" d="M572.8,72.5h0.6v-3.8h-0.6v-0.3h1.7v0.3h-0.6v3.7h1.9v-0.6h0.4v1h-3.4V72.5z"/>
	<path fill="#FFFFFF" d="M576.6,72.5h0.6v-3.8h-0.6v-0.3h1.7v0.3h-0.6v3.7h1.9v-0.6h0.4v1h-3.4V72.5z"/>
	<path fill="#FFFFFF" d="M580.5,72.5h0.6v-3.8h-0.6v-0.3h1.7v0.3h-0.6v3.8h0.6v0.3h-1.7V72.5z"/>
	<path fill="#FFFFFF" d="M585,68.4c1.3,0,2.3,0.8,2.3,2.2c0,1.3-0.9,2.2-2.3,2.2c-1.5,0-2.3-0.9-2.3-2.2
		C582.7,69.4,583.7,68.4,585,68.4z M585,72.5c1.1,0,1.7-0.9,1.7-2c0-1-0.5-1.9-1.7-1.9s-1.7,0.9-1.7,1.9
		C583.3,71.6,583.9,72.5,585,72.5z"/>
	<path fill="#FFFFFF" d="M587.8,72.5h0.6v-3.8h-0.6v-0.3h1l3,3.3v-3h-0.6v-0.3h1.5v0.3h-0.6v4.1H592l-3.3-3.6v3.3h0.6v0.3h-1.5V72.5
		z"/>
	<path fill="#FFFFFF" d="M595.6,72.5h0.6v-3.8h-0.6v-0.3h1.7v0.3h-0.6v3.8h0.6v0.3h-1.7V72.5z"/>
	<path fill="#FFFFFF" d="M600.8,69.6h-0.3v0c0-0.6-0.7-0.8-1.2-0.8c-0.5,0-0.9,0.2-0.9,0.7c0,1.1,2.6,0.7,2.6,2.2
		c0,0.8-0.7,1.2-1.5,1.2c-0.7,0-1-0.2-1.2-0.3v0.2h-0.4v-1.1h0.4v0.3c0,0.5,0.8,0.6,1.2,0.6c0.5,0,1-0.2,1-0.7
		c0-1.3-2.6-0.8-2.6-2.3c0-0.8,0.7-1.1,1.4-1.1c0.5,0,0.9,0.1,1.2,0.4v-0.3h0.3V69.6z"/>
	<path fill="#FFFFFF" d="M542.5,77.5h-0.3v0c0-0.6-0.7-0.8-1.2-0.8c-0.5,0-0.9,0.2-0.9,0.7c0,1.1,2.6,0.7,2.6,2.2
		c0,0.8-0.7,1.2-1.5,1.2c-0.7,0-1-0.2-1.2-0.3v0.2h-0.4v-1.1h0.4v0.3c0,0.5,0.8,0.6,1.2,0.6c0.5,0,1-0.2,1-0.7
		c0-1.3-2.6-0.8-2.6-2.3c0-0.8,0.7-1.1,1.4-1.1c0.5,0,0.9,0.1,1.2,0.4v-0.3h0.3V77.5z"/>
	<path fill="#FFFFFF" d="M543.3,80.5h0.6v-3.8h-0.6v-0.3h1.8c0.8,0,1.6,0.3,1.6,1.3c0,0.9-0.7,1.3-1.6,1.3c-0.2,0-0.4,0-0.7,0v1.5
		h0.6v0.3h-1.7V80.5z M544.4,78.7c0.2,0,0.4,0,0.6,0c0.6,0,1.1-0.3,1.1-1c0-0.6-0.4-1-1.1-1h-0.5V78.7z"/>
	<path fill="#FFFFFF" d="M547.1,80.5h0.6v-3.8h-0.6v-0.3h3.6v0.9h-0.3v-0.5h-2v1.5h1.7v-0.5h0.3v1.3h-0.3v-0.5h-1.7v1.8h2.1v-0.5
		h0.3v0.9h-3.6V80.5z"/>
	<path fill="#FFFFFF" d="M551.3,80.5h0.6v-3.8h-0.6v-0.3h1l3,3.3v-3h-0.6v-0.3h1.5v0.3h-0.6v4.1h-0.2l-3.3-3.6v3.3h0.6v0.3h-1.5
		V80.5z"/>
	<path fill="#FFFFFF" d="M557.6,80.5h0.6v-3.7h-1.3v0.5h-0.4v-0.9h3.9v0.9h-0.4v-0.5h-1.3v3.7h0.6v0.3h-1.7V80.5z"/>
	<path fill="#FFFFFF" d="M565.7,76.4c1.3,0,2.3,0.8,2.3,2.2c0,1.3-0.9,2.2-2.3,2.2c-1.5,0-2.3-0.9-2.3-2.2
		C563.4,77.4,564.4,76.4,565.7,76.4z M565.7,80.5c1.1,0,1.7-0.9,1.7-2c0-1-0.5-1.9-1.7-1.9s-1.7,0.9-1.7,1.9
		C564,79.6,564.6,80.5,565.7,80.5z"/>
	<path fill="#FFFFFF" d="M568.5,80.5h0.6v-3.8h-0.6v-0.3h1l3,3.3v-3H572v-0.3h1.5v0.3h-0.6v4.1h-0.2l-3.3-3.6v3.3h0.6v0.3h-1.5V80.5
		z"/>
	<path fill="#FFFFFF" d="M576.3,80.5h0.6v-3.8h-0.6v-0.3h1.8c0.8,0,1.6,0.3,1.6,1.3c0,0.9-0.7,1.3-1.6,1.3c-0.2,0-0.4,0-0.7,0v1.5
		h0.6v0.3h-1.7V80.5z M577.4,78.7c0.2,0,0.4,0,0.6,0c0.6,0,1.1-0.3,1.1-1c0-0.6-0.4-1-1.1-1h-0.5V78.7z"/>
	<path fill="#FFFFFF" d="M580.1,80.5h0.6v-3.8h-0.6v-0.3h3.6v0.9h-0.3v-0.5h-2v1.5h1.7v-0.5h0.3v1.3H583v-0.5h-1.7v1.8h2.1v-0.5h0.3
		v0.9h-3.6V80.5z"/>
	<path fill="#FFFFFF" d="M585.4,80.5h0.6v-3.7h-1.3v0.5h-0.4v-0.9h3.9v0.9h-0.4v-0.5h-1.3v3.7h0.6v0.3h-1.7V80.5z"/>
	<path fill="#FFFFFF" d="M591.6,77.5h-0.3v0c0-0.6-0.7-0.8-1.2-0.8c-0.5,0-0.9,0.2-0.9,0.7c0,1.1,2.6,0.7,2.6,2.2
		c0,0.8-0.7,1.2-1.5,1.2c-0.7,0-1-0.2-1.2-0.3v0.2h-0.4v-1.1h0.4v0.3c0,0.5,0.8,0.6,1.2,0.6c0.5,0,1-0.2,1-0.7
		c0-1.3-2.6-0.8-2.6-2.3c0-0.8,0.7-1.1,1.4-1.1c0.5,0,0.9,0.1,1.2,0.4v-0.3h0.3V77.5z"/>
</g>
<g id="pet">
	<g>
		<circle fill="#F2D6B7" cx="505.3" cy="57.9" r="5.9"/>
		<polygon fill="#F2D6B7" points="511.4,54.7 507.8,51.8 513.1,49.4 		"/>
		<polygon fill="#F2D6B7" points="505.7,64.3 498.8,84.7 511.5,84.7 		"/>
		<polygon fill="#F2D6B7" points="499.6,54.5 503.2,51.6 497.9,49.2 		"/>
		<path fill="#F2D6B7" d="M511.5,82.5l-0.3-1.6c0,0,8.3-1.6,9.6-10.1c0,0,0.2-3.3,0.9-3.5c0,0,1.8-1.9,0.8,3.6
			C522.5,71,520.5,80.4,511.5,82.5z"/>
	</g>
	<g>
		<circle fill="#F2D6B7" cx="481.6" cy="48.7" r="7.5"/>
		<polygon fill="#F2D6B7" points="477.6,59 486.1,59 492.8,85.2 470.3,85.2 		"/>
		<path fill="#F2D6B7" d="M488,43l1.7,3.3c0,0,1.6-0.3,1.9,2.3c0,0,2.9,1.7,1.7-2.8C493.4,45.9,491.4,37,488,43z"/>
		<path fill="#F2D6B7" d="M475.1,43l-1.7,3.3c0,0-1.6-0.3-1.9,2.3c0,0-2.9,1.7-1.7-2.8C469.7,45.9,471.8,37,475.1,43z"/>
		<path fill="#F2D6B7" d="M470.8,81.9l0.3-1.6c0,0-8.3-1.6-9.6-10.1c0,0-0.2-3.3-0.9-3.5c0,0-1.8-1.9-0.8,3.6
			C459.9,70.3,461.9,79.7,470.8,81.9z"/>
	</g>
</g>
<g>
	<g>
		
			<line fill="none" stroke="#FFFFFF" stroke-width="3" stroke-linecap="round" stroke-linejoin="round" x1="18.3" y1="10" x2="18.3" y2="10"/>
		
			<line fill="none" stroke="#FFFFFF" stroke-width="3" stroke-linecap="round" stroke-linejoin="round" stroke-dasharray="0,4.9976" x1="23.3" y1="10" x2="710.5" y2="10"/>
		
			<line fill="none" stroke="#FFFFFF" stroke-width="3" stroke-linecap="round" stroke-linejoin="round" x1="713" y1="10" x2="713" y2="10"/>
	</g>
</g>
<g>
	<g>
		
			<line fill="none" stroke="#FFFFFF" stroke-width="3" stroke-linecap="round" stroke-linejoin="round" x1="18.3" y1="102.3" x2="18.3" y2="102.3"/>
		
			<line fill="none" stroke="#FFFFFF" stroke-width="3" stroke-linecap="round" stroke-linejoin="round" stroke-dasharray="0,4.9976" x1="23.3" y1="102.3" x2="710.5" y2="102.3"/>
		
			<line fill="none" stroke="#FFFFFF" stroke-width="3" stroke-linecap="round" stroke-linejoin="round" x1="713" y1="102.3" x2="713" y2="102.3"/>
	</g>
</g>
<g>
</g>
<g>
</g>
<g>
</g>
<g>
</g>
<g>
</g>
<g>
</g>
</svg>
