<?xml version="1.0" encoding="utf-8"?>
<!-- Generator: Adobe Illustrator 19.2.1, SVG Export Plug-In . SVG Version: 6.00 Build 0)  -->
<svg version="1.1" id="valentines-info" xmlns="http://www.w3.org/2000/svg" xmlns:xlink="http://www.w3.org/1999/xlink" x="0px"
	 y="0px" viewBox="0 0 792 506.8" enable-background="new 0 0 792 506.8" xml:space="preserve">
<path id="background3" fill="#F2D6B7" d="M768,497.8H21.9c-6.6,0-12-5.4-12-12V28.4c0-6.6,5.4-12,12-12H768c6.6,0,12,5.4,12,12
	v457.3C780,492.4,774.6,497.8,768,497.8z"/>
<g id="title">
	<path fill="#754141" d="M180.2,36L180.2,36l-5.4,17.4h-2l-6.5-21.2h-2.2v-1.4h8.3v1.4h-2.9l5,17.1h0.1l5.6-18.5h1.5l5.6,18.5h0.1
		l4.9-17.1h-2.8v-1.4h6.7v1.4H194l-6.3,21.2h-2.1L180.2,36z"/>
	<path fill="#754141" d="M197.2,52.2h2.1V38.5h-2.1v-1h6.2v1h-2.1v5.9h9.4v-5.9h-2.1v-1h6.2v1h-2.1v13.7h2.1v1h-6.2v-1h2.1v-6.9
		h-9.4v6.9h2.1v1h-6.2V52.2z"/>
	<path fill="#754141" d="M216,52.2h1.5l6.4-14.9h0.8l6.6,14.9h1.6v1h-5.7v-1h1.9l-1.6-3.5h-7.4l-1.5,3.5h1.8v1H216V52.2z
		 M223.8,40.1l-3.1,7.5h6.5L223.8,40.1z"/>
	<path fill="#754141" d="M235.8,52.2h2.1V38.9h-4.7v1.9h-1.4v-3.3h14.3v3.3h-1.4v-1.9H240v13.3h2.1v1h-6.3V52.2z"/>
	<path fill="#754141" d="M272.2,36L272.2,36l-5.4,17.4h-2l-6.5-21.2h-2.2v-1.4h8.3v1.4h-2.9l5,17.1h0.1l5.6-18.5h1.5l5.6,18.5h0.1
		l4.9-17.1h-2.8v-1.4h6.7v1.4H286l-6.3,21.2h-2.1L272.2,36z"/>
	<path fill="#754141" d="M298,37.4c4.6,0,8.4,3,8.4,8c0,4.8-3.4,8-8.4,8c-5.3,0-8.4-3.4-8.4-8C289.7,40.9,293.1,37.4,298,37.4z
		 M298,52.4c4.1,0,6-3.3,6-7.2c0-3.6-2-6.9-6-6.9s-6,3.3-6,6.9C292,49.1,293.9,52.4,298,52.4z"/>
	<path fill="#754141" d="M308.3,52.2h1.9V38.5h-1.9v-1h3.9l6.8,12.3l6.8-12.3h4v1h-1.9v13.7h1.9v1h-6.1v-1h2.1V39.8h0L319,52.1h-0.8
		l-6.6-11.9h0v12.1h2v1h-5.2V52.2z"/>
	<path fill="#754141" d="M331,52.2h2.3V38.5H331v-1h13v3.1h-1.2v-1.7h-7.4v5.5h6.1v-1.8h1.2v4.7h-1.2v-1.9h-6.1v6.4h7.6v-1.9h1.2
		v3.3H331V52.2z"/>
	<path fill="#754141" d="M346.5,52.2h2.1V38.5h-2.1v-1h3.7l10.9,11.9v-11h-2.1v-1h5.4v1h-2.1v14.9h-0.6l-12-13.2v12.1h2.1v1h-5.4
		V52.2z"/>
	<path fill="#754141" d="M375.1,51.8h2.9V32.2h-2.9v-1.4h9.5c7.2,0,12.9,3.9,12.9,11.2c0,7.8-5.9,11.2-13.7,11.2h-8.7V51.8z
		 M381,51.8h2.8c6.6,0,10.3-4.3,10.3-9.8c0-7.2-4.8-9.8-9.5-9.8H381V51.8z"/>
	<path fill="#754141" d="M409.1,37.4c4.6,0,8.4,3,8.4,8c0,4.8-3.4,8-8.4,8c-5.3,0-8.4-3.4-8.4-8C400.7,40.9,404.2,37.4,409.1,37.4z
		 M409.1,52.4c4.1,0,6-3.3,6-7.2c0-3.6-2-6.9-6-6.9s-6,3.3-6,6.9C403,49.1,404.9,52.4,409.1,52.4z"/>
	<path fill="#754141" d="M419.4,52.2h2.1V38.5h-2.1v-1h3.7L434,49.5v-11h-2.1v-1h5.4v1h-2.1v14.9h-0.6l-12-13.2v12.1h2.1v1h-5.4
		V52.2z"/>
	<path fill="#754141" d="M441.1,30.9h3.1l-2.4,8h-1.4L441.1,30.9z"/>
	<path fill="#754141" d="M451.3,52.2h2.1V38.9h-4.7v1.9h-1.4v-3.3h14.3v3.3h-1.4v-1.9h-4.7v13.3h2.1v1h-6.3V52.2z"/>
	<path fill="#754141" d="M487.8,36L487.8,36l-5.4,17.4h-2l-6.5-21.2h-2.2v-1.4h8.3v1.4H477l5,17.1h0.1l5.6-18.5h1.5l5.6,18.5h0.1
		l4.9-17.1h-2.8v-1.4h6.7v1.4h-2.1l-6.3,21.2h-2.1L487.8,36z"/>
	<path fill="#754141" d="M504.4,52.2h1.5l6.4-14.9h0.8l6.6,14.9h1.6v1h-5.7v-1h1.9l-1.6-3.5h-7.4l-1.5,3.5h1.8v1h-4.5V52.2z
		 M512.2,40.1l-3.1,7.5h6.5L512.2,40.1z"/>
	<path fill="#754141" d="M522.6,52.2h2.1V38.5h-2.1v-1h3.7l10.9,11.9v-11h-2.1v-1h5.4v1h-2.1v14.9h-0.6l-12-13.2v12.1h2.1v1h-5.4
		V52.2z"/>
	<path fill="#754141" d="M545.5,52.2h2.1V38.9h-4.7v1.9h-1.4v-3.3h14.3v3.3h-1.4v-1.9h-4.7v13.3h2.1v1h-6.3V52.2z"/>
	<path fill="#754141" d="M560.8,39c1.1,0,1.6,0.9,1.6,2.1s-0.5,2.1-1.6,2.1s-1.6-0.9-1.6-2.1S559.7,39,560.8,39z M560.8,49.5
		c1.1,0,1.6,0.9,1.6,2.1s-0.5,2.1-1.6,2.1s-1.6-0.9-1.6-2.1S559.7,49.5,560.8,49.5z"/>
	<path fill="#A64F4B" d="M147.9,78.5h2V65.8h-4.5v1.8h-1.3v-3.1h13.6v3.1h-1.3v-1.8h-4.5v12.7h2v0.9h-6V78.5z"/>
	<path fill="#A64F4B" d="M158.7,78.8h1.4v-9.1h-1.4V69h4.1v0.6h-1.4v3.9h6.3v-3.9h-1.4V69h4.1v0.6h-1.4v9.1h1.4v0.6h-4.1v-0.6h1.4
		v-4.6h-6.3v4.6h1.4v0.6h-4.1V78.8z"/>
	<path fill="#A64F4B" d="M171.3,78.8h1.5v-9.1h-1.5V69h8.7v2.1h-0.8v-1.2h-4.9v3.7h4.1v-1.2h0.8v3.1h-0.8v-1.3h-4.1v4.3h5.1v-1.3
		h0.8v2.2h-8.8V78.8z"/>
	<path fill="#A64F4B" d="M198.2,68L198.2,68l-3.6,11.6h-1.4l-4.3-14.1h-1.4v-0.9h5.5v0.9h-2l3.3,11.4h0l3.7-12.3h1l3.7,12.3h0
		l3.3-11.4h-1.9v-0.9h4.5v0.9h-1.4l-4.2,14.1h-1.4L198.2,68z"/>
	<path fill="#A64F4B" d="M215.4,68.8c3.1,0,5.6,2,5.6,5.3c0,3.2-2.3,5.3-5.6,5.3c-3.6,0-5.6-2.2-5.6-5.3
		C209.8,71.2,212.2,68.8,215.4,68.8z M215.4,78.9c2.8,0,4-2.2,4-4.8c0-2.4-1.3-4.6-4-4.6s-4,2.2-4,4.6
		C211.4,76.7,212.6,78.9,215.4,78.9z"/>
	<path fill="#A64F4B" d="M222.3,78.8h1.4v-9.1h-1.4V69h4.5c1.8,0,3.6,0.7,3.6,2.9c0,1.4-1.1,2.4-2.4,2.7c0.6,0.5,1.1,1.7,1.8,2.7
		c0.5,0.7,0.8,1.5,1.8,1.5h0.1v0.7h-0.9c-1.7,0-2.3-1.8-4-4.3c-0.2-0.2-0.4-0.3-0.8-0.3H225v3.9h1.4v0.6h-4.1V78.8z M225,74.2h1.5
		c1.5,0,2.4-1,2.4-2.3c0-1.3-0.8-2.2-2.6-2.2H225V74.2z"/>
	<path fill="#A64F4B" d="M240,71.6h-0.8v-0.1c0-1.4-1.6-2-2.9-2c-1.1,0-2.1,0.5-2.1,1.6c0,2.6,6.4,1.7,6.4,5.5c0,2-1.8,3-3.7,3
		c-1.7,0-2.5-0.4-3-0.7v0.6h-0.9v-2.8h0.9v0.7c0,1.2,2,1.6,2.9,1.6c1.2,0,2.5-0.5,2.5-1.8c0-3-6.4-1.9-6.4-5.6
		c0-1.9,1.7-2.7,3.4-2.7c1.1,0,2.2,0.2,2.9,0.9V69h0.8V71.6z"/>
	<path fill="#A64F4B" d="M244.3,78.8h1.4v-8.9h-3.2v1.3h-0.9V69h9.5v2.2h-0.9v-1.3h-3.2v8.9h1.4v0.6h-4.2V78.8z"/>
	<path fill="#A64F4B" d="M258.3,78.5h2V65.4h-2v-0.9h6.2c2.9,0,5.5,1,5.5,4.4c0,3.1-2.4,4.6-5.5,4.6c-0.6,0-1.4,0-2.3-0.2v5.1h2v0.9
		h-5.9V78.5z M262.2,72.4c0.7,0,1.4,0,2,0c2.1,0,3.7-0.9,3.7-3.5c0-2.2-1.3-3.5-4-3.5h-1.8V72.4z"/>
	<path fill="#A64F4B" d="M277.3,68.8c3.1,0,5.6,2,5.6,5.3c0,3.2-2.3,5.3-5.6,5.3c-3.6,0-5.6-2.2-5.6-5.3
		C271.7,71.2,274.1,68.8,277.3,68.8z M277.3,78.9c2.8,0,4-2.2,4-4.8c0-2.4-1.3-4.6-4-4.6s-4,2.2-4,4.6
		C273.3,76.7,274.5,78.9,277.3,78.9z"/>
	<path fill="#A64F4B" d="M291.7,71.6h-0.8v-0.1c0-1.4-1.6-2-2.9-2c-1.1,0-2.1,0.5-2.1,1.6c0,2.6,6.4,1.7,6.4,5.5c0,2-1.8,3-3.7,3
		c-1.7,0-2.5-0.4-3-0.7v0.6h-0.9v-2.8h0.9v0.7c0,1.2,2,1.6,2.9,1.6c1.2,0,2.5-0.5,2.5-1.8c0-3-6.4-1.9-6.4-5.6
		c0-1.9,1.7-2.7,3.4-2.7c1.1,0,2.2,0.2,2.9,0.9V69h0.8V71.6z"/>
	<path fill="#A64F4B" d="M301,71.6h-0.8v-0.1c0-1.4-1.6-2-2.9-2c-1.1,0-2.1,0.5-2.1,1.6c0,2.6,6.4,1.7,6.4,5.5c0,2-1.8,3-3.7,3
		c-1.7,0-2.5-0.4-3-0.7v0.6H294v-2.8h0.9v0.7c0,1.2,2,1.6,2.9,1.6c1.2,0,2.5-0.5,2.5-1.8c0-3-6.4-1.9-6.4-5.6c0-1.9,1.7-2.7,3.4-2.7
		c1.1,0,2.2,0.2,2.9,0.9V69h0.8V71.6z"/>
	<path fill="#A64F4B" d="M302.8,78.8h1.4v-9.1h-1.4V69h4.1v0.6h-1.4v9.1h1.4v0.6h-4.1V78.8z"/>
	<path fill="#A64F4B" d="M308,78.8h1.4v-9.1H308V69h4.8c1.7,0,3.3,0.6,3.4,2.6c0,1.4-1.1,2-2.3,2.3v0c1.6,0.1,2.9,1.1,2.9,2.7
		c0,2.1-1.9,2.8-3.8,2.8h-5V78.8z M310.7,73.5h1.7c1.5,0,2.3-0.8,2.3-2c0-1.2-0.9-2-2.5-2h-1.5V73.5z M310.7,78.8h1.9
		c1.4,0,2.6-0.6,2.6-2.2c0-1.5-0.8-2.4-2.9-2.4h-1.6V78.8z"/>
	<path fill="#A64F4B" d="M318.1,78.8h1.4v-9.1h-1.4V69h4.1v0.6h-1.4v8.9h4.5v-1.6h1v2.5h-8.3V78.8z"/>
	<path fill="#A64F4B" d="M327.3,78.8h1.5v-9.1h-1.5V69h8.7v2.1h-0.8v-1.2h-4.9v3.7h4.1v-1.2h0.8v3.1h-0.8v-1.3h-4.1v4.3h5.1v-1.3
		h0.8v2.2h-8.8V78.8z"/>
	<path fill="#A64F4B" d="M359.1,68.6h-1.2v-0.2c0-2-2.7-3.2-5-3.2c-4.1,0-6.3,3.1-6.3,6.7c0,3.6,2.5,6.7,6.3,6.7
		c2.3,0,3.9-1,4.8-2.1v-3h-2.6v-1h4.6v6.9H359c-0.2-0.5-0.4-1.1-0.8-1.6c-1.7,1.5-3.6,1.7-5.6,1.7c-4.6,0-8.2-2.9-8.2-7.6
		c0-4.8,3.6-7.6,8.1-7.6c1.6,0,3.8,0.3,5.4,1.7v-1.6h1.2V68.6z"/>
	<path fill="#A64F4B" d="M361.9,78.8h1.4v-9.1h-1.4V69h4.1v0.6h-1.4v9.1h1.4v0.6h-4.1V78.8z"/>
	<path fill="#A64F4B" d="M367,78.8h1.4v-9.1H367V69h8.3v2.1h-0.8v-1.2h-4.7v3.7h3.9v-1.2h0.8v3.1h-0.8v-1.3h-3.9v4.6h1.4v0.6H367
		V78.8z"/>
	<path fill="#A64F4B" d="M378.9,78.8h1.4v-8.9h-3.2v1.3h-0.9V69h9.5v2.2h-0.9v-1.3h-3.2v8.9h1.4v0.6h-4.2V78.8z"/>
	<path fill="#A64F4B" d="M394.1,71.6h-0.8v-0.1c0-1.4-1.6-2-2.9-2c-1.1,0-2.1,0.5-2.1,1.6c0,2.6,6.4,1.7,6.4,5.5c0,2-1.8,3-3.7,3
		c-1.7,0-2.5-0.4-3-0.7v0.6H387v-2.8h0.9v0.7c0,1.2,2,1.6,2.9,1.6c1.2,0,2.5-0.5,2.5-1.8c0-3-6.4-1.9-6.4-5.6c0-1.9,1.7-2.7,3.4-2.7
		c1.1,0,2.2,0.2,2.9,0.9V69h0.8V71.6z"/>
	<path fill="#A64F4B" d="M407.9,68.8c3.1,0,5.6,2,5.6,5.3c0,3.2-2.3,5.3-5.6,5.3c-3.6,0-5.6-2.2-5.6-5.3
		C402.3,71.2,404.6,68.8,407.9,68.8z M407.9,78.9c2.8,0,4-2.2,4-4.8c0-2.4-1.3-4.6-4-4.6s-4,2.2-4,4.6
		C403.9,76.7,405.1,78.9,407.9,78.9z"/>
	<path fill="#A64F4B" d="M414.7,78.8h1.4v-9.1h-1.4V69h2.5l7.2,8v-7.3h-1.4V69h3.6v0.6h-1.4v9.9h-0.4l-8-8.8v8h1.4v0.6h-3.6V78.8z"
		/>
	<path fill="#A64F4B" d="M435,65.4h-1.6v-0.9h5.7v0.9h-2l5,11.9l4.9-11.9h-1.8v-0.9h4.5v0.9h-1.3l-5.9,14.1h-1.3L435,65.4z"/>
	<path fill="#A64F4B" d="M450.3,78.8h1l4.3-9.9h0.6l4.4,9.9h1.1v0.6h-3.8v-0.6h1.2l-1-2.4h-4.9l-1,2.4h1.2v0.6h-3V78.8z M455.5,70.7
		l-2.1,5h4.3L455.5,70.7z"/>
	<path fill="#A64F4B" d="M462.4,78.8h1.4v-9.1h-1.4V69h4.1v0.6h-1.4v8.9h4.5v-1.6h1v2.5h-8.3V78.8z"/>
	<path fill="#A64F4B" d="M471.6,78.8h1.5v-9.1h-1.5V69h8.7v2.1h-0.8v-1.2h-4.9v3.7h4.1v-1.2h0.8v3.1h-0.8v-1.3h-4.1v4.3h5.1v-1.3
		h0.8v2.2h-8.8V78.8z"/>
	<path fill="#A64F4B" d="M482,78.8h1.4v-9.1H482V69h2.5l7.2,8v-7.3h-1.4V69h3.6v0.6h-1.4v9.9h-0.4l-8-8.8v8h1.4v0.6H482V78.8z"/>
	<path fill="#A64F4B" d="M497.2,78.8h1.4v-8.9h-3.2v1.3h-0.9V69h9.5v2.2h-0.9v-1.3H500v8.9h1.4v0.6h-4.2V78.8z"/>
	<path fill="#A64F4B" d="M504.9,78.8h1.4v-9.1h-1.4V69h4.1v0.6h-1.4v9.1h1.4v0.6h-4.1V78.8z"/>
	<path fill="#A64F4B" d="M510,78.8h1.4v-9.1H510V69h2.5l7.2,8v-7.3h-1.4V69h3.6v0.6h-1.4v9.9h-0.4l-8-8.8v8h1.4v0.6H510V78.8z"/>
	<path fill="#A64F4B" d="M522.6,78.8h1.5v-9.1h-1.5V69h8.7v2.1h-0.8v-1.2h-4.9v3.7h4.1v-1.2h0.8v3.1h-0.8v-1.3h-4.1v4.3h5.1v-1.3
		h0.8v2.2h-8.8V78.8z"/>
	<path fill="#A64F4B" d="M540.5,71.6h-0.8v-0.1c0-1.4-1.6-2-2.9-2c-1.1,0-2.1,0.5-2.1,1.6c0,2.6,6.4,1.7,6.4,5.5c0,2-1.8,3-3.7,3
		c-1.7,0-2.5-0.4-3-0.7v0.6h-0.9v-2.8h0.9v0.7c0,1.2,2,1.6,2.9,1.6c1.2,0,2.5-0.5,2.5-1.8c0-3-6.4-1.9-6.4-5.6
		c0-1.9,1.7-2.7,3.4-2.7c1.1,0,2.2,0.2,2.9,0.9V69h0.8V71.6z"/>
	<path fill="#A64F4B" d="M548.6,78.5h2V65.4h-2v-0.9h6.3c4.8,0,8.6,2.6,8.6,7.4c0,5.2-3.9,7.4-9.1,7.4h-5.8V78.5z M552.5,78.5h1.9
		c4.4,0,6.9-2.8,6.9-6.5c0-4.8-3.2-6.5-6.4-6.5h-2.4V78.5z"/>
	<path fill="#A64F4B" d="M565.1,78.8h1l4.3-9.9h0.6l4.4,9.9h1.1v0.6h-3.8v-0.6h1.2l-1-2.4H568l-1,2.4h1.2v0.6h-3V78.8z M570.4,70.7
		l-2.1,5h4.3L570.4,70.7z"/>
	<path fill="#A64F4B" d="M578.7,78.8h1.4v-3.1l-3.5-6.1h-1.2V69h4.2v0.6h-1.3l2.9,5.1l2.8-5.1h-1.3V69h3.2v0.6h-1l-3.3,5.9v3.2h1.4
		v0.6h-4.1V78.8z"/>
</g>
<g id="bow">
	<path fill="#754141" stroke="#C2D7C2" stroke-miterlimit="10" d="M706.9,114.7c0,0,68.1-18.7,78.3,29.3c0,0,2.7,6.3-11.8,13.1
		c0,0-6.1,1.7-10.1,21c0,0-2.8,10.3-25.3,3.8c0,0,39.9,5.5,14.2-27c0,0-18.2-22.7-50.4-27c-32.2-4.3-1.5,0.2-1.5,0.2
		S710.2,122.8,706.9,114.7z"/>
	<path fill="#754141" stroke="#C2D7C2" stroke-miterlimit="10" d="M696.1,131.8l1.4-1c1.7-3.5,61.2,17.9,61.5,34.8
		c0,0-5,4.4-28.5-7.2L696.1,131.8z"/>
	<g>
		<path fill="#754141" stroke="#C2D7C2" stroke-miterlimit="10" d="M787.3,268.2l-1.4-75.4c2.8-0.4-5.5-24.1-19-32.4
			c0,0,2.7,18-14.9,21.8l-54.6-51.4l-5.1,2.9c0,0,26.8,63,55.4,85.8c0,0,26.5,22.7,31.4,32.7C779.1,252.2,786,261.7,787.3,268.2z"/>
		<path fill="#754141" stroke="#C2D7C2" stroke-miterlimit="10" d="M780.1,299.1c0,0,18.5-24.4-0.9-46.9L780.1,299.1z"/>
	</g>
	<path fill="#754141" stroke="#C2D7C2" stroke-miterlimit="10" d="M679.5,103.1l0.2-6.7c0,0-15.7-53.5-24.6-60.4c0,0-5.1,4.3,3,29.2
		L679.5,103.1z"/>
	<path fill="#754141" stroke="#C2D7C2" stroke-miterlimit="10" d="M719.4,166.8c0,0,34.4,31.5,40.6,4.3c0,0,3-13-28.3-32.9
		c0,0-13.5-7.4-29.9-10.3c0,0-3.7-9,7.7-12.4c0,0,62.3-20.3,75.7,28.5c0,0,1.9,6.4-10.2,12.2c0,0-6.1,2.5-8.8,13.4
		c0,0-1.9,12.6-10.5,15.1C755.7,184.7,736.8,190.4,719.4,166.8z"/>
	<path fill="#754141" stroke="#C2D7C2" stroke-miterlimit="10" d="M692.3,133.7c0,0,41.5,64.7,65.8,44.5c0,0,4.6-4.6-0.1-16.3
		c0,0-12,17.1-60.5-31.2C697.4,130.8,691.9,131.4,692.3,133.7z"/>
	<path fill="#754141" stroke="#C2D7C2" stroke-miterlimit="10" d="M676.7,112.4c0,0-63.7-63.9-44.1-84.6c0,0,12-10.1,24.1,6.7
		c0,0-8.1,2.2,1.4,30.6l22.8,40.4C681.4,106.3,683.7,117.4,676.7,112.4z"/>
	<path fill="#754141" stroke="#C2D7C2" stroke-miterlimit="10" d="M676.7,112.4c0,0-68.6-62.8-44.9-87.6c0,0,3.2-2.7,6.6-3
		c0,0,27.5,3.9,36.8-15.9c0,0,13.8-6.2,22.9,14.5c0,0,14.1,38.3,0.8,84c0,0-11.3,11.5-19.8,9.3c0,0,4.3-30.1-7.8-51.8
		c0,0-6.3-27.6-28.4-36.5c0,0-14.8-1.8-13.9,16.6C629.5,42,630.7,62.8,676.7,112.4z"/>
	<path fill="#754141" stroke="#C2D7C2" stroke-miterlimit="10" d="M690.1,110c0,0-5.3-4.9-4.7-10.3c0,0,3.8-0.1,6.8,7.9
		C692.1,107.6,693.3,109.6,690.1,110z"/>
	<path fill="#754141" stroke="#C2D7C2" stroke-miterlimit="10" d="M692.1,107.6c0,0-9-18.3-6-25.4c0,0,8.5-0.3,7.5,25.4H692.1z"/>
	<g>
		<path fill="#754141" stroke="#C2D7C2" stroke-miterlimit="10" d="M545.7,8.6l75.4-0.1c0,0,14.4,4.5,23.5,13.7
			c0,0-14.6-3.2-18,14.5l50.2,75.8l-4,0.2c0,0-54.2-37.2-77.6-65.4c0,0-23.2-26-33.3-30.8C561.9,16.5,552.2,9.8,545.7,8.6z"/>
		<path fill="#754141" stroke="#C2D7C2" stroke-miterlimit="10" d="M515,16.5c0,0,24.1-18.9,46.9,0H515z"/>
	</g>
	<path fill="#754141" stroke="#C2D7C2" stroke-miterlimit="10" d="M680.6,113c0,0-47-7.4-100.8,44.5c0,0,23.3-3,24.2,17.9
		c0,0,37.7-41.6,77.1-45.5L680.6,113z"/>
	<path fill="#754141" stroke="#C2D7C2" stroke-miterlimit="10" d="M680.4,118.8c0,0-25.6-0.5-35.4,10.8c0,0,22.6-11.4,37.6-7.3
		C682.6,122.2,681.2,121.3,680.4,118.8z"/>
	<path fill="#754141" stroke="#C2D7C2" stroke-miterlimit="10" d="M692.3,132.5c0,0,7.1,32.8-38.8,90.4c0.1-4.5-7.7-25.3-28.8-14.6
		c0,0,45.4-42.6,55.6-79.2L692.3,132.5z"/>
	<path fill="#754141" stroke="#C2D7C2" stroke-miterlimit="10" d="M687.6,132.1c0,0-2.4,25.5-14.8,33.9c0,0,13.9-21.2,11.6-36.5
		C684.4,129.4,685.2,130.9,687.6,132.1z"/>
	<path fill="#754141" stroke="#C2D7C2" stroke-miterlimit="10" d="M678.2,113.4l1.7-1c0,0,9.4,1.7,19.8-9.3c0,0,10.3,0.3,8,10.3
		c0,0,4.5,7.3-6.6,13.5c0,0-6.1,11.3-20.8,2.4C680.4,129.3,676.8,118.2,678.2,113.4L678.2,113.4z"/>
	<path fill="#754141" stroke="#C2D7C2" stroke-miterlimit="10" d="M693.6,124.8c0,0-6.4,4.8-8,4l1.5,0.7
		C687.2,129.6,691.9,129.1,693.6,124.8z"/>
	<path fill="#754141" stroke="#C2D7C2" stroke-miterlimit="10" d="M703.4,120.2c0,0,20,4,26.1-0.8c0,0-1.8-8.3-26.5-0.7L703.4,120.2
		z"/>
	<path fill="#754141" stroke="#C2D7C2" stroke-miterlimit="10" d="M702.4,123.4c0,0,5.8,4.3,11,2.7c0,0-0.6-3.7-9.1-5.2
		C704.3,120.9,702.1,120.1,702.4,123.4z"/>
</g>
<path id="shadow" fill="#C2D7C2" d="M315.4,298.2c0,0-37.9,67.2,41.6,130.5c0,0,54.9,53.3,171.2,39.5c0,0,74.8-5.7,121.5-59.1
	c0,0,35.6-26.5,27-87.4c0,0,13.7,53.4-27,98.1c0,0-38.6,48.5-121.5,58.6c0,0-108.6,15.6-171.2-40.1
	C357,438.3,278.7,386.2,315.4,298.2z"/>
<g id="section10">
	<g>
		<path fill="#754141" d="M557.6,208.2c0,1.1,0.6,1.9,1.9,1.9c1.7,0,2.4-1.8,2.4-3c0-1.3-0.7-2.5-2.4-2.5c-0.7,0-1.4,0.2-1.9,0.6
			l-0.3-0.2l1.4-4.8h4.4l-0.3,1h-3.7l-0.9,2.9c0.6-0.3,1.2-0.4,1.9-0.4c1.6,0,3.2,1.1,3.2,3.3c0,2-1.3,3.7-3.8,3.7
			c-1.7,0-3.1-0.8-3.2-2.5H557.6z"/>
		<path fill="#754141" d="M568.3,200.2c1.3,0,2.4,1.1,2.4,2.5c0,1.5-1.2,2.5-2.4,2.5c-1.3,0-2.4-1.1-2.4-2.5
			C565.9,201.3,567,200.2,568.3,200.2z M568.3,204.9c0.9,0,1.3-0.9,1.3-2.2s-0.5-2.2-1.3-2.2c-0.9,0-1.3,0.9-1.3,2.2
			S567.4,204.9,568.3,204.9z M574.9,199.9h0.7l-6.9,11.2H568L574.9,199.9z M575.5,205.7c1.3,0,2.4,1.1,2.4,2.5s-1.2,2.5-2.4,2.5
			s-2.4-1.1-2.4-2.5S574.2,205.7,575.5,205.7z M575.5,210.4c0.9,0,1.3-0.9,1.3-2.2s-0.5-2.2-1.3-2.2s-1.3,0.9-1.3,2.2
			S574.6,210.4,575.5,210.4z"/>
	</g>
	<path fill="#754141" d="M538.4,210.6l-45.3,128L591.3,227C591.3,227,563.3,214.7,538.4,210.6z"/>
</g>
<g id="section9">
	<path fill="#754141" d="M493.1,206.5v132.2l9.8-131.9C502.9,206.8,500.9,206.5,493.1,206.5z"/>
	<g>
		<path fill="#754141" d="M491.2,191.4l-1.8,1.3l-0.5-0.5l2.7-2.4h0.8v9.8h1.8v0.6h-4.7v-0.6h1.7V191.4z"/>
		<path fill="#754141" d="M499.9,189.8c1.3,0,2.4,1.1,2.4,2.5c0,1.5-1.2,2.5-2.4,2.5c-1.3,0-2.4-1.1-2.4-2.5
			C497.4,190.9,498.6,189.8,499.9,189.8z M499.9,194.5c0.9,0,1.3-0.9,1.3-2.2s-0.5-2.2-1.3-2.2c-0.9,0-1.3,0.9-1.3,2.2
			S499,194.5,499.9,194.5z M506.5,189.5h0.7l-6.9,11.2h-0.7L506.5,189.5z M507.1,195.3c1.3,0,2.4,1.1,2.4,2.5s-1.2,2.5-2.4,2.5
			s-2.4-1.1-2.4-2.5S505.8,195.3,507.1,195.3z M507.1,200c0.9,0,1.3-0.9,1.3-2.2s-0.5-2.2-1.3-2.2s-1.3,0.9-1.3,2.2
			S506.2,200,507.1,200z"/>
	</g>
</g>
<g id="section8">
	<path fill="#F3E6D6" d="M502.9,206.8l-9.8,131.9l45.3-128C538.4,210.6,523.4,207.3,502.9,206.8z"/>
	<g>
		<path fill="#754141" d="M518,196.3h0.5c1.3-0.1,2-0.9,2-2.2c0-0.8-0.5-1.8-2-1.8c-1,0-1.5,0.7-1.5,1.9h-1.4c0-1.3,1-2.5,3-2.5
			c1.7,0,3.3,0.7,3.3,2.5c0,1.3-0.7,2.2-2,2.4v0c1.4,0.1,2.3,1.4,2.3,2.7c0,2-1.7,2.9-3.6,2.9c-1.7,0-3.2-0.7-3.3-2.6h1.4
			c0.1,1.2,0.7,2,2,2c1.4,0,2-1.1,2-2.4c0-1.6-0.9-2.3-2.3-2.3H518V196.3z"/>
		<path fill="#754141" d="M527.2,191.6c1.3,0,2.4,1.1,2.4,2.5c0,1.5-1.2,2.5-2.4,2.5c-1.3,0-2.4-1.1-2.4-2.5
			C524.7,192.7,525.9,191.6,527.2,191.6z M527.2,196.3c0.9,0,1.3-0.9,1.3-2.2s-0.5-2.2-1.3-2.2c-0.9,0-1.3,0.9-1.3,2.2
			S526.3,196.3,527.2,196.3z M533.8,191.3h0.7l-6.9,11.2h-0.7L533.8,191.3z M534.4,197.1c1.3,0,2.4,1.1,2.4,2.5s-1.2,2.5-2.4,2.5
			s-2.4-1.1-2.4-2.5S533.1,197.1,534.4,197.1z M534.4,201.8c0.9,0,1.3-0.9,1.3-2.2s-0.5-2.2-1.3-2.2s-1.3,0.9-1.3,2.2
			S533.5,201.8,534.4,201.8z"/>
	</g>
</g>
<g id="section7">
	<path fill="#F3E6D6" d="M591.3,227l-98.1,111.7l149.7-77.9C642.8,260.8,626.8,243.3,591.3,227z"/>
	<g>
		<path fill="#754141" d="M585.6,253.7c-0.1-1.2-0.9-2-2.1-2c-2.9,0-3.5,3.4-3.5,5.6v1h0c0.8-1.4,1.9-2.1,3.5-2.1
			c2.7,0,4.5,2.1,4.5,4.5c0,3.3-1.9,5.3-5,5.3c-4.2,0-5.1-4.1-5.1-7.4c0-3.5,1.5-7.6,5.7-7.6c1.7,0,3.6,0.9,3.6,2.8H585.6z
			 M583,265.2c2.1,0,2.9-2.2,2.9-4.3c0-1.9-0.7-3.6-2.8-3.6c-2.2,0-3,2.1-3,3.9C580.1,263,580.7,265.2,583,265.2z"/>
		<path fill="#754141" d="M594.8,250.9c1.8,0,3.5,1.5,3.5,3.6c0,2.1-1.7,3.6-3.5,3.6c-1.8,0-3.5-1.5-3.5-3.6
			C591.3,252.5,592.9,250.9,594.8,250.9z M594.8,257.6c1.3,0,1.9-1.3,1.9-3.1c0-1.7-0.7-3.1-1.9-3.1c-1.3,0-1.9,1.3-1.9,3.1
			C592.9,256.3,593.5,257.6,594.8,257.6z M604.2,250.5h1l-9.8,15.9h-1L604.2,250.5z M605.1,258.8c1.8,0,3.5,1.5,3.5,3.6
			s-1.7,3.6-3.5,3.6s-3.5-1.5-3.5-3.6S603.3,258.8,605.1,258.8z M605.1,265.5c1.3,0,1.9-1.3,1.9-3.1c0-1.7-0.7-3.1-1.9-3.1
			s-1.9,1.3-1.9,3.1C603.2,264.2,603.8,265.5,605.1,265.5z"/>
	</g>
</g>
<g id="section6">
	<path fill="#754141" d="M642.8,260.8l-149.7,77.9l183.6-17C676.7,321.7,673.4,289.9,642.8,260.8z"/>
	<g>
		<path fill="#F3E6D6" d="M623.7,296.3L623.7,296.3c-1.8-0.4-2.7-1.8-2.7-3.3c0-1.9,1.4-3.6,4.5-3.6c3.1,0,4.5,1.7,4.5,3.6
			c0,1.5-1.2,3-2.7,3.3v0c2,0.5,3.1,2.1,3.1,4.1c0,2.2-2,4-5,4c-3.1,0-5-1.8-5-4C620.6,298.4,621.7,296.7,623.7,296.3z M625.5,303.5
			c2,0,2.9-1.4,2.9-3.4c0-1.5-0.7-3.2-2.9-3.2s-2.9,1.7-2.9,3.2C622.7,302.2,623.5,303.5,625.5,303.5z M625.5,295.9
			c1.7,0,2.6-1.1,2.6-2.8c0-1.7-1-2.9-2.6-2.9c-1.9,0-2.6,1.2-2.6,2.9C622.9,294.7,623.9,295.9,625.5,295.9z"/>
		<path fill="#F3E6D6" d="M637.4,289.4c1.8,0,3.5,1.5,3.5,3.6c0,2.1-1.7,3.6-3.5,3.6c-1.8,0-3.5-1.5-3.5-3.6
			C633.9,290.9,635.5,289.4,637.4,289.4z M637.4,296c1.3,0,1.9-1.3,1.9-3.1c0-1.7-0.7-3.1-1.9-3.1c-1.3,0-1.9,1.3-1.9,3.1
			C635.4,294.7,636.1,296,637.4,296z M646.8,288.9h1l-9.8,15.9h-1L646.8,288.9z M647.7,297.2c1.8,0,3.5,1.5,3.5,3.6
			s-1.7,3.6-3.5,3.6s-3.5-1.5-3.5-3.6S645.8,297.2,647.7,297.2z M647.7,303.9c1.3,0,1.9-1.3,1.9-3.1c0-1.7-0.7-3.1-1.9-3.1
			s-1.9,1.3-1.9,3.1C645.8,302.6,646.4,303.9,647.7,303.9z"/>
	</g>
</g>
<g id="section5">
	<path fill="#F3E6D6" d="M676.7,321.7l-183.6,17l156.6,70.4C649.7,409.1,685.1,378.9,676.7,321.7z"/>
	<g>
		<path fill="#754141" d="M625.9,351.1l-2.5,1.9l-0.7-0.7l3.9-3.4h1.1v14h2.5v0.9h-6.8v-0.9h2.4V351.1z"/>
		<path fill="#754141" d="M638,351.1l-2.5,1.9l-0.7-0.7l3.9-3.4h1.1v14h2.5v0.9h-6.8v-0.9h2.4V351.1z"/>
		<path fill="#754141" d="M650.5,348.9c1.8,0,3.5,1.5,3.5,3.6c0,2.1-1.7,3.6-3.5,3.6c-1.8,0-3.5-1.5-3.5-3.6
			C647,350.4,648.6,348.9,650.5,348.9z M650.5,355.6c1.3,0,1.9-1.3,1.9-3.1c0-1.7-0.7-3.1-1.9-3.1c-1.3,0-1.9,1.3-1.9,3.1
			C648.6,354.2,649.2,355.6,650.5,355.6z M659.9,348.5h1l-9.8,15.9h-1L659.9,348.5z M660.8,356.8c1.8,0,3.5,1.5,3.5,3.6
			s-1.7,3.6-3.5,3.6s-3.5-1.5-3.5-3.6S658.9,356.8,660.8,356.8z M660.8,363.4c1.3,0,1.9-1.3,1.9-3.1c0-1.7-0.7-3.1-1.9-3.1
			s-1.9,1.3-1.9,3.1C658.9,362.1,659.5,363.4,660.8,363.4z"/>
	</g>
</g>
<g id="section4">
	<path fill="#754141" d="M649.7,409.1l-156.6-70.4l35.1,129.5C528.2,468.2,603.2,462.8,649.7,409.1z"/>
	<g>
		<path fill="#F3E6D6" d="M557.6,417.9l-3.3,2.5l-0.9-1l5.1-4.5h1.5v18.2h3.3v1.2h-8.8v-1.2h3.2V417.9z"/>
		<path fill="#F3E6D6" d="M572.5,423.6h0.9c2.4-0.1,3.8-1.6,3.8-4.1c0-1.4-1-3.3-3.6-3.3c-1.9,0-2.8,1.3-2.8,3.5h-2.6
			c0-2.4,1.8-4.7,5.5-4.7c3.1,0,6,1.4,6,4.6c0,2.5-1.4,4-3.8,4.5v0.1c2.7,0.3,4.2,2.5,4.2,5.1c0,3.8-3.1,5.3-6.6,5.3
			c-3.1,0-5.9-1.3-6.2-4.8h2.6c0.2,2.3,1.4,3.7,3.8,3.7c2.6,0,3.7-2,3.7-4.4c0-3-1.7-4.3-4.3-4.3h-0.7V423.6z"/>
		<path fill="#F3E6D6" d="M589.6,414.9c2.4,0,4.5,2,4.5,4.7s-2.2,4.7-4.5,4.7s-4.5-2-4.5-4.7S587.2,414.9,589.6,414.9z M589.6,423.6
			c1.6,0,2.5-1.7,2.5-4s-0.9-4-2.5-4s-2.5,1.7-2.5,4S588,423.6,589.6,423.6z M601.9,414.4h1.4l-12.8,20.7h-1.4L601.9,414.4z
			 M603,425.2c2.4,0,4.5,2,4.5,4.7c0,2.7-2.2,4.7-4.5,4.7s-4.5-2-4.5-4.7C598.5,427.1,600.6,425.2,603,425.2z M603,433.8
			c1.6,0,2.5-1.7,2.5-4s-0.9-4-2.5-4s-2.5,1.7-2.5,4S601.4,433.8,603,433.8z"/>
	</g>
</g>
<g id="section3">
	<path fill="#F3E6D6" d="M528.2,468.2l-35.1-129.5l-136.1,90C357,428.7,413.1,482.9,528.2,468.2z"/>
	<g>
		<path fill="#754141" d="M427.3,430.7l-3.3,2.5l-0.9-1l5.1-4.5h1.5v18.2h3.3v1.2h-8.8v-1.2h3.2V430.7z"/>
		<path fill="#754141" d="M447.4,431.4c-0.1-1.6-1.2-2.6-2.8-2.6c-3.8,0-4.5,4.4-4.5,7.3v1.2h0.1c1-1.9,2.4-2.8,4.5-2.8
			c3.5,0,5.8,2.8,5.8,5.8c0,4.3-2.5,6.9-6.5,6.9c-5.5,0-6.6-5.3-6.6-9.6c0-4.6,2-9.9,7.5-9.9c2.2,0,4.7,1.2,4.7,3.6H447.4z
			 M444,446.3c2.7,0,3.7-2.9,3.7-5.6c0-2.4-0.9-4.7-3.6-4.7c-2.9,0-3.9,2.7-3.9,5.1C440.3,443.4,441,446.3,444,446.3z"/>
		<path fill="#754141" d="M459.3,427.7c2.4,0,4.5,2,4.5,4.7s-2.2,4.7-4.5,4.7s-4.5-2-4.5-4.7S456.9,427.7,459.3,427.7z M459.3,436.4
			c1.6,0,2.5-1.7,2.5-4s-0.9-4-2.5-4s-2.5,1.7-2.5,4S457.7,436.4,459.3,436.4z M471.6,427.2h1.4l-12.8,20.7h-1.4L471.6,427.2z
			 M472.7,438c2.4,0,4.5,2,4.5,4.7c0,2.7-2.2,4.7-4.5,4.7s-4.5-2-4.5-4.7C468.2,440,470.3,438,472.7,438z M472.7,446.6
			c1.6,0,2.5-1.7,2.5-4s-0.9-4-2.5-4s-2.5,1.7-2.5,4S471.1,446.6,472.7,446.6z"/>
	</g>
</g>
<g id="section2">
	<path fill="#754141" d="M357,428.7l136.1-90l-177.7-40.5C315.4,298.2,277.8,366.2,357,428.7z"/>
	<g>
		<path fill="#F3E6D6" d="M329.1,347l-3.3,2.5l-0.9-1l5.1-4.5h1.5v18.2h3.3v1.2H326v-1.2h3.2V347z"/>
		<path fill="#F3E6D6" d="M339.2,344.3h12.4l-3.5,9.1h2.8l-0.5,1.2h-2.7l-3.5,8.8h-2.7l3.9-8.8h-2.7l0.5-1.2h2.8l3.3-7.3h-8.3v2.2
			h-1.7V344.3z"/>
		<path fill="#F3E6D6" d="M361.1,344.1c2.4,0,4.5,2,4.5,4.7s-2.2,4.7-4.5,4.7s-4.5-2-4.5-4.7S358.7,344.1,361.1,344.1z M361.1,352.8
			c1.6,0,2.5-1.7,2.5-4s-0.9-4-2.5-4s-2.5,1.7-2.5,4S359.4,352.8,361.1,352.8z M373.3,343.5h1.4l-12.8,20.7h-1.4L373.3,343.5z
			 M374.5,354.3c2.4,0,4.5,2,4.5,4.7c0,2.7-2.2,4.7-4.5,4.7s-4.5-2-4.5-4.7C369.9,356.3,372.1,354.3,374.5,354.3z M374.5,363
			c1.6,0,2.5-1.7,2.5-4s-0.9-4-2.5-4s-2.5,1.7-2.5,4S372.8,363,374.5,363z"/>
	</g>
</g>
<g id="section1">
	<path fill="#F3E6D6" d="M493.1,338.7V206.5c0,0-129.9-5.1-177.7,91.7L493.1,338.7z"/>
	<g>
		<path fill="#754141" d="M390.6,253.7l4.5-4.6c4.1-4.2,5.1-6.8,5.1-8.9c0-2.3-1.2-4.1-3.5-4.1c-2.5,0-3.6,2.2-3.6,4.4h-2.4
			c0.4-3.7,2.6-5.6,6.2-5.6c3.2,0,6,1.8,6,5.3c0,2.6-1.8,4.9-4.8,7.9l-3.9,4h7.5V250h1.7v4.1h-12.8V253.7z"/>
		<path fill="#754141" d="M413,254.4c-4.5,0-6.6-4.5-6.6-9.8s2.1-9.8,6.6-9.8s6.6,4.5,6.6,9.8S417.5,254.4,413,254.4z M413,235.9
			c-3.7,0-3.8,6.5-3.8,8.8s0.1,8.8,3.8,8.8s3.8-6.5,3.8-8.8S416.7,235.9,413,235.9z"/>
		<path fill="#754141" d="M428.4,234.8c2.4,0,4.5,2,4.5,4.7s-2.2,4.7-4.5,4.7s-4.5-2-4.5-4.7S426,234.8,428.4,234.8z M428.4,243.5
			c1.6,0,2.5-1.7,2.5-4s-0.9-4-2.5-4s-2.5,1.7-2.5,4S426.7,243.5,428.4,243.5z M440.7,234.3h1.4L429.2,255h-1.4L440.7,234.3z
			 M441.8,245c2.4,0,4.5,2,4.5,4.7c0,2.7-2.2,4.7-4.5,4.7s-4.5-2-4.5-4.7C437.2,247,439.4,245,441.8,245z M441.8,253.7
			c1.6,0,2.5-1.7,2.5-4s-0.9-4-2.5-4s-2.5,1.7-2.5,4S440.1,253.7,441.8,253.7z"/>
	</g>
</g>
<g id="chocolate-bar">
	<g>
		<circle fill="#FFFFFF" stroke="#A64F4B" stroke-width="0.7954" stroke-miterlimit="10" cx="43.4" cy="125.7" r="13.2"/>
		<path fill="#C2D7C2" d="M43.3,120.4c0,0-3-4.6-7.9-1.6c0,0-3.9,2.7-1.5,7.8c0,0,0.2,1.2,3.5,4.2c0,0,2.5,2.2,4,3.9
			c0,0,0.9,1,1.7,2c0,0,2.3-2.3,2.6-2.8c0,0,1.6-1.5,4.1-3.7c0,0,4.6-3.3,3.4-8.3c0,0-1.6-5.4-7.3-3.6
			C45.9,118.3,44.5,118.7,43.3,120.4z"/>
		<line fill="none" stroke="#A64F4B" stroke-width="0.7954" stroke-miterlimit="10" x1="33.4" y1="117.1" x2="53.2" y2="134.3"/>
	</g>
	<g>
		<path fill="#754141" d="M72.9,122.9l-1.8,1.3l-0.5-0.5l2.7-2.4h0.8v9.8h1.8v0.6h-4.7v-0.6h1.7V122.9z"/>
		<path fill="#754141" d="M81.6,121.3c1.3,0,2.4,1.1,2.4,2.5c0,1.5-1.2,2.5-2.4,2.5c-1.3,0-2.4-1.1-2.4-2.5
			C79.1,122.4,80.3,121.3,81.6,121.3z M81.6,126c0.9,0,1.3-0.9,1.3-2.2s-0.5-2.2-1.3-2.2c-0.9,0-1.3,0.9-1.3,2.2S80.7,126,81.6,126z
			 M88.2,121h0.7L82,132.2h-0.7L88.2,121z M88.8,126.9c1.3,0,2.4,1.1,2.4,2.5c0,1.5-1.2,2.5-2.4,2.5s-2.4-1.1-2.4-2.5
			C86.3,127.9,87.5,126.9,88.8,126.9z M88.8,131.5c0.9,0,1.3-0.9,1.3-2.2s-0.5-2.2-1.3-2.2s-1.3,0.9-1.3,2.2S87.9,131.5,88.8,131.5z
			"/>
		<path fill="#754141" d="M97.5,131.1h1.4V122h-1.4v-0.6h4.8c1.7,0,3.3,0.6,3.4,2.6c0,1.4-1.1,2-2.3,2.3v0c1.6,0.1,2.9,1.1,2.9,2.7
			c0,2.1-1.9,2.8-3.8,2.8h-5V131.1z M100.3,125.9h1.7c1.5,0,2.3-0.8,2.3-2c0-1.2-0.9-2-2.5-2h-1.5V125.9z M100.3,131.1h1.9
			c1.4,0,2.6-0.6,2.6-2.2c0-1.5-0.8-2.4-2.9-2.4h-1.6V131.1z"/>
		<path fill="#754141" d="M107.4,131.3h0.7l3-6.9h0.4l3.1,6.9h0.8v0.4h-2.7v-0.4h0.9l-0.7-1.6h-3.5l-0.7,1.6h0.8v0.4h-2.1V131.3z
			 M111.1,125.7l-1.5,3.5h3L111.1,125.7z"/>
		<path fill="#754141" d="M115.9,131.3h1v-6.4h-1v-0.4h3.1c1.3,0,2.5,0.5,2.5,2c0,1-0.7,1.7-1.7,1.9c0.4,0.4,0.8,1.2,1.3,1.9
			c0.3,0.5,0.6,1,1.2,1h0.1v0.5h-0.6c-1.2,0-1.6-1.3-2.8-3c-0.1-0.1-0.3-0.2-0.6-0.2h-0.6v2.8h1v0.4h-2.9V131.3z M117.8,128.1h1
			c1.1,0,1.6-0.7,1.6-1.6c0-0.9-0.6-1.6-1.8-1.6h-0.9V128.1z"/>
		<path fill="#754141" d="M131.4,124.4c2.2,0,3.9,1.4,3.9,3.7c0,2.2-1.6,3.7-3.9,3.7c-2.5,0-3.9-1.6-3.9-3.7
			C127.5,126.1,129.1,124.4,131.4,124.4z M131.4,131.4c1.9,0,2.8-1.5,2.8-3.3c0-1.7-0.9-3.2-2.8-3.2c-1.9,0-2.8,1.5-2.8,3.2
			C128.6,129.9,129.5,131.4,131.4,131.4z"/>
		<path fill="#754141" d="M136.2,131.3h1v-6.4h-1v-0.4h5.8v1.5h-0.6v-0.8h-3.3v2.6h2.7v-0.8h0.6v2.2h-0.6v-0.9h-2.7v3.2h1v0.4h-2.9
			V131.3z"/>
		<path fill="#754141" d="M157.4,124.3h-0.9v-0.1c0-1.3-1.3-2.3-3.2-2.3c-2.7,0-4.3,2-4.3,4.7c0,2.5,1.8,4.7,4.3,4.7
			c2.1,0,3.2-0.7,4-1.7l0.6,0.6c-1.3,1.3-2.9,1.8-4.6,1.8c-3.3,0-5.8-2.2-5.8-5.3c0-3.3,2.4-5.3,5.6-5.3c1.6,0,2.6,0.3,3.5,1.2v-1.1
			h0.9V124.3z"/>
		<path fill="#754141" d="M158.9,131.3h1v-6.4h-1v-0.4h2.9v0.4h-1v2.7h4.4v-2.7h-1v-0.4h2.9v0.4h-1v6.4h1v0.4h-2.9v-0.4h1v-3.2h-4.4
			v3.2h1v0.4h-2.9V131.3z"/>
		<path fill="#754141" d="M171.9,124.4c2.2,0,3.9,1.4,3.9,3.7c0,2.2-1.6,3.7-3.9,3.7c-2.5,0-3.9-1.6-3.9-3.7
			C168,126.1,169.7,124.4,171.9,124.4z M171.9,131.4c1.9,0,2.8-1.5,2.8-3.3c0-1.7-0.9-3.2-2.8-3.2c-1.9,0-2.8,1.5-2.8,3.2
			C169.1,129.9,170,131.4,171.9,131.4z"/>
		<path fill="#754141" d="M183.9,126.5h-0.6v-0.1c0-0.9-0.9-1.6-2.3-1.6c-1.9,0-3,1.4-3,3.3c0,1.7,1.2,3.3,3,3.3
			c1.5,0,2.2-0.5,2.8-1.2l0.4,0.4c-0.9,0.9-2,1.2-3.2,1.2c-2.3,0-4.1-1.6-4.1-3.7c0-2.3,1.7-3.7,3.9-3.7c1.1,0,1.8,0.2,2.4,0.8v-0.8
			h0.6V126.5z"/>
		<path fill="#754141" d="M189.2,124.4c2.2,0,3.9,1.4,3.9,3.7c0,2.2-1.6,3.7-3.9,3.7c-2.5,0-3.9-1.6-3.9-3.7
			C185.3,126.1,186.9,124.4,189.2,124.4z M189.2,131.4c1.9,0,2.8-1.5,2.8-3.3c0-1.7-0.9-3.2-2.8-3.2c-1.9,0-2.8,1.5-2.8,3.2
			C186.4,129.9,187.2,131.4,189.2,131.4z"/>
		<path fill="#754141" d="M194,131.3h1v-6.4h-1v-0.4h2.9v0.4h-1v6.2h3.2V130h0.7v1.7H194V131.3z"/>
		<path fill="#754141" d="M200.4,131.3h0.7l3-6.9h0.4l3.1,6.9h0.8v0.4h-2.7v-0.4h0.9l-0.7-1.6h-3.5l-0.7,1.6h0.8v0.4h-2.1V131.3z
			 M204,125.7l-1.5,3.5h3L204,125.7z"/>
		<path fill="#754141" d="M209.6,131.3h1v-6.2h-2.2v0.9h-0.6v-1.5h6.7v1.5h-0.6v-0.9h-2.2v6.2h1v0.4h-3V131.3z"/>
		<path fill="#754141" d="M214.9,131.3h1.1v-6.4h-1.1v-0.4h6.1v1.5h-0.6v-0.8h-3.5v2.6h2.9v-0.8h0.6v2.2h-0.6v-0.9h-2.9v3h3.6v-0.9
			h0.6v1.6h-6.2V131.3z"/>
	</g>
</g>
<g id="football-team">
	<g>
		<circle fill="#FFFFFF" stroke="#A64F4B" stroke-width="0.7954" stroke-miterlimit="10" cx="43.3" cy="163.8" r="13.2"/>
		<path fill="#C2D7C2" d="M43.2,158.5c0,0-3-4.6-7.9-1.6c0,0-3.9,2.7-1.5,7.8c0,0,0.2,1.2,3.5,4.2c0,0,2.5,2.2,4,3.9
			c0,0,0.9,1,1.7,2c0,0,2.3-2.3,2.6-2.8c0,0,1.6-1.5,4.1-3.7c0,0,4.6-3.3,3.4-8.3c0,0-1.6-5.4-7.3-3.6
			C45.8,156.4,44.3,156.8,43.2,158.5z"/>
		<line fill="none" stroke="#A64F4B" stroke-width="0.7954" stroke-miterlimit="10" x1="33.3" y1="155.2" x2="53.1" y2="172.4"/>
	</g>
	<g>
		<path fill="#754141" d="M73.4,163.8h0.5c1.3-0.1,2-0.9,2-2.2c0-0.8-0.5-1.8-2-1.8c-1,0-1.5,0.7-1.5,1.9H71c0-1.3,1-2.5,3-2.5
			c1.7,0,3.3,0.7,3.3,2.5c0,1.3-0.7,2.2-2,2.4v0c1.4,0.1,2.3,1.4,2.3,2.7c0,2-1.7,2.9-3.6,2.9c-1.7,0-3.2-0.7-3.3-2.6H72
			c0.1,1.2,0.7,2,2,2c1.4,0,2-1.1,2-2.4c0-1.6-0.9-2.3-2.3-2.3h-0.4V163.8z"/>
		<path fill="#754141" d="M82.6,159.1c1.3,0,2.4,1.1,2.4,2.5c0,1.5-1.2,2.5-2.4,2.5c-1.3,0-2.4-1.1-2.4-2.5
			C80.1,160.2,81.3,159.1,82.6,159.1z M82.6,163.8c0.9,0,1.3-0.9,1.3-2.2s-0.5-2.2-1.3-2.2c-0.9,0-1.3,0.9-1.3,2.2
			S81.7,163.8,82.6,163.8z M89.2,158.8h0.7L83.1,170h-0.7L89.2,158.8z M89.8,164.6c1.3,0,2.4,1.1,2.4,2.5s-1.2,2.5-2.4,2.5
			s-2.4-1.1-2.4-2.5S88.5,164.6,89.8,164.6z M89.8,169.3c0.9,0,1.3-0.9,1.3-2.2s-0.5-2.2-1.3-2.2s-1.3,0.9-1.3,2.2
			S88.9,169.3,89.8,169.3z"/>
		<path fill="#754141" d="M101.1,168.9h1.4v-8.9h-3.2v1.3h-0.9v-2.2h9.5v2.2H107v-1.3h-3.2v8.9h1.4v0.6h-4.2V168.9z"/>
		<path fill="#754141" d="M108.6,169.1h1v-6.4h-1v-0.4h2.9v0.4h-1v6.4h1v0.4h-2.9V169.1z"/>
		<path fill="#754141" d="M119.4,164.3h-0.6v-0.1c0-0.9-0.9-1.6-2.3-1.6c-1.9,0-3,1.4-3,3.3c0,1.7,1.2,3.3,3,3.3
			c1.5,0,2.2-0.5,2.8-1.2l0.4,0.4c-0.9,0.9-2,1.2-3.2,1.2c-2.3,0-4.1-1.6-4.1-3.7c0-2.3,1.7-3.7,3.9-3.7c1.1,0,1.8,0.2,2.4,0.8v-0.8
			h0.6V164.3z"/>
		<path fill="#754141" d="M120.5,169.1h1v-6.4h-1v-0.4h2.9v0.4h-1v3.6l3.6-3.6h-0.8v-0.4h2.5v0.4h-0.9l-2.6,2.6l2.9,3.8h0.7v0.4H125
			v-0.4h0.9l-2.4-3.1l-1,1v2.1h1v0.4h-2.9V169.1z"/>
		<path fill="#754141" d="M128.2,169.1h1.1v-6.4h-1.1v-0.4h6.1v1.5h-0.6v-0.8h-3.5v2.6h2.9v-0.8h0.6v2.2h-0.6v-0.9h-2.9v3h3.6V168
			h0.6v1.6h-6.2V169.1z"/>
		<path fill="#754141" d="M137.1,169.1h1v-6.2h-2.2v0.9h-0.6v-1.5h6.7v1.5h-0.6v-0.9h-2.2v6.2h1v0.4h-3V169.1z"/>
		<path fill="#754141" d="M147.8,164.1h-0.6v-0.1c0-1-1.1-1.4-2-1.4c-0.8,0-1.5,0.3-1.5,1.1c0,1.8,4.4,1.2,4.4,3.8
			c0,1.4-1.2,2.1-2.6,2.1c-1.2,0-1.8-0.3-2.1-0.5v0.4h-0.6v-1.9h0.6v0.5c0,0.8,1.4,1.1,2,1.1c0.9,0,1.7-0.3,1.7-1.2
			c0-2.1-4.4-1.3-4.4-3.9c0-1.3,1.2-1.9,2.4-1.9c0.8,0,1.5,0.2,2,0.6v-0.5h0.6V164.1z"/>
		<path fill="#754141" d="M155.1,169.1h1v-6.2h-2.2v0.9h-0.6v-1.5h6.7v1.5h-0.6v-0.9H157v6.2h1v0.4h-3V169.1z"/>
		<path fill="#754141" d="M164.6,162.2c2.2,0,3.9,1.4,3.9,3.7c0,2.2-1.6,3.7-3.9,3.7c-2.5,0-3.9-1.6-3.9-3.7
			C160.7,163.8,162.3,162.2,164.6,162.2z M164.6,169.2c1.9,0,2.8-1.5,2.8-3.3c0-1.7-0.9-3.2-2.8-3.2c-1.9,0-2.8,1.5-2.8,3.2
			C161.8,167.7,162.7,169.2,164.6,169.2z"/>
		<path fill="#754141" d="M181,161.6L181,161.6l-2.5,8.1h-0.9l-3-9.9h-1v-0.6h3.9v0.6H176l2.3,8h0l2.6-8.6h0.7l2.6,8.6h0l2.3-8h-1.3
			v-0.6h3.1v0.6h-1l-3,9.9h-1L181,161.6z"/>
		<path fill="#754141" d="M188.8,169.1h0.7l3-6.9h0.4l3.1,6.9h0.8v0.4h-2.7v-0.4h0.9l-0.7-1.6h-3.5l-0.7,1.6h0.8v0.4h-2.1V169.1z
			 M192.4,163.5L191,167h3L192.4,163.5z"/>
		<path fill="#754141" d="M198,169.1h1v-6.2h-2.2v0.9h-0.6v-1.5h6.7v1.5h-0.6v-0.9H200v6.2h1v0.4h-3V169.1z"/>
		<path fill="#754141" d="M210.6,164.3H210v-0.1c0-0.9-0.9-1.6-2.3-1.6c-1.9,0-3,1.4-3,3.3c0,1.7,1.2,3.3,3,3.3
			c1.5,0,2.2-0.5,2.8-1.2l0.4,0.4c-0.9,0.9-2,1.2-3.2,1.2c-2.3,0-4.1-1.6-4.1-3.7c0-2.3,1.7-3.7,3.9-3.7c1.1,0,1.8,0.2,2.4,0.8v-0.8
			h0.6V164.3z"/>
		<path fill="#754141" d="M211.7,169.1h1v-6.4h-1v-0.4h2.9v0.4h-1v2.7h4.4v-2.7h-1v-0.4h2.9v0.4h-1v6.4h1v0.4h-2.9v-0.4h1v-3.2h-4.4
			v3.2h1v0.4h-2.9V169.1z"/>
		<path fill="#754141" d="M225.1,168.9h1.4v-9.1h-1.4v-0.6h4.1v0.6h-1.4v3.9h6.3v-3.9h-1.4v-0.6h4.1v0.6h-1.4v9.1h1.4v0.6h-4.1v-0.6
			h1.4v-4.6h-6.3v4.6h1.4v0.6h-4.1V168.9z"/>
		<path fill="#754141" d="M237.7,169.1h1v-6.4h-1v-0.4h2.9v0.4h-1v6.4h1v0.4h-2.9V169.1z"/>
		<path fill="#754141" d="M246.5,164.1h-0.6v-0.1c0-1-1.1-1.4-2-1.4c-0.8,0-1.5,0.3-1.5,1.1c0,1.8,4.4,1.2,4.4,3.8
			c0,1.4-1.2,2.1-2.6,2.1c-1.2,0-1.8-0.3-2.1-0.5v0.4h-0.6v-1.9h0.6v0.5c0,0.8,1.4,1.1,2,1.1c0.9,0,1.7-0.3,1.7-1.2
			c0-2.1-4.4-1.3-4.4-3.9c0-1.3,1.2-1.9,2.4-1.9c0.8,0,1.5,0.2,2,0.6v-0.5h0.6V164.1z"/>
		<path fill="#754141" d="M252.2,168.9h1.4v-9.1h-1.4v-0.6h8.3v2.1h-0.8v-1.2h-4.7v3.7h3.9v-1.2h0.8v3.1h-0.8v-1.3h-3.9v4.6h1.4v0.6
			h-4.1V168.9z"/>
		<path fill="#754141" d="M265.5,162.2c2.2,0,3.9,1.4,3.9,3.7c0,2.2-1.6,3.7-3.9,3.7c-2.5,0-3.9-1.6-3.9-3.7
			C261.6,163.8,263.2,162.2,265.5,162.2z M265.5,169.2c1.9,0,2.8-1.5,2.8-3.3c0-1.7-0.9-3.2-2.8-3.2c-1.9,0-2.8,1.5-2.8,3.2
			C262.7,167.7,263.5,169.2,265.5,169.2z"/>
		<path fill="#754141" d="M274.4,162.2c2.2,0,3.9,1.4,3.9,3.7c0,2.2-1.6,3.7-3.9,3.7c-2.5,0-3.9-1.6-3.9-3.7
			C270.5,163.8,272.1,162.2,274.4,162.2z M274.4,169.2c1.9,0,2.8-1.5,2.8-3.3c0-1.7-0.9-3.2-2.8-3.2c-1.9,0-2.8,1.5-2.8,3.2
			C271.6,167.7,272.5,169.2,274.4,169.2z"/>
		<path fill="#754141" d="M280.9,169.1h1v-6.2h-2.2v0.9h-0.6v-1.5h6.7v1.5h-0.6v-0.9h-2.2v6.2h1v0.4h-3V169.1z"/>
		<path fill="#754141" d="M286.3,169.1h1v-6.4h-1v-0.4h3.4c1.2,0,2.3,0.4,2.4,1.8c0,1-0.8,1.4-1.6,1.6v0c1.1,0.1,2,0.7,2,1.9
			c0,1.4-1.3,2-2.7,1.9h-3.5V169.1z M288.3,165.5h1.2c1.1,0,1.6-0.5,1.6-1.4c0-0.9-0.6-1.4-1.8-1.4h-1.1V165.5z M288.3,169.1h1.3
			c1,0,1.8-0.4,1.8-1.5c0-1-0.6-1.7-2-1.7h-1.1V169.1z"/>
		<path fill="#754141" d="M293.3,169.1h0.7l3-6.9h0.4l3.1,6.9h0.8v0.4h-2.7v-0.4h0.9l-0.7-1.6h-3.5l-0.7,1.6h0.8v0.4h-2.1V169.1z
			 M297,163.5l-1.5,3.5h3L297,163.5z"/>
		<path fill="#754141" d="M301.8,169.1h1v-6.4h-1v-0.4h2.9v0.4h-1v6.2h3.2v-1.1h0.7v1.7h-5.8V169.1z"/>
		<path fill="#754141" d="M308.3,169.1h1v-6.4h-1v-0.4h2.9v0.4h-1v6.2h3.2v-1.1h0.7v1.7h-5.8V169.1z"/>
		<path fill="#754141" d="M321.8,168.9h1.4v-8.9H320v1.3h-0.9v-2.2h9.5v2.2h-0.9v-1.3h-3.2v8.9h1.4v0.6h-4.2V168.9z"/>
		<path fill="#754141" d="M329.2,169.1h1.1v-6.4h-1.1v-0.4h6.1v1.5h-0.6v-0.8h-3.5v2.6h2.9v-0.8h0.6v2.2h-0.6v-0.9h-2.9v3h3.6V168
			h0.6v1.6h-6.2V169.1z"/>
		<path fill="#754141" d="M336.3,169.1h0.7l3-6.9h0.4l3.1,6.9h0.8v0.4h-2.7v-0.4h0.9l-0.7-1.6h-3.5l-0.7,1.6h0.8v0.4h-2.1V169.1z
			 M340,163.5l-1.5,3.5h3L340,163.5z"/>
		<path fill="#754141" d="M344.8,169.1h0.9v-6.4h-0.9v-0.4h1.8l3.2,5.7l3.2-5.7h1.9v0.4h-0.9v6.4h0.9v0.4H352v-0.4h1v-5.8h0
			l-3.2,5.7h-0.4l-3.1-5.6h0v5.6h0.9v0.4h-2.4V169.1z"/>
	</g>
</g>
<g id="flim">
	<g>
		<circle fill="#FFFFFF" stroke="#A64F4B" stroke-width="0.7954" stroke-miterlimit="10" cx="43.2" cy="201.9" r="13.2"/>
		<path fill="#C2D7C2" d="M43,196.6c0,0-3-4.6-7.9-1.6c0,0-3.9,2.7-1.5,7.8c0,0,0.2,1.2,3.5,4.2c0,0,2.5,2.2,4,3.9c0,0,0.9,1,1.7,2
			c0,0,2.3-2.3,2.6-2.8c0,0,1.6-1.5,4.1-3.7c0,0,4.6-3.3,3.4-8.3c0,0-1.6-5.4-7.3-3.6C45.7,194.5,44.2,194.9,43,196.6z"/>
		<line fill="none" stroke="#A64F4B" stroke-width="0.7954" stroke-miterlimit="10" x1="33.1" y1="193.3" x2="52.9" y2="210.5"/>
	</g>
	<g>
		<path fill="#754141" d="M69.4,204.9c0,1.1,0.6,1.9,1.9,1.9c1.7,0,2.4-1.8,2.4-3c0-1.3-0.7-2.5-2.4-2.5c-0.7,0-1.4,0.2-1.9,0.6
			l-0.3-0.2l1.4-4.8h4.4l-0.3,1h-3.7l-0.9,2.9c0.6-0.3,1.2-0.4,1.9-0.4c1.6,0,3.2,1.1,3.2,3.3c0,2-1.3,3.7-3.8,3.7
			c-1.7,0-3.1-0.8-3.2-2.5H69.4z"/>
		<path fill="#754141" d="M80.1,196.9c1.3,0,2.4,1.1,2.4,2.5c0,1.5-1.2,2.5-2.4,2.5c-1.3,0-2.4-1.1-2.4-2.5
			C77.7,198,78.8,196.9,80.1,196.9z M80.1,201.6c0.9,0,1.3-0.9,1.3-2.2s-0.5-2.2-1.3-2.2c-0.9,0-1.3,0.9-1.3,2.2
			S79.2,201.6,80.1,201.6z M86.7,196.6h0.7l-6.9,11.2h-0.7L86.7,196.6z M87.3,202.4c1.3,0,2.4,1.1,2.4,2.5s-1.2,2.5-2.4,2.5
			s-2.4-1.1-2.4-2.5S86.1,202.4,87.3,202.4z M87.3,207.1c0.9,0,1.3-0.9,1.3-2.2s-0.5-2.2-1.3-2.2s-1.3,0.9-1.3,2.2
			S86.5,207.1,87.3,207.1z"/>
		<path fill="#754141" d="M96.1,206.7h1.4v-9.1h-1.4v-0.6h4.4c3.3,0,6,1.8,6,5.2c0,3.6-2.7,5.2-6.4,5.2h-4.1V206.7z M98.9,206.7h1.3
			c3.1,0,4.8-2,4.8-4.6c0-3.4-2.2-4.6-4.4-4.6h-1.7V206.7z"/>
		<path fill="#754141" d="M108.9,197.5h-1.1v-0.6h4v0.6h-1.4l3.5,8.3l3.4-8.3H116v-0.6h3.1v0.6h-0.9l-4.2,9.9h-0.9L108.9,197.5z"/>
		<path fill="#754141" d="M119.9,206.7h1.4v-9.1h-1.4v-0.6h4.4c3.3,0,6,1.8,6,5.2c0,3.6-2.7,5.2-6.4,5.2h-4.1V206.7z M122.6,206.7
			h1.3c3.1,0,4.8-2,4.8-4.6c0-3.4-2.2-4.6-4.4-4.6h-1.7V206.7z"/>
		<path fill="#754141" d="M140,200c2.2,0,3.9,1.4,3.9,3.7c0,2.2-1.6,3.7-3.9,3.7c-2.5,0-3.9-1.6-3.9-3.7
			C136.1,201.6,137.7,200,140,200z M140,207c1.9,0,2.8-1.5,2.8-3.3c0-1.7-0.9-3.2-2.8-3.2c-1.9,0-2.8,1.5-2.8,3.2
			C137.2,205.4,138.1,207,140,207z"/>
		<path fill="#754141" d="M144.8,206.9h1v-6.4h-1V200h5.8v1.5H150v-0.8h-3.3v2.6h2.7v-0.8h0.6v2.2h-0.6v-0.9h-2.7v3.2h1v0.4h-2.9
			V206.9z"/>
		<path fill="#754141" d="M155.7,206.7h1.4v-9.1h-1.4v-0.6h4.1v0.6h-1.4v3.9h6.3v-3.9h-1.4v-0.6h4.1v0.6h-1.4v9.1h1.4v0.6h-4.1v-0.6
			h1.4v-4.6h-6.3v4.6h1.4v0.6h-4.1V206.7z"/>
		<path fill="#754141" d="M168.3,206.9h1v-6.4h-1V200h2.9v0.4h-1v6.4h1v0.4h-2.9V206.9z"/>
		<path fill="#754141" d="M177.2,201.9h-0.6v-0.1c0-1-1.1-1.4-2-1.4c-0.8,0-1.5,0.3-1.5,1.1c0,1.8,4.4,1.2,4.4,3.8
			c0,1.4-1.2,2.1-2.6,2.1c-1.2,0-1.8-0.3-2.1-0.5v0.4h-0.6v-1.9h0.6v0.5c0,0.8,1.4,1.1,2,1.1c0.9,0,1.7-0.3,1.7-1.2
			c0-2.1-4.4-1.3-4.4-3.9c0-1.3,1.2-1.9,2.4-1.9c0.8,0,1.5,0.2,2,0.6V200h0.6V201.9z"/>
		<path fill="#754141" d="M182.8,206.7h1.4v-9.1h-1.4v-0.6h8.3v2.1h-0.8v-1.2h-4.7v3.7h3.9v-1.2h0.8v3.1h-0.8v-1.3h-3.9v4.6h1.4v0.6
			h-4.1V206.7z"/>
		<path fill="#754141" d="M191.9,206.9h0.7l3-6.9h0.4l3.1,6.9h0.8v0.4h-2.7v-0.4h0.9l-0.7-1.6h-3.5l-0.7,1.6h0.8v0.4h-2.1V206.9z
			 M195.5,201.2l-1.5,3.5h3L195.5,201.2z"/>
		<path fill="#754141" d="M199.8,200.5H199V200h2.8v0.4h-1l2.5,5.8l2.4-5.8h-0.9V200h2.2v0.4h-0.6l-2.9,6.9h-0.6L199.8,200.5z"/>
		<path fill="#754141" d="M211.6,200c2.2,0,3.9,1.4,3.9,3.7c0,2.2-1.6,3.7-3.9,3.7c-2.5,0-3.9-1.6-3.9-3.7
			C207.7,201.6,209.3,200,211.6,200z M211.6,207c1.9,0,2.8-1.5,2.8-3.3c0-1.7-0.9-3.2-2.8-3.2c-1.9,0-2.8,1.5-2.8,3.2
			C208.8,205.4,209.7,207,211.6,207z"/>
		<path fill="#754141" d="M216.4,200h2.9v0.4h-1v4c0,1.8,0.9,2.4,2.1,2.4c1.2,0,2.1-0.7,2.1-2.1v-4.3h-0.9V200h2.4v0.4h-0.9v4.3
			c0,1.6-0.9,2.6-2.8,2.6c-2.2,0-3.1-1-3.1-2.8v-4.1h-1V200z"/>
		<path fill="#754141" d="M224.7,206.9h1v-6.4h-1V200h3.1c1.3,0,2.5,0.5,2.5,2c0,1-0.7,1.7-1.7,1.9c0.4,0.4,0.8,1.2,1.3,1.9
			c0.3,0.5,0.6,1,1.2,1h0.1v0.5h-0.6c-1.2,0-1.6-1.3-2.8-3c-0.1-0.1-0.3-0.2-0.6-0.2h-0.6v2.8h1v0.4h-2.9V206.9z M226.7,203.7h1
			c1.1,0,1.6-0.7,1.6-1.6c0-0.9-0.6-1.6-1.8-1.6h-0.9V203.7z"/>
		<path fill="#754141" d="M231.9,206.9h1v-6.4h-1V200h2.9v0.4h-1v6.4h1v0.4h-2.9V206.9z"/>
		<path fill="#754141" d="M237.2,206.9h1v-6.2H236v0.9h-0.6V200h6.7v1.5h-0.6v-0.9h-2.2v6.2h1v0.4h-3V206.9z"/>
		<path fill="#754141" d="M242.5,206.9h1.1v-6.4h-1.1V200h6.1v1.5H248v-0.8h-3.5v2.6h2.9v-0.8h0.6v2.2h-0.6v-0.9h-2.9v3h3.6v-0.9
			h0.6v1.6h-6.2V206.9z"/>
		<path fill="#754141" d="M253.9,206.7h1l4.3-9.9h0.6l4.4,9.9h1.1v0.6h-3.8v-0.6h1.2l-1-2.4h-4.9l-1,2.4h1.2v0.6h-3V206.7z
			 M259.1,198.6l-2.1,5h4.3L259.1,198.6z"/>
		<path fill="#754141" d="M273.1,202.1h-0.6V202c0-0.9-0.9-1.6-2.3-1.6c-1.9,0-3,1.4-3,3.3c0,1.7,1.2,3.3,3,3.3
			c1.5,0,2.2-0.5,2.8-1.2l0.4,0.4c-0.9,0.9-2,1.2-3.2,1.2c-2.3,0-4.1-1.6-4.1-3.7c0-2.3,1.7-3.7,3.9-3.7c1.1,0,1.8,0.2,2.4,0.8V200
			h0.6V202.1z"/>
		<path fill="#754141" d="M275.9,206.9h1v-6.2h-2.2v0.9h-0.6V200h6.7v1.5h-0.6v-0.9h-2.2v6.2h1v0.4h-3V206.9z"/>
		<path fill="#754141" d="M281.3,206.9h1v-6.4h-1V200h2.9v0.4h-1v6.4h1v0.4h-2.9V206.9z"/>
		<path fill="#754141" d="M289,200c2.2,0,3.9,1.4,3.9,3.7c0,2.2-1.6,3.7-3.9,3.7c-2.5,0-3.9-1.6-3.9-3.7
			C285.1,201.6,286.8,200,289,200z M289,207c1.9,0,2.8-1.5,2.8-3.3c0-1.7-0.9-3.2-2.8-3.2c-1.9,0-2.8,1.5-2.8,3.2
			C286.2,205.4,287.1,207,289,207z"/>
		<path fill="#754141" d="M293.8,206.9h1v-6.4h-1V200h1.7l5.1,5.6v-5.1h-1V200h2.5v0.4h-1v6.9H301l-5.6-6.2v5.6h1v0.4h-2.5V206.9z"
			/>
		<path fill="#754141" d="M307.2,206.7h1.4v-9.1h-1.4v-0.6h8.3v2.1h-0.8v-1.2h-4.7v3.7h3.9v-1.2h0.8v3.1h-0.8v-1.3h-3.9v4.6h1.4v0.6
			h-4.1V206.7z"/>
		<path fill="#754141" d="M316.3,206.9h1v-6.4h-1V200h2.9v0.4h-1v6.4h1v0.4h-2.9V206.9z"/>
		<path fill="#754141" d="M319.9,206.9h1v-6.4h-1V200h2.9v0.4h-1v6.2h3.2v-1.1h0.7v1.7h-5.8V206.9z"/>
		<path fill="#754141" d="M326.5,206.9h0.9v-6.4h-0.9V200h1.8l3.2,5.7l3.2-5.7h1.9v0.4h-0.9v6.4h0.9v0.4h-2.8v-0.4h1v-5.8h0
			l-3.2,5.7H331l-3.1-5.6h0v5.6h0.9v0.4h-2.4V206.9z"/>
	</g>
</g>
<g id="buffet-voucher">
	<g>
		<circle fill="#FFFFFF" stroke="#A64F4B" stroke-width="0.7954" stroke-miterlimit="10" cx="43" cy="240" r="13.2"/>
		<path fill="#C2D7C2" d="M42.9,234.7c0,0-3-4.6-7.9-1.6c0,0-3.9,2.7-1.5,7.8c0,0,0.2,1.2,3.5,4.2c0,0,2.5,2.2,4,3.9
			c0,0,0.9,1,1.7,2c0,0,2.3-2.3,2.6-2.8c0,0,1.6-1.5,4.1-3.7c0,0,4.6-3.3,3.4-8.3c0,0-1.6-5.4-7.3-3.6
			C45.5,232.6,44.1,233,42.9,234.7z"/>
		<line fill="none" stroke="#A64F4B" stroke-width="0.7954" stroke-miterlimit="10" x1="33" y1="231.4" x2="52.8" y2="248.6"/>
	</g>
	<g>
		<path fill="#754141" d="M73.4,239.5c0-0.8-0.6-1.4-1.5-1.4c-2,0-2.4,2.4-2.4,3.9v0.7h0c0.6-1,1.3-1.5,2.4-1.5
			c1.9,0,3.1,1.5,3.1,3.1c0,2.3-1.3,3.7-3.5,3.7c-3,0-3.6-2.9-3.6-5.2c0-2.5,1.1-5.4,4-5.4c1.2,0,2.6,0.6,2.6,2H73.4z M71.6,247.5
			c1.4,0,2-1.6,2-3c0-1.3-0.5-2.5-1.9-2.5c-1.5,0-2.1,1.5-2.1,2.7C69.5,245.9,69.9,247.5,71.6,247.5z"/>
		<path fill="#754141" d="M79.8,237.5c1.3,0,2.4,1.1,2.4,2.5c0,1.5-1.2,2.5-2.4,2.5c-1.3,0-2.4-1.1-2.4-2.5
			C77.4,238.6,78.5,237.5,79.8,237.5z M79.8,242.2c0.9,0,1.3-0.9,1.3-2.2s-0.5-2.2-1.3-2.2c-0.9,0-1.3,0.9-1.3,2.2
			S78.9,242.2,79.8,242.2z M86.4,237.2h0.7l-6.9,11.2h-0.7L86.4,237.2z M87,243c1.3,0,2.4,1.1,2.4,2.5S88.3,248,87,248
			s-2.4-1.1-2.4-2.5S85.7,243,87,243z M87,247.7c0.9,0,1.3-0.9,1.3-2.2s-0.5-2.2-1.3-2.2s-1.3,0.9-1.3,2.2S86.1,247.7,87,247.7z"/>
		<path fill="#754141" d="M95.6,247.3h1l4.3-9.9h0.6l4.4,9.9h1.1v0.6h-3.8v-0.6h1.2l-1-2.4h-4.9l-1,2.4h1.2v0.6h-3V247.3z
			 M100.8,239.2l-2.1,5h4.3L100.8,239.2z"/>
		<path fill="#754141" d="M107.5,247.5h1v-6.4h-1v-0.4h2.9v0.4h-1v6.2h3.2v-1.1h0.7v1.7h-5.8V247.5z"/>
		<path fill="#754141" d="M114.1,247.5h1v-6.4h-1v-0.4h2.9v0.4h-1v6.2h3.2v-1.1h0.7v1.7h-5.8V247.5z"/>
		<path fill="#754141" d="M128.2,247.3h1.4v-3.1l-3.5-6.1h-1.2v-0.6h4.2v0.6h-1.3l2.9,5.1l2.8-5.1H132v-0.6h3.2v0.6h-1l-3.3,5.9v3.2
			h1.4v0.6h-4.1V247.3z"/>
		<path fill="#754141" d="M140,240.5c2.2,0,3.9,1.4,3.9,3.7c0,2.2-1.6,3.7-3.9,3.7c-2.5,0-3.9-1.6-3.9-3.7
			C136.1,242.2,137.7,240.5,140,240.5z M140,247.6c1.9,0,2.8-1.5,2.8-3.3c0-1.7-0.9-3.2-2.8-3.2c-1.9,0-2.8,1.5-2.8,3.2
			C137.2,246,138.1,247.6,140,247.6z"/>
		<path fill="#754141" d="M144.8,240.6h2.9v0.4h-1v4c0,1.8,0.9,2.4,2.1,2.4c1.2,0,2.1-0.7,2.1-2.1v-4.3H150v-0.4h2.4v0.4h-0.9v4.3
			c0,1.6-0.9,2.6-2.8,2.6c-2.2,0-3.1-1-3.1-2.8v-4.1h-1V240.6z"/>
		<path fill="#754141" d="M167.8,240.4h-0.9v-0.1c0-1.3-1.3-2.3-3.2-2.3c-2.7,0-4.3,2-4.3,4.7c0,2.5,1.8,4.7,4.3,4.7
			c2.1,0,3.2-0.7,4-1.7l0.6,0.6c-1.3,1.3-2.9,1.8-4.6,1.8c-3.3,0-5.8-2.2-5.8-5.3c0-3.3,2.4-5.3,5.6-5.3c1.6,0,2.6,0.3,3.5,1.2v-1.1
			h0.9V240.4z"/>
		<path fill="#754141" d="M169.1,247.5h0.7l3-6.9h0.4l3.1,6.9h0.8v0.4h-2.7v-0.4h0.9l-0.7-1.6h-3.5l-0.7,1.6h0.8v0.4h-2.1V247.5z
			 M172.8,241.8l-1.5,3.5h3L172.8,241.8z"/>
		<path fill="#754141" d="M177.6,247.5h1v-6.4h-1v-0.4h1.7l5.1,5.6v-5.1h-1v-0.4h2.5v0.4h-1v6.9h-0.3l-5.6-6.2v5.6h1v0.4h-2.5V247.5
			z"/>
		<path fill="#754141" d="M190.8,247.3h1.5v-9.1h-1.5v-0.6h8.7v2.1h-0.8v-1.2h-4.9v3.7h4.1v-1.2h0.8v3.1h-0.8v-1.3h-4.1v4.3h5.1
			v-1.3h0.8v2.2h-8.8V247.3z"/>
		<path fill="#754141" d="M200.8,247.5h0.7l3-6.9h0.4l3.1,6.9h0.8v0.4h-2.7v-0.4h0.9l-0.7-1.6h-3.5l-0.7,1.6h0.8v0.4h-2.1V247.5z
			 M204.5,241.8l-1.5,3.5h3L204.5,241.8z"/>
		<path fill="#754141" d="M210,247.5h1v-6.2h-2.2v0.9h-0.6v-1.5h6.7v1.5h-0.6v-0.9H212v6.2h1v0.4h-3V247.5z"/>
		<path fill="#754141" d="M219.8,247.3h1.4v-9.1h-1.4v-0.6h4.8c1.7,0,3.3,0.6,3.4,2.6c0,1.4-1.1,2-2.3,2.3v0
			c1.6,0.1,2.9,1.1,2.9,2.7c0,2.1-1.9,2.8-3.8,2.8h-5V247.3z M222.6,242.1h1.7c1.5,0,2.3-0.8,2.3-2c0-1.2-0.9-2-2.5-2h-1.5V242.1z
			 M222.6,247.3h1.9c1.4,0,2.6-0.6,2.6-2.2c0-1.5-0.8-2.4-2.9-2.4h-1.6V247.3z"/>
		<path fill="#754141" d="M229.9,240.6h2.9v0.4h-1v4c0,1.8,0.9,2.4,2.1,2.4c1.2,0,2.1-0.7,2.1-2.1v-4.3h-0.9v-0.4h2.4v0.4h-0.9v4.3
			c0,1.6-0.9,2.6-2.8,2.6c-2.2,0-3.1-1-3.1-2.8v-4.1h-1V240.6z"/>
		<path fill="#754141" d="M238.2,247.5h1v-6.4h-1v-0.4h5.8v1.5h-0.6v-0.8h-3.3v2.6h2.7V243h0.6v2.2h-0.6v-0.9h-2.7v3.2h1v0.4h-2.9
			V247.5z"/>
		<path fill="#754141" d="M244.7,247.5h1v-6.4h-1v-0.4h5.8v1.5H250v-0.8h-3.3v2.6h2.7V243h0.6v2.2h-0.6v-0.9h-2.7v3.2h1v0.4h-2.9
			V247.5z"/>
		<path fill="#754141" d="M251.2,247.5h1.1v-6.4h-1.1v-0.4h6.1v1.5h-0.6v-0.8h-3.5v2.6h2.9V243h0.6v2.2h-0.6v-0.9h-2.9v3h3.6v-0.9
			h0.6v1.6h-6.2V247.5z"/>
		<path fill="#754141" d="M260.2,247.5h1v-6.2h-2.2v0.9h-0.6v-1.5h6.7v1.5h-0.6v-0.9h-2.2v6.2h1v0.4h-3V247.5z"/>
		<path fill="#754141" d="M270.8,238.1h-1.1v-0.6h4v0.6h-1.4l3.5,8.3l3.4-8.3H278v-0.6h3.1v0.6h-0.9L276,248h-0.9L270.8,238.1z"/>
		<path fill="#754141" d="M285.8,240.5c2.2,0,3.9,1.4,3.9,3.7c0,2.2-1.6,3.7-3.9,3.7c-2.5,0-3.9-1.6-3.9-3.7
			C281.9,242.2,283.5,240.5,285.8,240.5z M285.8,247.6c1.9,0,2.8-1.5,2.8-3.3c0-1.7-0.9-3.2-2.8-3.2c-1.9,0-2.8,1.5-2.8,3.2
			C283,246,283.9,247.6,285.8,247.6z"/>
		<path fill="#754141" d="M290.6,240.6h2.9v0.4h-1v4c0,1.8,0.9,2.4,2.1,2.4c1.2,0,2.1-0.7,2.1-2.1v-4.3h-0.9v-0.4h2.4v0.4h-0.9v4.3
			c0,1.6-0.9,2.6-2.8,2.6c-2.2,0-3.1-1-3.1-2.8v-4.1h-1V240.6z"/>
		<path fill="#754141" d="M306.1,242.7h-0.6v-0.1c0-0.9-0.9-1.6-2.3-1.6c-1.9,0-3,1.4-3,3.3c0,1.7,1.2,3.3,3,3.3
			c1.5,0,2.2-0.5,2.8-1.2l0.4,0.4c-0.9,0.9-2,1.2-3.2,1.2c-2.3,0-4.1-1.6-4.1-3.7c0-2.3,1.7-3.7,3.9-3.7c1.1,0,1.8,0.2,2.4,0.8v-0.8
			h0.6V242.7z"/>
		<path fill="#754141" d="M307.3,247.5h1v-6.4h-1v-0.4h2.9v0.4h-1v2.7h4.4v-2.7h-1v-0.4h2.9v0.4h-1v6.4h1v0.4h-2.9v-0.4h1v-3.2h-4.4
			v3.2h1v0.4h-2.9V247.5z"/>
		<path fill="#754141" d="M316.1,247.5h1.1v-6.4h-1.1v-0.4h6.1v1.5h-0.6v-0.8h-3.5v2.6h2.9V243h0.6v2.2H321v-0.9h-2.9v3h3.6v-0.9
			h0.6v1.6h-6.2V247.5z"/>
		<path fill="#754141" d="M323.3,247.5h1v-6.4h-1v-0.4h3.1c1.3,0,2.5,0.5,2.5,2c0,1-0.7,1.7-1.7,1.9c0.4,0.4,0.8,1.2,1.3,1.9
			c0.3,0.5,0.6,1,1.2,1h0.1v0.5h-0.6c-1.2,0-1.6-1.3-2.8-3c-0.1-0.1-0.3-0.2-0.6-0.2h-0.6v2.8h1v0.4h-2.9V247.5z M325.2,244.3h1
			c1.1,0,1.6-0.7,1.6-1.6c0-0.9-0.6-1.6-1.8-1.6h-0.9V244.3z"/>
	</g>
</g>
<g id="perfume">
	<g>
		<circle fill="#FFFFFF" stroke="#A64F4B" stroke-width="0.7954" stroke-miterlimit="10" cx="42.9" cy="278.1" r="13.2"/>
		<path fill="#C2D7C2" d="M42.8,272.8c0,0-3-4.6-7.9-1.6c0,0-3.9,2.7-1.5,7.8c0,0,0.2,1.2,3.5,4.2c0,0,2.5,2.2,4,3.9
			c0,0,0.9,1,1.7,2c0,0,2.3-2.3,2.6-2.8c0,0,1.6-1.5,4.1-3.7c0,0,4.6-3.3,3.4-8.3c0,0-1.6-5.4-7.3-3.6
			C45.4,270.7,43.9,271.2,42.8,272.8z"/>
		<line fill="none" stroke="#A64F4B" stroke-width="0.7954" stroke-miterlimit="10" x1="32.9" y1="269.5" x2="52.7" y2="286.7"/>
	</g>
	<g>
		<path fill="#754141" d="M72.6,280.2L72.6,280.2c-1.3-0.3-1.9-1.3-1.9-2.3c0-1.3,1-2.5,3.1-2.5s3.1,1.2,3.1,2.5
			c0,1.1-0.8,2.1-1.9,2.3v0c1.4,0.3,2.2,1.5,2.2,2.9c0,1.6-1.4,2.8-3.5,2.8c-2.2,0-3.5-1.3-3.5-2.8
			C70.4,281.6,71.2,280.5,72.6,280.2z M73.9,285.2c1.4,0,2-0.9,2-2.4c0-1.1-0.5-2.3-2-2.3s-2,1.2-2,2.3
			C71.9,284.3,72.5,285.2,73.9,285.2z M73.9,279.9c1.2,0,1.9-0.8,1.9-2c0-1.2-0.7-2-1.9-2c-1.3,0-1.9,0.8-1.9,2
			C72,279.1,72.7,279.9,73.9,279.9z"/>
		<path fill="#754141" d="M82.2,275.3c1.3,0,2.4,1.1,2.4,2.5c0,1.5-1.2,2.5-2.4,2.5c-1.3,0-2.4-1.1-2.4-2.5
			C79.7,276.4,80.9,275.3,82.2,275.3z M82.2,280c0.9,0,1.3-0.9,1.3-2.2s-0.5-2.2-1.3-2.2c-0.9,0-1.3,0.9-1.3,2.2S81.3,280,82.2,280z
			 M88.8,275h0.7l-6.9,11.2h-0.7L88.8,275z M89.4,280.8c1.3,0,2.4,1.1,2.4,2.5s-1.2,2.5-2.4,2.5s-2.4-1.1-2.4-2.5
			S88.1,280.8,89.4,280.8z M89.4,285.5c0.9,0,1.3-0.9,1.3-2.2s-0.5-2.2-1.3-2.2s-1.3,0.9-1.3,2.2S88.5,285.5,89.4,285.5z"/>
		<path fill="#754141" d="M98.1,285.1h1.4v-9.1h-1.4v-0.6h4.8c1.7,0,3.3,0.6,3.4,2.6c0,1.4-1.1,2-2.3,2.3v0c1.6,0.1,2.9,1.1,2.9,2.7
			c0,2.1-1.9,2.8-3.8,2.8h-5V285.1z M100.9,279.9h1.7c1.5,0,2.3-0.8,2.3-2c0-1.2-0.9-2-2.5-2h-1.5V279.9z M100.9,285.1h1.9
			c1.4,0,2.6-0.6,2.6-2.2c0-1.5-0.8-2.4-2.9-2.4h-1.6V285.1z"/>
		<path fill="#754141" d="M112.3,278.3c2.2,0,3.9,1.4,3.9,3.7c0,2.2-1.6,3.7-3.9,3.7c-2.5,0-3.9-1.6-3.9-3.7
			C108.4,280,110,278.3,112.3,278.3z M112.3,285.4c1.9,0,2.8-1.5,2.8-3.3c0-1.7-0.9-3.2-2.8-3.2c-1.9,0-2.8,1.5-2.8,3.2
			C109.5,283.8,110.4,285.4,112.3,285.4z"/>
		<path fill="#754141" d="M118.9,285.3h1v-6.2h-2.2v0.9H117v-1.5h6.7v1.5H123v-0.9h-2.2v6.2h1v0.4h-3V285.3z"/>
		<path fill="#754141" d="M126,285.3h1v-6.2h-2.2v0.9h-0.6v-1.5h6.7v1.5h-0.6v-0.9H128v6.2h1v0.4h-3V285.3z"/>
		<path fill="#754141" d="M131.4,285.3h1v-6.4h-1v-0.4h2.9v0.4h-1v6.2h3.2V284h0.7v1.7h-5.8V285.3z"/>
		<path fill="#754141" d="M137.8,285.3h1.1v-6.4h-1.1v-0.4h6.1v1.5h-0.6v-0.8h-3.5v2.6h2.9v-0.8h0.6v2.2h-0.6v-0.9h-2.9v3h3.6v-0.9
			h0.6v1.6h-6.2V285.3z"/>
		<path fill="#754141" d="M153.4,278.3c2.2,0,3.9,1.4,3.9,3.7c0,2.2-1.6,3.7-3.9,3.7c-2.5,0-3.9-1.6-3.9-3.7
			C149.5,280,151.2,278.3,153.4,278.3z M153.4,285.4c1.9,0,2.8-1.5,2.8-3.3c0-1.7-0.9-3.2-2.8-3.2c-1.9,0-2.8,1.5-2.8,3.2
			C150.6,283.8,151.5,285.4,153.4,285.4z"/>
		<path fill="#754141" d="M158.2,285.3h1v-6.4h-1v-0.4h5.8v1.5h-0.6v-0.8h-3.3v2.6h2.7v-0.8h0.6v2.2h-0.6v-0.9h-2.7v3.2h1v0.4h-2.9
			V285.3z"/>
		<path fill="#754141" d="M179.5,278.2h-0.9v-0.1c0-1.3-1.3-2.3-3.2-2.3c-2.7,0-4.3,2-4.3,4.7c0,2.5,1.8,4.7,4.3,4.7
			c2.1,0,3.2-0.7,4-1.7l0.6,0.6c-1.3,1.3-2.9,1.8-4.6,1.8c-3.3,0-5.8-2.2-5.8-5.3c0-3.3,2.4-5.3,5.6-5.3c1.6,0,2.6,0.3,3.5,1.2v-1.1
			h0.9V278.2z"/>
		<path fill="#754141" d="M180.9,285.3h1v-6.4h-1v-0.4h2.9v0.4h-1v2.7h4.4v-2.7h-1v-0.4h2.9v0.4h-1v6.4h1v0.4h-2.9v-0.4h1v-3.2h-4.4
			v3.2h1v0.4h-2.9V285.3z"/>
		<path fill="#754141" d="M189.7,285.3h1.1v-6.4h-1.1v-0.4h6.1v1.5h-0.6v-0.8h-3.5v2.6h2.9v-0.8h0.6v2.2h-0.6v-0.9h-2.9v3h3.6v-0.9
			h0.6v1.6h-6.2V285.3z"/>
		<path fill="#754141" d="M196.8,285.3h0.7l3-6.9h0.4l3.1,6.9h0.8v0.4h-2.7v-0.4h0.9l-0.7-1.6h-3.5l-0.7,1.6h0.8v0.4h-2.1V285.3z
			 M200.5,279.6l-1.5,3.5h3L200.5,279.6z"/>
		<path fill="#754141" d="M205.3,285.3h1v-6.4h-1v-0.4h3c1.4,0,2.7,0.5,2.7,2.2c0,1.5-1.2,2.2-2.7,2.2c-0.3,0-0.7,0-1.1-0.1v2.5h1
			v0.4h-2.9V285.3z M207.2,282.3c0.3,0,0.7,0,1,0c1,0,1.8-0.4,1.8-1.7c0-1.1-0.7-1.7-1.9-1.7h-0.9V282.3z"/>
		<path fill="#754141" d="M216.2,285.1h1.4v-9.1h-1.4v-0.6h4.3c2,0,3.9,0.7,3.9,3.1c0,2.2-1.7,3.2-3.9,3.2c-0.4,0-1,0-1.6-0.1v3.6
			h1.4v0.6h-4.1V285.1z M219,280.8c0.5,0,0.9,0,1.4,0c1.5,0,2.6-0.6,2.6-2.5c0-1.5-0.9-2.5-2.8-2.5H219V280.8z"/>
		<path fill="#754141" d="M225.3,285.3h1.1v-6.4h-1.1v-0.4h6.1v1.5h-0.6v-0.8h-3.5v2.6h2.9v-0.8h0.6v2.2h-0.6v-0.9h-2.9v3h3.6v-0.9
			h0.6v1.6h-6.2V285.3z"/>
		<path fill="#754141" d="M232.6,285.3h1v-6.4h-1v-0.4h3.1c1.3,0,2.5,0.5,2.5,2c0,1-0.7,1.7-1.7,1.9c0.4,0.4,0.8,1.2,1.3,1.9
			c0.3,0.5,0.6,1,1.2,1h0.1v0.5h-0.6c-1.2,0-1.6-1.3-2.8-3c-0.1-0.1-0.3-0.2-0.6-0.2h-0.6v2.8h1v0.4h-2.9V285.3z M234.5,282.1h1
			c1.1,0,1.6-0.7,1.6-1.6c0-0.9-0.6-1.6-1.8-1.6h-0.9V282.1z"/>
		<path fill="#754141" d="M239.7,285.3h1v-6.4h-1v-0.4h5.8v1.5h-0.6v-0.8h-3.3v2.6h2.7v-0.8h0.6v2.2h-0.6v-0.9h-2.7v3.2h1v0.4h-2.9
			V285.3z"/>
		<path fill="#754141" d="M246.2,278.4h2.9v0.4h-1v4c0,1.8,0.9,2.4,2.1,2.4c1.2,0,2.1-0.7,2.1-2.1v-4.3h-0.9v-0.4h2.4v0.4H253v4.3
			c0,1.6-0.9,2.6-2.8,2.6c-2.2,0-3.1-1-3.1-2.8v-4.1h-1V278.4z"/>
		<path fill="#754141" d="M254.6,285.3h0.9v-6.4h-0.9v-0.4h1.8l3.2,5.7l3.2-5.7h1.9v0.4h-0.9v6.4h0.9v0.4h-2.8v-0.4h1v-5.8h0
			l-3.2,5.7h-0.4l-3.1-5.6h0v5.6h0.9v0.4h-2.4V285.3z"/>
		<path fill="#754141" d="M265.2,285.3h1.1v-6.4h-1.1v-0.4h6.1v1.5h-0.6v-0.8h-3.5v2.6h2.9v-0.8h0.6v2.2H270v-0.9h-2.9v3h3.6v-0.9
			h0.6v1.6h-6.2V285.3z"/>
	</g>
</g>
<g id="underwear">
	<g>
		<circle fill="#FFFFFF" stroke="#A64F4B" stroke-width="0.7954" stroke-miterlimit="10" cx="42.8" cy="316.2" r="13.2"/>
		<path fill="#C2D7C2" d="M42.6,311c0,0-3-4.6-7.9-1.6c0,0-3.9,2.7-1.5,7.8c0,0,0.2,1.2,3.5,4.2c0,0,2.5,2.2,4,3.9c0,0,0.9,1,1.7,2
			c0,0,2.3-2.3,2.6-2.8c0,0,1.6-1.5,4.1-3.7c0,0,4.6-3.3,3.4-8.3c0,0-1.6-5.4-7.3-3.6C45.3,308.8,43.8,309.3,42.6,311z"/>
		<line fill="none" stroke="#A64F4B" stroke-width="0.7954" stroke-miterlimit="10" x1="32.7" y1="307.6" x2="52.5" y2="324.8"/>
	</g>
	<g>
		<path fill="#754141" d="M72.9,313.6l-1.8,1.3l-0.5-0.5l2.7-2.4h0.8v9.8H76v0.6h-4.7v-0.6h1.7V313.6z"/>
		<path fill="#754141" d="M81.4,313.6l-1.8,1.3l-0.5-0.5l2.7-2.4h0.8v9.8h1.8v0.6h-4.7v-0.6h1.7V313.6z"/>
		<path fill="#754141" d="M90.1,312c1.3,0,2.4,1.1,2.4,2.5c0,1.5-1.2,2.5-2.4,2.5c-1.3,0-2.4-1.1-2.4-2.5
			C87.7,313.1,88.8,312,90.1,312z M90.1,316.7c0.9,0,1.3-0.9,1.3-2.2s-0.5-2.2-1.3-2.2c-0.9,0-1.3,0.9-1.3,2.2
			S89.2,316.7,90.1,316.7z M96.7,311.7h0.7l-6.9,11.2h-0.7L96.7,311.7z M97.3,317.5c1.3,0,2.4,1.1,2.4,2.5s-1.2,2.5-2.4,2.5
			s-2.4-1.1-2.4-2.5S96,317.5,97.3,317.5z M97.3,322.2c0.9,0,1.3-0.9,1.3-2.2s-0.5-2.2-1.3-2.2s-1.3,0.9-1.3,2.2
			S96.4,322.2,97.3,322.2z"/>
		<path fill="#754141" d="M106.1,312h4.1v0.6h-1.4v5.7c0,2.5,1.3,3.5,3,3.5c1.7,0,3-1,3-3v-6.2h-1.3V312h3.5v0.6h-1.3v6.2
			c0,2.2-1.3,3.7-3.9,3.7c-3.1,0-4.4-1.4-4.4-4v-5.9h-1.4V312z"/>
		<path fill="#754141" d="M117.8,322h1v-6.4h-1v-0.4h1.7l5.1,5.6v-5.1h-1v-0.4h2.5v0.4h-1v6.9H125l-5.6-6.2v5.6h1v0.4h-2.5V322z"/>
		<path fill="#754141" d="M126.8,322h1v-6.4h-1v-0.4h5.8v1.5H132v-0.8h-3.3v2.6h2.7v-0.8h0.6v2.2h-0.6v-0.9h-2.7v3.2h1v0.4h-2.9V322
			z"/>
		<path fill="#754141" d="M133.3,322h1v-6.4h-1v-0.4h2.9v0.4h-1v6.2h3.2v-1.1h0.7v1.7h-5.8V322z"/>
		<path fill="#754141" d="M139.7,322h0.7l3-6.9h0.4l3.1,6.9h0.8v0.4H145V322h0.9l-0.7-1.6h-3.5L141,322h0.8v0.4h-2.1V322z
			 M143.3,316.3l-1.5,3.5h3L143.3,316.3z"/>
		<path fill="#754141" d="M148.9,322h1v-6.2h-2.2v0.9h-0.6v-1.5h6.7v1.5h-0.6v-0.9h-2.2v6.2h1v0.4h-3V322z"/>
		<path fill="#754141" d="M156.1,322h1v-6.2h-2.2v0.9h-0.6v-1.5h6.7v1.5h-0.6v-0.9H158v6.2h1v0.4h-3V322z"/>
		<path fill="#754141" d="M161.4,322h1.1v-6.4h-1.1v-0.4h6.1v1.5h-0.6v-0.8h-3.5v2.6h2.9v-0.8h0.6v2.2h-0.6v-0.9h-2.9v3h3.6v-0.9
			h0.6v1.6h-6.2V322z"/>
		<path fill="#754141" d="M168.6,322h1v-6.4h-1v-0.4h3.1c1.3,0,2.5,0.5,2.5,2c0,1-0.7,1.7-1.7,1.9c0.4,0.4,0.8,1.2,1.3,1.9
			c0.3,0.5,0.6,1,1.2,1h0.1v0.5h-0.6c-1.2,0-1.6-1.3-2.8-3c-0.1-0.1-0.3-0.2-0.6-0.2h-0.6v2.8h1v0.4h-2.9V322z M170.5,318.8h1
			c1.1,0,1.6-0.7,1.6-1.6c0-0.9-0.6-1.6-1.8-1.6h-0.9V318.8z"/>
		<path fill="#754141" d="M175.7,322h1v-6.4h-1v-0.4h2.9v0.4h-1v6.4h1v0.4h-2.9V322z"/>
		<path fill="#754141" d="M179.3,322h1v-6.4h-1v-0.4h1.7l5.1,5.6v-5.1h-1v-0.4h2.5v0.4h-1v6.9h-0.3l-5.6-6.2v5.6h1v0.4h-2.5V322z"/>
		<path fill="#754141" d="M195.7,317.2h-0.6v-0.1c0-1-1.3-1.6-2.5-1.6c-2,0-3.1,1.5-3.1,3.3c0,1.7,1.2,3.3,3.1,3.3
			c1.1,0,1.9-0.5,2.3-1v-1.5h-1.3v-0.5h2.3v3.4h-0.3c-0.1-0.3-0.2-0.5-0.4-0.8c-0.8,0.7-1.8,0.9-2.7,0.9c-2.3,0-4-1.4-4-3.7
			c0-2.3,1.7-3.7,4-3.7c0.8,0,1.9,0.2,2.7,0.8v-0.8h0.6V317.2z"/>
		<path fill="#754141" d="M201.5,312h4.1v0.6h-1.4v5.7c0,2.5,1.3,3.5,3,3.5c1.7,0,3-1,3-3v-6.2H209V312h3.5v0.6h-1.3v6.2
			c0,2.2-1.3,3.7-3.9,3.7c-3.1,0-4.4-1.4-4.4-4v-5.9h-1.4V312z"/>
		<path fill="#754141" d="M213.3,322h1v-6.4h-1v-0.4h1.7l5.1,5.6v-5.1h-1v-0.4h2.5v0.4h-1v6.9h-0.3l-5.6-6.2v5.6h1v0.4h-2.5V322z"/>
		<path fill="#754141" d="M222.2,322h1v-6.4h-1v-0.4h3.1c2.3,0,4.2,1.3,4.2,3.6c0,2.5-1.9,3.6-4.5,3.6h-2.8V322z M224.1,322h0.9
			c2.2,0,3.4-1.4,3.4-3.2c0-2.4-1.6-3.2-3.1-3.2h-1.2V322z"/>
		<path fill="#754141" d="M230.4,322h1.1v-6.4h-1.1v-0.4h6.1v1.5h-0.6v-0.8h-3.5v2.6h2.9v-0.8h0.6v2.2h-0.6v-0.9h-2.9v3h3.6v-0.9
			h0.6v1.6h-6.2V322z"/>
		<path fill="#754141" d="M237.7,322h1v-6.4h-1v-0.4h3.1c1.3,0,2.5,0.5,2.5,2c0,1-0.7,1.7-1.7,1.9c0.4,0.4,0.8,1.2,1.3,1.9
			c0.3,0.5,0.6,1,1.2,1h0.1v0.5h-0.6c-1.2,0-1.6-1.3-2.8-3c-0.1-0.1-0.3-0.2-0.6-0.2h-0.6v2.8h1v0.4h-2.9V322z M239.6,318.8h1
			c1.1,0,1.6-0.7,1.6-1.6c0-0.9-0.6-1.6-1.8-1.6h-0.9V318.8z"/>
		<path fill="#754141" d="M249.5,316.9L249.5,316.9l-1.8,5.7H247l-2.1-6.9h-0.7v-0.4h2.7v0.4h-1l1.6,5.6h0l1.8-6h0.5l1.8,6h0
			l1.6-5.6h-0.9v-0.4h2.2v0.4H254l-2.1,6.9h-0.7L249.5,316.9z"/>
		<path fill="#754141" d="M255,322h1.1v-6.4H255v-0.4h6.1v1.5h-0.6v-0.8H257v2.6h2.9v-0.8h0.6v2.2h-0.6v-0.9H257v3h3.6v-0.9h0.6v1.6
			H255V322z"/>
		<path fill="#754141" d="M262.1,322h0.7l3-6.9h0.4l3.1,6.9h0.8v0.4h-2.7V322h0.9l-0.7-1.6h-3.5l-0.7,1.6h0.8v0.4h-2.1V322z
			 M265.7,316.3l-1.5,3.5h3L265.7,316.3z"/>
		<path fill="#754141" d="M270.6,322h1v-6.4h-1v-0.4h3.1c1.3,0,2.5,0.5,2.5,2c0,1-0.7,1.7-1.7,1.9c0.4,0.4,0.8,1.2,1.3,1.9
			c0.3,0.5,0.6,1,1.2,1h0.1v0.5h-0.6c-1.2,0-1.6-1.3-2.8-3c-0.1-0.1-0.3-0.2-0.6-0.2h-0.6v2.8h1v0.4h-2.9V322z M272.5,318.8h1
			c1.1,0,1.6-0.7,1.6-1.6c0-0.9-0.6-1.6-1.8-1.6h-0.9V318.8z"/>
	</g>
</g>
<g id="cd">
	<g>
		<circle fill="#FFFFFF" stroke="#A64F4B" stroke-width="0.7954" stroke-miterlimit="10" cx="42.6" cy="354.3" r="13.2"/>
		<path fill="#C2D7C2" d="M42.5,349.1c0,0-3-4.6-7.9-1.6c0,0-3.9,2.7-1.5,7.8c0,0,0.2,1.2,3.5,4.2c0,0,2.5,2.2,4,3.9
			c0,0,0.9,1,1.7,2c0,0,2.3-2.3,2.6-2.8c0,0,1.6-1.5,4.1-3.7c0,0,4.6-3.3,3.4-8.3c0,0-1.6-5.4-7.3-3.6
			C45.1,346.9,43.7,347.4,42.5,349.1z"/>
		<line fill="none" stroke="#A64F4B" stroke-width="0.7954" stroke-miterlimit="10" x1="32.6" y1="345.7" x2="52.4" y2="362.9"/>
	</g>
	<g>
		<path fill="#754141" d="M72.8,352l-1.8,1.3l-0.5-0.5l2.7-2.4H74v9.8h1.8v0.6h-4.7v-0.6h1.7V352z"/>
		<path fill="#754141" d="M80.7,355.1h0.5c1.3-0.1,2-0.9,2-2.2c0-0.8-0.5-1.8-2-1.8c-1,0-1.5,0.7-1.5,1.9h-1.4c0-1.3,1-2.5,3-2.5
			c1.7,0,3.3,0.7,3.3,2.5c0,1.3-0.7,2.2-2,2.4v0c1.4,0.1,2.3,1.4,2.3,2.7c0,2-1.7,2.9-3.6,2.9c-1.7,0-3.2-0.7-3.3-2.6h1.4
			c0.1,1.2,0.7,2,2,2c1.4,0,2-1.1,2-2.4c0-1.6-0.9-2.3-2.3-2.3h-0.4V355.1z"/>
		<path fill="#754141" d="M90,350.4c1.3,0,2.4,1.1,2.4,2.5c0,1.5-1.2,2.5-2.4,2.5c-1.3,0-2.4-1.1-2.4-2.5
			C87.5,351.5,88.7,350.4,90,350.4z M90,355.1c0.9,0,1.3-0.9,1.3-2.2s-0.5-2.2-1.3-2.2c-0.9,0-1.3,0.9-1.3,2.2S89.1,355.1,90,355.1z
			 M96.6,350.1h0.7l-6.9,11.2h-0.7L96.6,350.1z M97.2,355.9c1.3,0,2.4,1.1,2.4,2.5s-1.2,2.5-2.4,2.5s-2.4-1.1-2.4-2.5
			S95.9,355.9,97.2,355.9z M97.2,360.6c0.9,0,1.3-0.9,1.3-2.2s-0.5-2.2-1.3-2.2s-1.3,0.9-1.3,2.2S96.3,360.6,97.2,360.6z"/>
		<path fill="#754141" d="M105.9,360.2h1.4v-9.1h-1.4v-0.6h4.8c1.7,0,3.3,0.6,3.4,2.6c0,1.4-1.1,2-2.3,2.3v0
			c1.6,0.1,2.9,1.1,2.9,2.7c0,2.1-1.9,2.8-3.8,2.8h-5V360.2z M108.7,355h1.7c1.5,0,2.3-0.8,2.3-2c0-1.2-0.9-2-2.5-2h-1.5V355z
			 M108.7,360.2h1.9c1.4,0,2.6-0.6,2.6-2.2c0-1.5-0.8-2.4-2.9-2.4h-1.6V360.2z"/>
		<path fill="#754141" d="M115.8,360.4h0.7l3-6.9h0.4l3.1,6.9h0.8v0.4h-2.7v-0.4h0.9l-0.7-1.6h-3.5l-0.7,1.6h0.8v0.4h-2.1V360.4z
			 M119.5,354.7l-1.5,3.5h3L119.5,354.7z"/>
		<path fill="#754141" d="M124.3,360.4h1V354h-1v-0.4h3.1c1.3,0,2.5,0.5,2.5,2c0,1-0.7,1.7-1.7,1.9c0.4,0.4,0.8,1.2,1.3,1.9
			c0.3,0.5,0.6,1,1.2,1h0.1v0.5h-0.6c-1.2,0-1.6-1.3-2.8-3c-0.1-0.1-0.3-0.2-0.6-0.2h-0.6v2.8h1v0.4h-2.9V360.4z M126.2,357.2h1
			c1.1,0,1.6-0.7,1.6-1.6c0-0.9-0.6-1.6-1.8-1.6h-0.9V357.2z"/>
		<path fill="#754141" d="M138.9,355.6h-0.6v-0.1c0-1-1.3-1.6-2.5-1.6c-2,0-3.1,1.5-3.1,3.3c0,1.7,1.2,3.3,3.1,3.3
			c1.1,0,1.9-0.5,2.3-1V358h-1.3v-0.5h2.3v3.4h-0.3c-0.1-0.3-0.2-0.5-0.4-0.8c-0.8,0.7-1.8,0.9-2.7,0.9c-2.3,0-4-1.4-4-3.7
			c0-2.3,1.7-3.7,4-3.7c0.8,0,1.9,0.2,2.7,0.8v-0.8h0.6V355.6z"/>
		<path fill="#754141" d="M140.2,360.4h0.7l3-6.9h0.4l3.1,6.9h0.8v0.4h-2.7v-0.4h0.9l-0.7-1.6h-3.5l-0.7,1.6h0.8v0.4h-2.1V360.4z
			 M143.9,354.7l-1.5,3.5h3L143.9,354.7z"/>
		<path fill="#754141" d="M148.7,360.4h1V354h-1v-0.4h2.9v0.4h-1v6.4h1v0.4h-2.9V360.4z"/>
		<path fill="#754141" d="M152.3,360.4h1V354h-1v-0.4h1.7l5.1,5.6V354h-1v-0.4h2.5v0.4h-1v6.9h-0.3l-5.6-6.2v5.6h1v0.4h-2.5V360.4z"
			/>
		<path fill="#754141" d="M165.6,360.2h1.4v-9.1h-1.4v-0.6h4.8c1.7,0,3.3,0.6,3.4,2.6c0,1.4-1.1,2-2.3,2.3v0
			c1.6,0.1,2.9,1.1,2.9,2.7c0,2.1-1.9,2.8-3.8,2.8h-5V360.2z M168.3,355h1.7c1.5,0,2.3-0.8,2.3-2c0-1.2-0.9-2-2.5-2h-1.5V355z
			 M168.3,360.2h1.9c1.4,0,2.6-0.6,2.6-2.2c0-1.5-0.8-2.4-2.9-2.4h-1.6V360.2z"/>
		<path fill="#754141" d="M175.6,360.4h1V354h-1v-0.4h2.9v0.4h-1v6.4h1v0.4h-2.9V360.4z"/>
		<path fill="#754141" d="M179.2,360.4h1V354h-1v-0.4h1.7l5.1,5.6V354h-1v-0.4h2.5v0.4h-1v6.9h-0.3l-5.6-6.2v5.6h1v0.4h-2.5V360.4z"
			/>
		<path fill="#754141" d="M202.8,353.4h-0.9v-0.1c0-1.3-1.3-2.3-3.2-2.3c-2.7,0-4.3,2-4.3,4.7c0,2.5,1.8,4.7,4.3,4.7
			c2.1,0,3.2-0.7,4-1.7l0.6,0.6c-1.3,1.3-2.9,1.8-4.6,1.8c-3.3,0-5.8-2.2-5.8-5.3c0-3.3,2.4-5.3,5.6-5.3c1.6,0,2.6,0.3,3.5,1.2v-1.1
			h0.9V353.4z"/>
		<path fill="#754141" d="M204.4,360.2h1.4v-9.1h-1.4v-0.6h4.4c3.3,0,6,1.8,6,5.2c0,3.6-2.7,5.2-6.4,5.2h-4.1V360.2z M207.2,360.2
			h1.3c3.1,0,4.8-2,4.8-4.6c0-3.4-2.2-4.6-4.4-4.6h-1.7V360.2z"/>
	</g>
</g>
<g id="toy">
	<g>
		<circle fill="#FFFFFF" stroke="#A64F4B" stroke-width="0.7954" stroke-miterlimit="10" cx="42.5" cy="392.4" r="13.2"/>
		<path fill="#C2D7C2" d="M42.4,387.2c0,0-3-4.6-7.9-1.6c0,0-3.9,2.7-1.5,7.8c0,0,0.2,1.2,3.5,4.2c0,0,2.5,2.2,4,3.9
			c0,0,0.9,1,1.7,2c0,0,2.3-2.3,2.6-2.8c0,0,1.6-1.5,4.1-3.7c0,0,4.6-3.3,3.4-8.3c0,0-1.6-5.4-7.3-3.6C45,385,43.5,385.5,42.4,387.2
			z"/>
		<line fill="none" stroke="#A64F4B" stroke-width="0.7954" stroke-miterlimit="10" x1="32.5" y1="383.8" x2="52.3" y2="401"/>
	</g>
	<g>
		<path fill="#754141" d="M75.2,391.5l-1.8,1.3l-0.5-0.5l2.7-2.4h0.8v9.8h1.8v0.6h-4.7v-0.6h1.7V391.5z"/>
		<path fill="#754141" d="M86,391.9c0-0.8-0.6-1.4-1.5-1.4c-2,0-2.4,2.4-2.4,3.9v0.7h0c0.6-1,1.3-1.5,2.4-1.5c1.9,0,3.1,1.5,3.1,3.1
			c0,2.3-1.3,3.7-3.5,3.7c-3,0-3.6-2.9-3.6-5.2c0-2.5,1.1-5.4,4-5.4c1.2,0,2.6,0.6,2.6,2H86z M84.2,399.9c1.4,0,2-1.6,2-3
			c0-1.3-0.5-2.5-1.9-2.5c-1.5,0-2.1,1.5-2.1,2.7C82.2,398.3,82.5,399.9,84.2,399.9z"/>
		<path fill="#754141" d="M92.4,389.9c1.3,0,2.4,1.1,2.4,2.5c0,1.5-1.2,2.5-2.4,2.5c-1.3,0-2.4-1.1-2.4-2.5
			C90,391,91.1,389.9,92.4,389.9z M92.4,394.6c0.9,0,1.3-0.9,1.3-2.2s-0.5-2.2-1.3-2.2c-0.9,0-1.3,0.9-1.3,2.2
			S91.5,394.6,92.4,394.6z M99,389.6h0.7l-6.9,11.2h-0.7L99,389.6z M99.6,395.4c1.3,0,2.4,1.1,2.4,2.5s-1.2,2.5-2.4,2.5
			s-2.4-1.1-2.4-2.5S98.3,395.4,99.6,395.4z M99.6,400.1c0.9,0,1.3-0.9,1.3-2.2s-0.5-2.2-1.3-2.2s-1.3,0.9-1.3,2.2
			S98.7,400.1,99.6,400.1z"/>
		<path fill="#754141" d="M108.4,399.7h1.4v-9.1h-1.4v-0.6h4.1v0.6h-1.4v8.9h4.5v-1.6h1v2.5h-8.3V399.7z"/>
		<path fill="#754141" d="M117.4,399.9h0.7l3-6.9h0.4l3.1,6.9h0.8v0.4h-2.7v-0.4h0.9l-0.7-1.6h-3.5l-0.7,1.6h0.8v0.4h-2.1V399.9z
			 M121.1,394.2l-1.5,3.5h3L121.1,394.2z"/>
		<path fill="#754141" d="M125.9,399.9h1v-6.4h-1v-0.4h3.1c1.3,0,2.5,0.5,2.5,2c0,1-0.7,1.7-1.7,1.9c0.4,0.4,0.8,1.2,1.3,1.9
			c0.3,0.5,0.6,1,1.2,1h0.1v0.5h-0.6c-1.2,0-1.6-1.3-2.8-3c-0.1-0.1-0.3-0.2-0.6-0.2h-0.6v2.8h1v0.4h-2.9V399.9z M127.8,396.7h1
			c1.1,0,1.6-0.7,1.6-1.6c0-0.9-0.6-1.6-1.8-1.6h-0.9V396.7z"/>
		<path fill="#754141" d="M140.5,395h-0.6V395c0-1-1.3-1.6-2.5-1.6c-2,0-3.1,1.5-3.1,3.3c0,1.7,1.2,3.3,3.1,3.3c1.1,0,1.9-0.5,2.3-1
			v-1.5h-1.3V397h2.3v3.4h-0.3c-0.1-0.3-0.2-0.5-0.4-0.8c-0.8,0.7-1.8,0.9-2.7,0.9c-2.3,0-4-1.4-4-3.7c0-2.3,1.7-3.7,4-3.7
			c0.8,0,1.9,0.2,2.7,0.8v-0.8h0.6V395z"/>
		<path fill="#754141" d="M141.9,399.9h1.1v-6.4h-1.1v-0.4h6.1v1.5h-0.6v-0.8h-3.5v2.6h2.9v-0.8h0.6v2.2h-0.6v-0.9h-2.9v3h3.6v-0.9
			h0.6v1.6h-6.2V399.9z"/>
		<path fill="#754141" d="M163.8,392.8h-0.9v-0.1c0-1.3-1.3-2.3-3.2-2.3c-2.7,0-4.3,2-4.3,4.7c0,2.5,1.8,4.7,4.3,4.7
			c2.1,0,3.2-0.7,4-1.7l0.6,0.6c-1.3,1.3-2.9,1.8-4.6,1.8c-3.3,0-5.8-2.2-5.8-5.3c0-3.3,2.4-5.3,5.6-5.3c1.6,0,2.6,0.3,3.5,1.2v-1.1
			h0.9V392.8z"/>
		<path fill="#754141" d="M165.2,393.1h2.9v0.4h-1v4c0,1.8,0.9,2.4,2.1,2.4c1.2,0,2.1-0.7,2.1-2.1v-4.3h-0.9v-0.4h2.4v0.4H172v4.3
			c0,1.6-0.9,2.6-2.8,2.6c-2.2,0-3.1-1-3.1-2.8v-4.1h-1V393.1z"/>
		<path fill="#754141" d="M173.6,399.9h1v-6.4h-1v-0.4h3.1c2.3,0,4.2,1.3,4.2,3.6c0,2.5-1.9,3.6-4.5,3.6h-2.8V399.9z M175.5,399.9
			h0.9c2.2,0,3.4-1.4,3.4-3.2c0-2.4-1.6-3.2-3.1-3.2h-1.2V399.9z"/>
		<path fill="#754141" d="M181.9,399.9h1v-6.4h-1v-0.4h3.1c2.3,0,4.2,1.3,4.2,3.6c0,2.5-1.9,3.6-4.5,3.6h-2.8V399.9z M183.8,399.9
			h0.9c2.2,0,3.4-1.4,3.4-3.2c0-2.4-1.6-3.2-3.1-3.2h-1.2V399.9z"/>
		<path fill="#754141" d="M190.2,399.9h1v-6.4h-1v-0.4h2.9v0.4h-1v6.2h3.2v-1.1h0.7v1.7h-5.8V399.9z"/>
		<path fill="#754141" d="M198,399.9h1v-2.2l-2.5-4.2h-0.8v-0.4h2.9v0.4h-0.9l2,3.6l2-3.6h-0.9v-0.4h2.2v0.4h-0.7l-2.3,4.2v2.2h1
			v0.4H198V399.9z"/>
		<path fill="#754141" d="M210.4,399.7h1.4v-8.9h-3.2v1.3h-0.9v-2.2h9.5v2.2h-0.9v-1.3h-3.2v8.9h1.4v0.6h-4.2V399.7z"/>
		<path fill="#754141" d="M222,393c2.2,0,3.9,1.4,3.9,3.7c0,2.2-1.6,3.7-3.9,3.7c-2.5,0-3.9-1.6-3.9-3.7
			C218.1,394.6,219.8,393,222,393z M222,400c1.9,0,2.8-1.5,2.8-3.3c0-1.7-0.9-3.2-2.8-3.2c-1.9,0-2.8,1.5-2.8,3.2
			C219.2,398.4,220.1,400,222,400z"/>
		<path fill="#754141" d="M229.1,399.9h1v-2.2l-2.5-4.2h-0.8v-0.4h2.9v0.4h-0.9l2,3.6l2-3.6h-0.9v-0.4h2.2v0.4h-0.7l-2.3,4.2v2.2h1
			v0.4h-2.9V399.9z"/>
	</g>
</g>
<g id="jewellery">
	<g>
		<circle fill="#FFFFFF" stroke="#A64F4B" stroke-width="0.7954" stroke-miterlimit="10" cx="42.4" cy="430.5" r="13.2"/>
		<path fill="#C2D7C2" d="M42.2,425.3c0,0-3-4.6-7.9-1.6c0,0-3.9,2.7-1.5,7.8c0,0,0.2,1.2,3.5,4.2c0,0,2.5,2.2,4,3.9
			c0,0,0.9,1,1.7,2c0,0,2.3-2.3,2.6-2.8c0,0,1.6-1.5,4.1-3.7c0,0,4.6-3.3,3.4-8.3c0,0-1.6-5.4-7.3-3.6
			C44.9,423.2,43.4,423.6,42.2,425.3z"/>
		<line fill="none" stroke="#A64F4B" stroke-width="0.7954" stroke-miterlimit="10" x1="32.3" y1="422" x2="52.1" y2="439.1"/>
	</g>
	<g>
		<path fill="#754141" d="M74.3,429.3l-1.8,1.3l-0.5-0.5l2.7-2.4h0.8v9.8h1.8v0.6h-4.7v-0.6h1.7V429.3z"/>
		<path fill="#754141" d="M79.8,427.9h6.7l-1.9,4.9h1.5l-0.3,0.6h-1.5l-1.9,4.7H81l2.1-4.7h-1.5l0.3-0.6h1.5l1.8-3.9h-4.5v1.2h-0.9
			V427.9z"/>
		<path fill="#754141" d="M91.5,427.8c1.3,0,2.4,1.1,2.4,2.5c0,1.5-1.2,2.5-2.4,2.5c-1.3,0-2.4-1.1-2.4-2.5
			C89.1,428.8,90.3,427.8,91.5,427.8z M91.5,432.5c0.9,0,1.3-0.9,1.3-2.2s-0.5-2.2-1.3-2.2c-0.9,0-1.3,0.9-1.3,2.2
			S90.7,432.5,91.5,432.5z M98.2,427.5h0.7L92,438.6h-0.7L98.2,427.5z M98.8,433.3c1.3,0,2.4,1.1,2.4,2.5s-1.2,2.5-2.4,2.5
			s-2.4-1.1-2.4-2.5S97.5,433.3,98.8,433.3z M98.8,438c0.9,0,1.3-0.9,1.3-2.2s-0.5-2.2-1.3-2.2s-1.3,0.9-1.3,2.2S97.9,438,98.8,438z
			"/>
		<path fill="#754141" d="M110,437.6h1.4v-8.9h-3.2v1.3h-0.9v-2.2h9.5v2.2H116v-1.3h-3.2v8.9h1.4v0.6H110V437.6z"/>
		<path fill="#754141" d="M117.4,437.7h0.7l3-6.9h0.4l3.1,6.9h0.8v0.4h-2.7v-0.4h0.9l-0.7-1.6h-3.5l-0.7,1.6h0.8v0.4h-2.1V437.7z
			 M121.1,432.1l-1.5,3.5h3L121.1,432.1z"/>
		<path fill="#754141" d="M133.1,432.9h-0.6v-0.1c0-0.9-0.9-1.6-2.3-1.6c-1.9,0-3,1.4-3,3.3c0,1.7,1.2,3.3,3,3.3
			c1.5,0,2.2-0.5,2.8-1.2l0.4,0.4c-0.9,0.9-2,1.2-3.2,1.2c-2.3,0-4.1-1.6-4.1-3.7c0-2.3,1.7-3.7,3.9-3.7c1.1,0,1.8,0.2,2.4,0.8v-0.8
			h0.6V432.9z"/>
		<path fill="#754141" d="M134.2,437.7h1v-6.4h-1v-0.4h2.9v0.4h-1v3.6l3.6-3.6h-0.8v-0.4h2.5v0.4h-0.9l-2.6,2.6l2.9,3.8h0.7v0.4
			h-2.8v-0.4h0.9l-2.4-3.1l-1,1v2.1h1v0.4h-2.9V437.7z"/>
		<path fill="#754141" d="M144.2,437.7h1v-2.2l-2.5-4.2h-0.8v-0.4h2.9v0.4h-0.9l2,3.6l2-3.6h-0.9v-0.4h2.2v0.4h-0.7l-2.3,4.2v2.2h1
			v0.4h-2.9V437.7z"/>
		<path fill="#754141" d="M156.6,427.8h4.1v0.6h-1.4v7.2c0,1.9-1.3,2.7-3,2.7c-1.7,0-2.7-0.9-2.7-2.3l1.4-0.2c0,0.9,0.4,1.9,1.4,1.9
			c1,0,1.6-0.7,1.6-2.1v-7.2h-1.4V427.8z"/>
		<path fill="#754141" d="M161.5,437.7h1.1v-6.4h-1.1v-0.4h6.1v1.5H167v-0.8h-3.5v2.6h2.9v-0.8h0.6v2.2h-0.6v-0.9h-2.9v3h3.6v-0.9
			h0.6v1.6h-6.2V437.7z"/>
		<path fill="#754141" d="M173.8,432.6L173.8,432.6l-1.8,5.7h-0.7l-2.1-6.9h-0.7v-0.4h2.7v0.4h-1l1.6,5.6h0l1.8-6h0.5l1.8,6h0
			l1.6-5.6h-0.9v-0.4h2.2v0.4h-0.7l-2.1,6.9h-0.7L173.8,432.6z"/>
		<path fill="#754141" d="M179.3,437.7h1.1v-6.4h-1.1v-0.4h6.1v1.5h-0.6v-0.8h-3.5v2.6h2.9v-0.8h0.6v2.2h-0.6v-0.9h-2.9v3h3.6v-0.9
			h0.6v1.6h-6.2V437.7z"/>
		<path fill="#754141" d="M186.5,437.7h1v-6.4h-1v-0.4h2.9v0.4h-1v6.2h3.2v-1.1h0.7v1.7h-5.8V437.7z"/>
		<path fill="#754141" d="M193.1,437.7h1v-6.4h-1v-0.4h2.9v0.4h-1v6.2h3.2v-1.1h0.7v1.7h-5.8V437.7z"/>
		<path fill="#754141" d="M199.5,437.7h1.1v-6.4h-1.1v-0.4h6.1v1.5H205v-0.8h-3.5v2.6h2.9v-0.8h0.6v2.2h-0.6v-0.9h-2.9v3h3.6v-0.9
			h0.6v1.6h-6.2V437.7z"/>
		<path fill="#754141" d="M206.8,437.7h1v-6.4h-1v-0.4h3.1c1.3,0,2.5,0.5,2.5,2c0,1-0.7,1.7-1.7,1.9c0.4,0.4,0.8,1.2,1.3,1.9
			c0.3,0.5,0.6,1,1.2,1h0.1v0.5h-0.6c-1.2,0-1.6-1.3-2.8-3c-0.1-0.1-0.3-0.2-0.6-0.2h-0.6v2.8h1v0.4h-2.9V437.7z M208.7,434.5h1
			c1.1,0,1.6-0.7,1.6-1.6c0-0.9-0.6-1.6-1.8-1.6h-0.9V434.5z"/>
		<path fill="#754141" d="M215.7,437.7h1v-2.2l-2.5-4.2h-0.8v-0.4h2.9v0.4h-0.9l2,3.6l2-3.6h-0.9v-0.4h2.2v0.4H220l-2.3,4.2v2.2h1
			v0.4h-2.9V437.7z"/>
	</g>
</g>
<g id="flower">
	<g>
		<circle fill="#FFFFFF" stroke="#A64F4B" stroke-width="0.7954" stroke-miterlimit="10" cx="42.2" cy="468.6" r="13.2"/>
		<path fill="#C2D7C2" d="M42.1,463.4c0,0-3-4.6-7.9-1.6c0,0-3.9,2.7-1.5,7.8c0,0,0.2,1.2,3.5,4.2c0,0,2.5,2.2,4,3.9
			c0,0,0.9,1,1.7,2c0,0,2.3-2.3,2.6-2.8c0,0,1.6-1.5,4.1-3.7c0,0,4.6-3.3,3.4-8.3c0,0-1.6-5.4-7.3-3.6
			C44.7,461.3,43.3,461.7,42.1,463.4z"/>
		<line fill="none" stroke="#A64F4B" stroke-width="0.7954" stroke-miterlimit="10" x1="32.2" y1="460.1" x2="52" y2="477.3"/>
	</g>
	<g>
		<path fill="#754141" d="M72.2,476.3l2.4-2.5c2.2-2.3,2.7-3.7,2.7-4.8c0-1.2-0.6-2.2-1.9-2.2c-1.4,0-1.9,1.2-1.9,2.4h-1.3
			c0.2-2,1.4-3,3.4-3c1.7,0,3.2,1,3.2,2.8c0,1.4-1,2.7-2.6,4.3l-2.1,2.1h4v-1h0.9v2.2h-6.9V476.3z"/>
		<path fill="#754141" d="M84.3,476.7c-2.4,0-3.5-2.4-3.5-5.3s1.1-5.3,3.5-5.3s3.5,2.4,3.5,5.3S86.7,476.7,84.3,476.7z M84.3,466.7
			c-2,0-2.1,3.5-2.1,4.7c0,1.2,0.1,4.7,2.1,4.7s2.1-3.5,2.1-4.7C86.3,470.2,86.3,466.7,84.3,466.7z"/>
		<path fill="#754141" d="M92.6,466.1c1.3,0,2.4,1.1,2.4,2.5c0,1.5-1.2,2.5-2.4,2.5c-1.3,0-2.4-1.1-2.4-2.5
			C90.1,467.2,91.3,466.1,92.6,466.1z M92.6,470.8c0.9,0,1.3-0.9,1.3-2.2s-0.5-2.2-1.3-2.2c-0.9,0-1.3,0.9-1.3,2.2
			S91.7,470.8,92.6,470.8z M99.2,465.8h0.7L93,477h-0.7L99.2,465.8z M99.8,471.6c1.3,0,2.4,1.1,2.4,2.5s-1.2,2.5-2.4,2.5
			s-2.4-1.1-2.4-2.5S98.5,471.6,99.8,471.6z M99.8,476.3c0.9,0,1.3-0.9,1.3-2.2s-0.5-2.2-1.3-2.2s-1.3,0.9-1.3,2.2
			S98.9,476.3,99.8,476.3z"/>
		<path fill="#754141" d="M108.5,475.9h1.4v-9.1h-1.4v-0.6h4.3c2,0,3.9,0.7,3.9,3.1c0,2.2-1.7,3.2-3.9,3.2c-0.4,0-1,0-1.6-0.1v3.6
			h1.4v0.6h-4.1V475.9z M111.3,471.7c0.5,0,0.9,0,1.4,0c1.5,0,2.6-0.6,2.6-2.5c0-1.5-0.9-2.5-2.8-2.5h-1.2V471.7z"/>
		<path fill="#754141" d="M117.6,476.1h1.1v-6.4h-1.1v-0.4h6.1v1.5h-0.6v-0.8h-3.5v2.6h2.9v-0.8h0.6v2.2h-0.6v-0.9h-2.9v3h3.6V475
			h0.6v1.6h-6.2V476.1z"/>
		<path fill="#754141" d="M126.6,476.1h1v-6.2h-2.2v0.9h-0.6v-1.5h6.7v1.5h-0.6v-0.9h-2.2v6.2h1v0.4h-3V476.1z"/>
		<path fill="#754141" d="M132,476.1h1v-6.4h-1v-0.4h3.1c1.3,0,2.5,0.5,2.5,2c0,1-0.7,1.7-1.7,1.9c0.4,0.4,0.8,1.2,1.3,1.9
			c0.3,0.5,0.6,1,1.2,1h0.1v0.5H138c-1.2,0-1.6-1.3-2.8-3c-0.1-0.1-0.3-0.2-0.6-0.2h-0.6v2.8h1v0.4H132V476.1z M133.9,472.9h1
			c1.1,0,1.6-0.7,1.6-1.6c0-0.9-0.6-1.6-1.8-1.6h-0.9V472.9z"/>
		<path fill="#754141" d="M143.3,469.2c2.2,0,3.9,1.4,3.9,3.7c0,2.2-1.6,3.7-3.9,3.7c-2.5,0-3.9-1.6-3.9-3.7
			C139.4,470.8,141,469.2,143.3,469.2z M143.3,476.2c1.9,0,2.8-1.5,2.8-3.3c0-1.7-0.9-3.2-2.8-3.2c-1.9,0-2.8,1.5-2.8,3.2
			C140.5,474.7,141.3,476.2,143.3,476.2z"/>
		<path fill="#754141" d="M148.1,476.1h1v-6.4h-1v-0.4h2.9v0.4h-1v6.2h3.2v-1.1h0.7v1.7h-5.8V476.1z"/>
		<path fill="#754141" d="M166.5,468.8h-0.8v-0.1c0-1.4-1.6-2-2.9-2c-1.1,0-2.1,0.5-2.1,1.6c0,2.6,6.4,1.7,6.4,5.5c0,2-1.8,3-3.7,3
			c-1.7,0-2.5-0.4-3-0.7v0.6h-0.9v-2.8h0.9v0.7c0,1.2,2,1.6,2.9,1.6c1.2,0,2.5-0.5,2.5-1.8c0-3-6.4-1.9-6.4-5.6
			c0-1.9,1.7-2.7,3.4-2.7c1.1,0,2.2,0.2,2.9,0.9v-0.8h0.8V468.8z"/>
		<path fill="#754141" d="M170,476.1h1v-6.2h-2.2v0.9h-0.6v-1.5h6.7v1.5h-0.6v-0.9h-2.2v6.2h1v0.4h-3V476.1z"/>
		<path fill="#754141" d="M174.4,476.1h0.7l3-6.9h0.4l3.1,6.9h0.8v0.4h-2.7v-0.4h0.9l-0.7-1.6h-3.5l-0.7,1.6h0.8v0.4h-2.1V476.1z
			 M178.1,470.4l-1.5,3.5h3L178.1,470.4z"/>
		<path fill="#754141" d="M183.7,476.1h1v-6.2h-2.2v0.9h-0.6v-1.5h6.7v1.5h-0.6v-0.9h-2.2v6.2h1v0.4h-3V476.1z"/>
		<path fill="#754141" d="M189,476.1h1v-6.4h-1v-0.4h2.9v0.4h-1v6.4h1v0.4H189V476.1z"/>
		<path fill="#754141" d="M196.7,469.2c2.2,0,3.9,1.4,3.9,3.7c0,2.2-1.6,3.7-3.9,3.7c-2.5,0-3.9-1.6-3.9-3.7
			C192.8,470.8,194.5,469.2,196.7,469.2z M196.7,476.2c1.9,0,2.8-1.5,2.8-3.3c0-1.7-0.9-3.2-2.8-3.2c-1.9,0-2.8,1.5-2.8,3.2
			C193.9,474.7,194.8,476.2,196.7,476.2z"/>
		<path fill="#754141" d="M201.5,476.1h1v-6.4h-1v-0.4h1.7l5.1,5.6v-5.1h-1v-0.4h2.5v0.4h-1v6.9h-0.3l-5.6-6.2v5.6h1v0.4h-2.5V476.1
			z"/>
		<path fill="#754141" d="M214.9,475.9h1.4v-9.1h-1.4v-0.6h8.3v2.1h-0.8V467h-4.7v3.7h3.9v-1.2h0.8v3.1h-0.8v-1.3h-3.9v4.6h1.4v0.6
			h-4.1V475.9z"/>
		<path fill="#754141" d="M224,476.1h1v-6.4h-1v-0.4h2.9v0.4h-1v6.2h3.2v-1.1h0.7v1.7H224V476.1z"/>
		<path fill="#754141" d="M234.7,469.2c2.2,0,3.9,1.4,3.9,3.7c0,2.2-1.6,3.7-3.9,3.7c-2.5,0-3.9-1.6-3.9-3.7
			C230.8,470.8,232.4,469.2,234.7,469.2z M234.7,476.2c1.9,0,2.8-1.5,2.8-3.3c0-1.7-0.9-3.2-2.8-3.2c-1.9,0-2.8,1.5-2.8,3.2
			C231.9,474.7,232.8,476.2,234.7,476.2z"/>
		<path fill="#754141" d="M244.6,471L244.6,471l-1.8,5.7h-0.7l-2.1-6.9h-0.7v-0.4h2.7v0.4h-1l1.6,5.6h0l1.8-6h0.5l1.8,6h0l1.6-5.6
			h-0.9v-0.4h2.2v0.4H249l-2.1,6.9h-0.7L244.6,471z"/>
		<path fill="#754141" d="M250.1,476.1h1.1v-6.4h-1.1v-0.4h6.1v1.5h-0.6v-0.8h-3.5v2.6h2.9v-0.8h0.6v2.2H255v-0.9h-2.9v3h3.6V475
			h0.6v1.6h-6.2V476.1z"/>
		<path fill="#754141" d="M257.3,476.1h1v-6.4h-1v-0.4h3.1c1.3,0,2.5,0.5,2.5,2c0,1-0.7,1.7-1.7,1.9c0.4,0.4,0.8,1.2,1.3,1.9
			c0.3,0.5,0.6,1,1.2,1h0.1v0.5h-0.6c-1.2,0-1.6-1.3-2.8-3c-0.1-0.1-0.3-0.2-0.6-0.2h-0.6v2.8h1v0.4h-2.9V476.1z M259.3,472.9h1
			c1.1,0,1.6-0.7,1.6-1.6c0-0.9-0.6-1.6-1.8-1.6h-0.9V472.9z"/>
		<path fill="#754141" d="M269.7,471.1h-0.6v-0.1c0-1-1.1-1.4-2-1.4c-0.8,0-1.5,0.3-1.5,1.1c0,1.8,4.4,1.2,4.4,3.8
			c0,1.4-1.2,2.1-2.6,2.1c-1.2,0-1.8-0.3-2.1-0.5v0.4h-0.6v-1.9h0.6v0.5c0,0.8,1.4,1.1,2,1.1c0.9,0,1.7-0.3,1.7-1.2
			c0-2.1-4.4-1.3-4.4-3.9c0-1.3,1.2-1.9,2.4-1.9c0.8,0,1.5,0.2,2,0.6v-0.5h0.6V471.1z"/>
	</g>
</g>
<g>
</g>
<g>
</g>
<g>
</g>
<g>
</g>
<g>
</g>
<g>
</g>
</svg>
