<?xml version="1.0" encoding="utf-8"?>
<!-- Generator: Adobe Illustrator 19.2.1, SVG Export Plug-In . SVG Version: 6.00 Build 0)  -->
<svg version="1.1" id="valentines-day-info" xmlns="http://www.w3.org/2000/svg" xmlns:xlink="http://www.w3.org/1999/xlink"
	 x="0px" y="0px" viewBox="0 0 498.2 625.8" enable-background="new 0 0 498.2 625.8" xml:space="preserve">
<g id="background">
	<path fill="#A64F4B" d="M23.7,58.1v258.8h438.5h0V52.8c0-16.9-13.7-30.5-30.5-30.5H59.6C39.7,22.2,23.7,38.3,23.7,58.1z"/>
	<rect x="23.7" y="316.9" fill="#F3A395" width="438.5" height="172.7"/>
	<path fill="#F3E6D6" d="M23.7,489.9v31.7c0,18,14.6,32.6,32.6,32.6h373.8c17.7,0,32.1-14.4,32.1-32.1v-32.2v-0.3H23.7V489.9z"/>
	<path id="backgrounf-heart" fill="#F3A395" stroke="#F2D6B7" stroke-width="12" stroke-miterlimit="10" d="M249,74.8
		c0,0,70.4-106.2,183.1-35c0,0,91.2,63,33.2,182.4c0,0-4.6,28.2-81.9,96.2c0,0-58.7,49.7-94.5,89.5c0,0-20.7,24.2-39.8,46.9
		c0,0-53.8-53.9-59.7-65.3c0,0-37.1-34.6-94.4-87.7c0,0-107.4-77.9-77.4-194c0,0,38.6-126,170.2-82.9
		C187.7,24.9,221.7,35.2,249,74.8z"/>
</g>
<g id="green-banner_1_">
	<path id="green-background" fill="#8FA797" d="M449.2,611.3H36.3c-6.6,0-12-5.4-12-12V570c0-6.6,5.4-12,12-12h412.9
		c6.6,0,12,5.4,12,12v29.3C461.2,605.9,455.8,611.3,449.2,611.3z"/>
	<g>
		<path fill="#FFFFFF" d="M119.5,569.4h-1.2v-0.7h4.2v0.7h-1.4l3.7,8.7l3.6-8.7h-1.3v-0.7h3.3v0.7h-1l-4.4,10.4h-0.9L119.5,569.4z"
			/>
		<path fill="#FFFFFF" d="M130.8,579.2h0.7l3.1-7.3h0.4l3.2,7.3h0.8v0.5h-2.8v-0.5h0.9l-0.8-1.7h-3.6l-0.7,1.7h0.9v0.5h-2.2V579.2z
			 M134.6,573.3l-1.5,3.7h3.2L134.6,573.3z"/>
		<path fill="#FFFFFF" d="M139.6,579.2h1v-6.7h-1V572h3v0.5h-1v6.5h3.3v-1.1h0.7v1.8h-6.1V579.2z"/>
		<path fill="#FFFFFF" d="M146.4,579.2h1.1v-6.7h-1.1V572h6.3v1.5h-0.6v-0.9h-3.6v2.7h3v-0.9h0.6v2.3h-0.6v-0.9h-3v3.1h3.7v-1h0.6
			v1.6h-6.4V579.2z"/>
		<path fill="#FFFFFF" d="M154,579.2h1v-6.7h-1V572h1.8l5.3,5.8v-5.4h-1V572h2.6v0.5h-1v7.3h-0.3l-5.9-6.5v5.9h1v0.5H154V579.2z"/>
		<path fill="#FFFFFF" d="M165.1,579.2h1v-6.5h-2.3v0.9h-0.7V572h7v1.6h-0.7v-0.9h-2.3v6.5h1v0.5h-3.1V579.2z"/>
		<path fill="#FFFFFF" d="M170.8,579.2h1v-6.7h-1V572h3v0.5h-1v6.7h1v0.5h-3V579.2z"/>
		<path fill="#FFFFFF" d="M174.5,579.2h1v-6.7h-1V572h1.8l5.3,5.8v-5.4h-1V572h2.6v0.5h-1v7.3H182l-5.9-6.5v5.9h1v0.5h-2.6V579.2z"
			/>
		<path fill="#FFFFFF" d="M183.8,579.2h1.1v-6.7h-1.1V572h6.3v1.5h-0.6v-0.9h-3.6v2.7h3v-0.9h0.6v2.3h-0.6v-0.9h-3v3.1h3.7v-1h0.6
			v1.6h-6.4V579.2z"/>
		<path fill="#FFFFFF" d="M192.6,568.8h1.5l-1.2,3.9h-0.7L192.6,568.8z"/>
		<path fill="#FFFFFF" d="M201.3,574h-0.6v-0.1c0-1-1.2-1.5-2.1-1.5c-0.8,0-1.6,0.3-1.6,1.2c0,1.9,4.7,1.3,4.7,4
			c0,1.5-1.3,2.2-2.7,2.2c-1.3,0-1.8-0.3-2.2-0.5v0.4h-0.7v-2h0.7v0.5c0,0.9,1.5,1.1,2.1,1.2c0.9,0,1.8-0.4,1.8-1.3
			c0-2.2-4.7-1.4-4.7-4.1c0-1.4,1.2-1.9,2.5-1.9c0.8,0,1.6,0.2,2.1,0.6V572h0.6V574z"/>
		<path fill="#FFFFFF" d="M207.2,579h1.4v-9.6h-1.4v-0.7h4.6c3.5,0,6.3,1.9,6.3,5.5c0,3.8-2.9,5.5-6.7,5.5h-4.2V579z M210.1,579h1.4
			c3.2,0,5-2.1,5-4.8c0-3.5-2.3-4.8-4.7-4.8h-1.7V579z"/>
		<path fill="#FFFFFF" d="M219.4,579.2h0.7l3.1-7.3h0.4l3.2,7.3h0.8v0.5h-2.8v-0.5h0.9l-0.8-1.7h-3.6l-0.7,1.7h0.9v0.5h-2.2V579.2z
			 M223.2,573.3l-1.5,3.7h3.2L223.2,573.3z"/>
		<path fill="#FFFFFF" d="M229.3,579.2h1v-2.3l-2.6-4.4h-0.9V572h3.1v0.5h-1l2.1,3.7l2-3.7h-1V572h2.4v0.5h-0.7l-2.4,4.4v2.3h1v0.5
			h-3V579.2z"/>
		<path fill="#FFFFFF" d="M239.5,579.2h1v-6.7h-1V572h3v0.5h-1v6.7h1v0.5h-3V579.2z"/>
		<path fill="#FFFFFF" d="M248.8,574h-0.6v-0.1c0-1-1.2-1.5-2.1-1.5c-0.8,0-1.6,0.3-1.6,1.2c0,1.9,4.7,1.3,4.7,4
			c0,1.5-1.3,2.2-2.7,2.2c-1.3,0-1.8-0.3-2.2-0.5v0.4h-0.7v-2h0.7v0.5c0,0.9,1.5,1.1,2.1,1.2c0.9,0,1.8-0.4,1.8-1.3
			c0-2.2-4.7-1.4-4.7-4.1c0-1.4,1.2-1.9,2.5-1.9c0.8,0,1.6,0.2,2.1,0.6V572h0.6V574z"/>
		<path fill="#FFFFFF" d="M254.5,579h1l4.5-10.4h0.6l4.6,10.4h1.2v0.7h-4V579h1.3l-1.1-2.5h-5.2l-1,2.5h1.3v0.7h-3.2V579z
			 M259.9,570.5l-2.2,5.2h4.5L259.9,570.5z"/>
		<path fill="#FFFFFF" d="M267,579.2h1v-6.7h-1V572h3v0.5h-1v6.5h3.3v-1.1h0.7v1.8H267V579.2z"/>
		<path fill="#FFFFFF" d="M273.9,579.2h1v-6.7h-1V572h3v0.5h-1v6.5h3.3v-1.1h0.7v1.8h-6.1V579.2z"/>
		<path fill="#FFFFFF" d="M285.1,579h1l4.5-10.4h0.6l4.6,10.4h1.2v0.7h-4V579h1.3l-1.1-2.5H288l-1,2.5h1.3v0.7h-3.2V579z
			 M290.5,570.5l-2.2,5.2h4.5L290.5,570.5z"/>
		<path fill="#FFFFFF" d="M297.6,579.2h1v-6.7h-1V572h3.5c1.3,0,2.5,0.4,2.5,1.9c0,1-0.8,1.5-1.7,1.7v0c1.1,0.1,2.1,0.8,2.1,2
			c0,1.5-1.4,2.1-2.8,2h-3.7V579.2z M299.6,575.4h1.3c1.1,0,1.7-0.6,1.7-1.4c0-0.9-0.7-1.4-1.8-1.4h-1.1V575.4z M299.6,579.2h1.4
			c1,0,1.9-0.4,1.9-1.6c0-1.1-0.6-1.7-2.1-1.7h-1.2V579.2z"/>
		<path fill="#FFFFFF" d="M309.4,571.9c2.3,0,4.1,1.5,4.1,3.9c0,2.3-1.7,3.9-4.1,3.9c-2.6,0-4.1-1.6-4.1-3.9
			C305.3,573.7,307,571.9,309.4,571.9z M309.4,579.3c2,0,2.9-1.6,2.9-3.5c0-1.8-1-3.4-2.9-3.4s-2.9,1.6-2.9,3.4
			C306.4,577.7,307.3,579.3,309.4,579.3z"/>
		<path fill="#FFFFFF" d="M314.4,572h3v0.5h-1v4.2c0,1.8,0.9,2.6,2.2,2.6c1.3,0,2.2-0.7,2.2-2.2v-4.5h-0.9V572h2.6v0.5h-0.9v4.5
			c0,1.6-0.9,2.7-2.9,2.7c-2.3,0-3.2-1-3.2-2.9v-4.3h-1V572z"/>
		<path fill="#FFFFFF" d="M325,579.2h1v-6.5h-2.3v0.9H323V572h7v1.6h-0.7v-0.9H327v6.5h1v0.5H325V579.2z"/>
		<path fill="#FFFFFF" d="M335,579.2h1v-6.7h-1V572h3v0.5h-1v2.9h4.6v-2.9h-1V572h3v0.5h-1v6.7h1v0.5h-3v-0.5h1v-3.3h-4.6v3.3h1v0.5
			h-3V579.2z"/>
		<path fill="#FFFFFF" d="M344.3,579.2h1.1v-6.7h-1.1V572h6.3v1.5H350v-0.9h-3.6v2.7h3v-0.9h0.6v2.3h-0.6v-0.9h-3v3.1h3.7v-1h0.6
			v1.6h-6.4V579.2z"/>
		<path fill="#FFFFFF" d="M351.9,579.2h1v-6.7h-1V572h3.3c1.3,0,2.6,0.5,2.6,2.1c0,1.1-0.8,1.8-1.8,2c0.4,0.4,0.8,1.2,1.4,2
			c0.3,0.5,0.6,1.1,1.3,1.1h0.1v0.5h-0.6c-1.3,0-1.7-1.3-2.9-3.1c-0.1-0.2-0.3-0.2-0.6-0.2h-0.7v2.9h1v0.5h-3V579.2z M353.9,575.8
			h1.1c1.1,0,1.7-0.8,1.7-1.7c0-1-0.6-1.6-1.9-1.6h-0.9V575.8z"/>
		<path fill="#FFFFFF" d="M37.1,602h1.4v-3.2l-3.7-6.3h-1.2v-0.7H38v0.7h-1.4l3,5.3l2.9-5.3h-1.4v-0.7h3.4v0.7h-1.1l-3.5,6.2v3.3
			h1.4v0.7h-4.3V602z"/>
		<path fill="#FFFFFF" d="M49.5,594.9c2.3,0,4.1,1.5,4.1,3.9c0,2.3-1.7,3.9-4.1,3.9c-2.6,0-4.1-1.6-4.1-3.9
			C45.5,596.7,47.2,594.9,49.5,594.9z M49.5,602.3c2,0,2.9-1.6,2.9-3.5c0-1.8-1-3.4-2.9-3.4s-2.9,1.6-2.9,3.4
			C46.6,600.7,47.5,602.3,49.5,602.3z"/>
		<path fill="#FFFFFF" d="M54.6,595h3v0.5h-1v4.2c0,1.8,0.9,2.6,2.2,2.6c1.3,0,2.2-0.7,2.2-2.2v-4.5h-0.9V595h2.6v0.5h-0.9v4.5
			c0,1.6-0.9,2.7-2.9,2.7c-2.3,0-3.2-1-3.2-2.9v-4.3h-1V595z"/>
		<path fill="#FFFFFF" d="M67.9,602h1.4v-9.6h-1.4v-0.7h4.3v0.7h-1.4v4.1h6.6v-4.1h-1.4v-0.7h4.3v0.7h-1.4v9.6h1.4v0.7h-4.3V602h1.4
			v-4.8h-6.6v4.8h1.4v0.7h-4.3V602z"/>
		<path fill="#FFFFFF" d="M80.9,602.2h0.7l3.1-7.3h0.4l3.2,7.3h0.8v0.5h-2.8v-0.5h0.9l-0.8-1.7H83l-0.7,1.7h0.9v0.5h-2.2V602.2z
			 M84.7,596.3l-1.5,3.7h3.2L84.7,596.3z"/>
		<path fill="#FFFFFF" d="M89.2,595.5h-0.8V595h2.9v0.5h-1l2.6,6.1l2.5-6.1h-0.9V595h2.3v0.5h-0.7l-3,7.3h-0.7L89.2,595.5z"/>
		<path fill="#FFFFFF" d="M97.2,602.2h1.1v-6.7h-1.1V595h6.3v1.5h-0.6v-0.9h-3.6v2.7h3v-0.9h0.6v2.3h-0.6v-0.9h-3v3.1h3.7v-1h0.6
			v1.6h-6.4V602.2z"/>
		<path fill="#FFFFFF" d="M112,602h1.5v-9.3h-3.3v1.3h-1v-2.3h10v2.3h-1v-1.3h-3.3v9.3h1.5v0.7H112V602z"/>
		<path fill="#FFFFFF" d="M124.2,594.9c2.3,0,4.1,1.5,4.1,3.9c0,2.3-1.7,3.9-4.1,3.9c-2.6,0-4.1-1.6-4.1-3.9
			C120.1,596.7,121.8,594.9,124.2,594.9z M124.2,602.3c2,0,2.9-1.6,2.9-3.5c0-1.8-1-3.4-2.9-3.4s-2.9,1.6-2.9,3.4
			C121.2,600.7,122.2,602.3,124.2,602.3z"/>
		<path fill="#FFFFFF" d="M133.8,602h1.4v-9.6h-1.4v-0.7h5c1.8,0,3.5,0.6,3.6,2.7c0,1.4-1.2,2.1-2.4,2.4v0c1.6,0.1,3,1.1,3,2.9
			c0,2.2-2,3-4,2.9h-5.2V602z M136.7,596.5h1.8c1.6,0,2.4-0.8,2.4-2.1c0-1.3-1-2-2.6-2h-1.6V596.5z M136.7,602h2
			c1.5,0,2.7-0.6,2.7-2.3c0-1.5-0.9-2.5-3-2.5h-1.7V602z"/>
		<path fill="#FFFFFF" d="M144.2,602.2h1.1v-6.7h-1.1V595h6.3v1.5H150v-0.9h-3.6v2.7h3v-0.9h0.6v2.3h-0.6v-0.9h-3v3.1h3.7v-1h0.6
			v1.6h-6.4V602.2z"/>
		<path fill="#FFFFFF" d="M159.3,597.2h-0.7v-0.1c0-1-1-1.7-2.4-1.7c-2,0-3.1,1.5-3.1,3.4c0,1.8,1.3,3.4,3.1,3.4
			c1.5,0,2.3-0.5,3-1.2l0.4,0.4c-0.9,1-2.1,1.3-3.4,1.3c-2.4,0-4.3-1.6-4.3-3.9c0-2.5,1.8-3.9,4.1-3.9c1.2,0,1.9,0.2,2.6,0.9V595
			h0.7V597.2z"/>
		<path fill="#FFFFFF" d="M164.8,594.9c2.3,0,4.1,1.5,4.1,3.9c0,2.3-1.7,3.9-4.1,3.9c-2.6,0-4.1-1.6-4.1-3.9
			C160.7,596.7,162.4,594.9,164.8,594.9z M164.8,602.3c2,0,2.9-1.6,2.9-3.5c0-1.8-1-3.4-2.9-3.4s-2.9,1.6-2.9,3.4
			C161.9,600.7,162.8,602.3,164.8,602.3z"/>
		<path fill="#FFFFFF" d="M169.9,602.2h0.9v-6.7h-0.9V595h1.9l3.3,6l3.3-6h1.9v0.5h-0.9v6.7h0.9v0.5h-3v-0.5h1v-6.1h0l-3.3,6h-0.4
			l-3.2-5.8h0v5.9h1v0.5h-2.5V602.2z"/>
		<path fill="#FFFFFF" d="M181,602.2h1.1v-6.7H181V595h6.3v1.5h-0.6v-0.9h-3.6v2.7h3v-0.9h0.6v2.3h-0.6v-0.9h-3v3.1h3.7v-1h0.6v1.6
			H181V602.2z"/>
		<path fill="#FFFFFF" d="M194.8,602.2h1v-6.5h-2.3v0.9h-0.7V595h7v1.6h-0.7v-0.9h-2.3v6.5h1v0.5h-3.1V602.2z"/>
		<path fill="#FFFFFF" d="M200.5,602.2h1v-6.7h-1V595h3v0.5h-1v2.9h4.6v-2.9h-1V595h3v0.5h-1v6.7h1v0.5h-3v-0.5h1v-3.3h-4.6v3.3h1
			v0.5h-3V602.2z"/>
		<path fill="#FFFFFF" d="M209.7,602.2h1.1v-6.7h-1.1V595h6.3v1.5h-0.6v-0.9h-3.6v2.7h3v-0.9h0.6v2.3h-0.6v-0.9h-3v3.1h3.7v-1h0.6
			v1.6h-6.4V602.2z"/>
		<path fill="#FFFFFF" d="M221.9,602h1.3v-9.6h-1.3v-0.7h2.7l4.8,8.6l4.7-8.6h2.8v0.7h-1.3v9.6h1.3v0.7h-4.2V602h1.4v-8.7h0
			l-4.7,8.6h-0.6l-4.6-8.3h0v8.4h1.4v0.7h-3.6V602z"/>
		<path fill="#FFFFFF" d="M242,594.9c2.3,0,4.1,1.5,4.1,3.9c0,2.3-1.7,3.9-4.1,3.9c-2.6,0-4.1-1.6-4.1-3.9
			C237.9,596.7,239.6,594.9,242,594.9z M242,602.3c2,0,2.9-1.6,2.9-3.5c0-1.8-1-3.4-2.9-3.4s-2.9,1.6-2.9,3.4
			C239.1,600.7,240,602.3,242,602.3z"/>
		<path fill="#FFFFFF" d="M252.6,597H252v-0.1c0-1-1.2-1.5-2.1-1.5c-0.8,0-1.6,0.3-1.6,1.2c0,1.9,4.7,1.3,4.7,4
			c0,1.5-1.3,2.2-2.7,2.2c-1.3,0-1.8-0.3-2.2-0.5v0.4h-0.7v-2h0.7v0.5c0,0.9,1.5,1.1,2.1,1.2c0.9,0,1.8-0.4,1.8-1.3
			c0-2.2-4.7-1.4-4.7-4.1c0-1.4,1.2-1.9,2.5-1.9c0.8,0,1.6,0.2,2.1,0.6V595h0.6V597z"/>
		<path fill="#FFFFFF" d="M255.7,602.2h1v-6.5h-2.3v0.9h-0.7V595h7v1.6h-0.7v-0.9h-2.3v6.5h1v0.5h-3.1V602.2z"/>
		<path fill="#FFFFFF" d="M273.9,594.5H273v-0.1c0-1.5-1.7-2.1-3-2.1c-1.2,0-2.2,0.5-2.2,1.7c0,2.7,6.7,1.8,6.7,5.7
			c0,2.1-1.9,3.1-3.9,3.1c-1.8,0-2.6-0.4-3.1-0.7v0.6h-1v-2.9h1v0.7c0,1.3,2.1,1.6,3,1.6c1.3,0,2.6-0.5,2.6-1.8c0-3.2-6.7-2-6.7-5.9
			c0-1.9,1.7-2.8,3.6-2.8c1.2,0,2.3,0.2,3,0.9v-0.8h0.9V594.5z"/>
		<path fill="#FFFFFF" d="M275.5,602.2h1.1v-6.7h-1.1V595h6.3v1.5h-0.6v-0.9h-3.6v2.7h3v-0.9h0.6v2.3h-0.6v-0.9h-3v3.1h3.7v-1h0.6
			v1.6h-6.4V602.2z"/>
		<path fill="#FFFFFF" d="M283.1,602.2h1v-6.7h-1V595h3v0.5h-1v6.5h3.3v-1.1h0.7v1.8h-6.1V602.2z"/>
		<path fill="#FFFFFF" d="M289.9,602.2h1v-6.7h-1V595h6.1v1.5h-0.6v-0.9h-3.4v2.7h2.9v-0.9h0.6v2.3h-0.6v-0.9h-2.9v3.3h1v0.5h-3
			V602.2z"/>
		<path fill="#FFFFFF" d="M296.8,602.2h1v-6.7h-1V595h3v0.5h-1v6.5h3.3v-1.1h0.7v1.8h-6.1V602.2z"/>
		<path fill="#FFFFFF" d="M303.5,602.2h1.1v-6.7h-1.1V595h6.3v1.5h-0.6v-0.9h-3.6v2.7h3v-0.9h0.6v2.3h-0.6v-0.9h-3v3.1h3.7v-1h0.6
			v1.6h-6.4V602.2z"/>
		<path fill="#FFFFFF" d="M316.6,597H316v-0.1c0-1-1.2-1.5-2.1-1.5c-0.8,0-1.6,0.3-1.6,1.2c0,1.9,4.7,1.3,4.7,4
			c0,1.5-1.3,2.2-2.7,2.2c-1.3,0-1.8-0.3-2.2-0.5v0.4h-0.7v-2h0.7v0.5c0,0.9,1.5,1.1,2.1,1.2c0.9,0,1.8-0.4,1.8-1.3
			c0-2.2-4.7-1.4-4.7-4.1c0-1.4,1.2-1.9,2.5-1.9c0.8,0,1.6,0.2,2.1,0.6V595h0.6V597z"/>
		<path fill="#FFFFFF" d="M323.4,597h-0.6v-0.1c0-1-1.2-1.5-2.1-1.5c-0.8,0-1.6,0.3-1.6,1.2c0,1.9,4.7,1.3,4.7,4
			c0,1.5-1.3,2.2-2.7,2.2c-1.3,0-1.8-0.3-2.2-0.5v0.4h-0.7v-2h0.7v0.5c0,0.9,1.5,1.1,2.1,1.2c0.9,0,1.8-0.4,1.8-1.3
			c0-2.2-4.7-1.4-4.7-4.1c0-1.4,1.2-1.9,2.5-1.9c0.8,0,1.6,0.2,2.1,0.6V595h0.6V597z"/>
		<path fill="#FFFFFF" d="M329.4,602h1.3v-9.6h-1.3v-0.7h2.7l4.8,8.6l4.7-8.6h2.8v0.7H343v9.6h1.3v0.7h-4.2V602h1.4v-8.7h0l-4.7,8.6
			h-0.6l-4.6-8.3h0v8.4h1.4v0.7h-3.6V602z"/>
		<path fill="#FFFFFF" d="M345,602.2h0.7l3.1-7.3h0.4l3.2,7.3h0.8v0.5h-2.8v-0.5h0.9l-0.8-1.7h-3.6l-0.7,1.7h0.9v0.5H345V602.2z
			 M348.9,596.3l-1.5,3.7h3.2L348.9,596.3z"/>
		<path fill="#FFFFFF" d="M353.9,602.2h1v-6.7h-1V595h1.8l5.3,5.8v-5.4h-1V595h2.6v0.5h-1v7.3h-0.3l-5.9-6.5v5.9h1v0.5h-2.6V602.2z"
			/>
		<path fill="#FFFFFF" d="M374,591.6c3.2,0,5.8,2.1,5.8,5.6c0,3.3-2.4,5.6-5.8,5.6c-3.7,0-5.8-2.4-5.8-5.6
			C368.2,594.1,370.6,591.6,374,591.6z M374,602.1c2.9,0,4.2-2.3,4.2-5c0-2.5-1.4-4.8-4.2-4.8c-2.8,0-4.2,2.3-4.2,4.8
			C369.8,599.8,371.1,602.1,374,602.1z"/>
		<path fill="#FFFFFF" d="M381.1,595h3v0.5h-1v4.2c0,1.8,0.9,2.6,2.2,2.6c1.3,0,2.2-0.7,2.2-2.2v-4.5h-0.9V595h2.6v0.5h-0.9v4.5
			c0,1.6-0.9,2.7-2.9,2.7c-2.3,0-3.2-1-3.2-2.9v-4.3h-1V595z"/>
		<path fill="#FFFFFF" d="M391.6,602.2h1v-6.5h-2.3v0.9h-0.7V595h7v1.6H396v-0.9h-2.3v6.5h1v0.5h-3.1V602.2z"/>
		<path fill="#FFFFFF" d="M404.5,602h1.5v-9.3h-3.3v1.3h-1v-2.3h10v2.3h-1v-1.3h-3.3v9.3h1.5v0.7h-4.4V602z"/>
		<path fill="#FFFFFF" d="M412.4,602.2h1v-6.7h-1V595h3v0.5h-1v2.9h4.6v-2.9h-1V595h3v0.5h-1v6.7h1v0.5h-3v-0.5h1v-3.3h-4.6v3.3h1
			v0.5h-3V602.2z"/>
		<path fill="#FFFFFF" d="M421.6,602.2h1.1v-6.7h-1.1V595h6.3v1.5h-0.6v-0.9h-3.6v2.7h3v-0.9h0.6v2.3h-0.6v-0.9h-3v3.1h3.7v-1h0.6
			v1.6h-6.4V602.2z"/>
		<path fill="#FFFFFF" d="M429.2,602.2h1v-6.7h-1V595h3.3c1.3,0,2.6,0.5,2.6,2.1c0,1.1-0.8,1.8-1.8,2c0.4,0.4,0.8,1.2,1.4,2
			c0.3,0.5,0.6,1.1,1.3,1.1h0.1v0.5h-0.6c-1.3,0-1.7-1.3-2.9-3.1c-0.1-0.2-0.3-0.2-0.6-0.2h-0.7v2.9h1v0.5h-3V602.2z M431.2,598.8
			h1.1c1.1,0,1.7-0.8,1.7-1.7c0-1-0.6-1.6-1.9-1.6h-0.9V598.8z"/>
		<path fill="#FFFFFF" d="M436.6,602.2h1.1v-6.7h-1.1V595h6.3v1.5h-0.6v-0.9h-3.6v2.7h3v-0.9h0.6v2.3h-0.6v-0.9h-3v3.1h3.7v-1h0.6
			v1.6h-6.4V602.2z"/>
	</g>
</g>
<path id="couple" fill="#754141" d="M407.4,500.9c0,0-2.6-11.2-0.3-14.1c0,0,6-15.1-1.6-21.6c0,0-11.2-2.3-16.4,1.8
	c0,0-7.8,0.5-12.3-1.8c0,0-3.7-1-9.9,6.5c0,0-5.7,3.4-7.6,2.9c0,0-8.1-2.1-9.9,1.3c0,0-8.6-0.3-11,1.6c0,0-23.5,0.3-37.8,4.2
	c0,0-15.4,3.7-16.7,5.7c0,0,1.3-56-2.9-59.4c0,0,24.8-4.7,31.8-21.6c0,0,3.6-1.3,4.4-8.3c0,0,1.3-6.3,1.3-19.3c0,0,1-3.1,3.1-4.4
	c0,0,48.2-29.2,48.2-30.8l3.1-2.3c0,0,0.3-9.4-0.8-19.3l0.3-5.7l-1.8-0.5c0,0-2.3-17.7-10.2-34.7c0,0-0.5-4.4,1.6-9.1
	c0,0,1-9.4-8.6-19.3c0,0-2.1-9.1-9.9-17.5c0,0-12.5-10.4-34.1-22.7c0,0-7.3-14.1-9.1-15.1c0,0,6.8-5.7,7.8-8.6c0,0,5-5.7,7.8-7.3
	c0,0,7-6.3,6.5-17.2c0,0,2.8-2.8,3.3-1.3c-0.4-2.5-2.1-12.4-4.9-13.5c0,0,0.8-4.4-2.6-6.5c0,0,0.8-6.8-6.5-7.8c0,0-1.6-8.6-9.1-4.7
	c0,0,1-4.4-0.5-6.5c0,0-0.8,2.1-3.4,3.1c0,0-4.4-5.5-5.7-5.5c0,0,1.3,6.8-0.3,6.8c0,0-15.4-9.4-24-6.8c0,0-1.3,9.9,0.3,14.9
	c0,0-6.5,4.2-7.8,7.8c0,0-4.4,4.2-4.4,5c0-0.3,0-0.8,0-0.8s-3.3,1.4,0.3,4.2c0,0,0.4,2.7-0.3,3.3c0,0-4.8,5.3-9.8,8.7
	c0,0-1.2,2.7,3.6,5.2c0,0,0.1,2.5-0.5,2.8c0,0-0.9,1.7,1.3,2.7c0,0,0.8,2.3-1.7,2.5c0,0-0.7,0-0.7,5.3c0,0-6.7,4.3-0.8,9
	c0,0,11.9,4.9,13.8,7.8c0,0,1.3,2.1-2.9,4.3c0,0-9.8,8.2-11.5,12.7c0,0-23.4,2-27.5,10.6c0,0-0.8,2.8-0.9,5.1c0,0-8,4.9-8,7
	c0,0-2.7,3.3-2.1,9.2c0,0-3.6-0.1-3.7,4.4c0,0-8.4,7.5-8.2,9.2c0,0-6.4,3.2-8.8,7.9c0,0-4.7-6.1-10.4-28.9c0,0-0.5-14.4-1.9-18.8
	c0,0,0.7-14.6,0-16.3c0,0-8.1-5.7-6.5-14.6c0,0-0.9-3.6-4-0.4c0,0-1.2,1.3-1.6,2.9c0,0-19-6-29.1-5.2c0,0-5.9,0.1-15.1,5.9
	c0,0,0.6-4.1-2.2-9c0,0,7-10.1,4.7-17.4c0,0-7.2-16.4-16.6-28.3c0,0,0.5-14.8-3.7-17.8c0,0-3.7-3-7.5-4.3c0,0-6.6-4.1-6.6-5.1
	c0,0-0.7-1.5,0.3-2.6c0,0,6.8-11.3,8.3-11.4c0,0,1.1-0.2,2.7,1.3c0,0,2.6,2.4,6.2,2.3c0,0,3.7,1.3,5.9-1.8c0,0,0.8-2.6,0.1-4.4
	c0,0,1.7-1.8,2.3-1.8c0,0,0.3-2.2-0.4-2.2c0,0,0.6-1.4,1.1-1.4c0,0,2.3,0.1,2.4-0.6c0,0,0.3-1-0.2-1.5c0,0,1.2-1.7,2.5-0.8
	c0,0,3.3,1,4.5-0.8c1.2-1.8-1.6-9.4-0.8-13.2c0,0,2.5-1.8,4.5-7c0,0,2.6-4.5,2.4-6.8c0,0-0.3-4.4,0.3-5.3c0,0,6.9-2.4,2-8.2
	c0,0-5.8-20.3-37.9-20.8c0,0-26.8,0.6-37.2,38.3c0,0-3.9,17.1-8.9,21c0,0-8.9,14.5-4.5,35.5c0,0-2,23.6-8.9,32c0,0-5,19.9,12.3,23.1
	h1.7c0,0,1.7,8,6.9,19c0,0,0.8,27.8,4.4,37.3l3.2,4.4l-4.5,40.9c0,0-6.3,33.5-5,54.1c0,0-1.8,27.4-3.4,31.8c0,0,4.7,3.1,11.2,3.7
	c0,0-0.3,10.4,1.3,11.5c0,0,6.8,1.8,9.4,1.6c0,0,1.6,1.6,2.3,2.6c0,0-0.8,12.8,0.3,14.6c0,0-13.3,42.8-2.3,70.4
	c0,0,5.7,41.2,0.5,58.9c0,0-1,5.5,21.6,2.1c0,0,12.5-0.9,16.4,1.1l8.3,6.2c0,0,13.8,2,22.7-0.2c3.8-1,4.4-6.1,0.9-7.9
	c-3-1.5-7.7-3.4-15-5.7l-1.3-1.3c0,0,1-16.4,0.8-22.2c0,0,7.3-30.2,13.5-35.2c0,0,17.5-26.8,23.7-45.9c0,0,4.7-10.9,8.6-15.1
	c0,0,13.3-18,13.3-20.1c0,0,2.9-8.9,0-12.3l-17.7-34.1c0,0-7.3-15.9-11.5-20.1c0,0-19-24.8-28.9-73c0,0,31,26.6,35.4,30.8
	c0,0,2.1,14.1,4.7,19c0,0,0.8,8.9,2.9,12.5c0,0,3.4,5.2,2.9,7.3c0,0,3.9,1.8,8.9-0.3c0,0,6.3,1,8.9-1.8c0,0,7-4.7,8.3-4.7
	c0,0,3.8-2.6,4.4-4.2l2.9-2.6c0,0,2.3,2.6,9.4-5c0,0-6,77.4-3.9,80.3c0,0-16.7,3.7-18.8,11c0,0-2.9,1.3-3.7,10.4
	c0,0-3.9,16.4-1,22.2c0,0,2.1,9.4,4.2,11.5c0,0,2.9,11,2.1,13.3c0,0-0.3,24.8,2.3,33.1c0,0-0.5,23.2,2.9,28.2c0,0-1,25.3,0.3,25.5
	c0,0,1.4,3.7,3.3,3.7c0,0-9,5.5-12.7,6.5c0,0-7.8,3.7-7.8,5.2c-1.7,0.8-2.5,2.4-2.5,4c0,2.1,1.4,4.2,4,4.4c7.9,0.7,20.3,1.2,37.9,0
	c0,0,6.8-3.1,12.8-3.1c0,0,10.9,1,10.9-4.2c0,0,1.8-9.4,0-11.5c0,0,0-2.1,3.9-3.4c0,0,14.6,8.1,57.6-2.9l68.8-18.2
	c0,0,2.3-1.3,4.7-6l4.2-0.3c0,0,6.5,12.8,8.6,13.6c0,0-1,6-3.7,8.1c0,0-3.4,1.1-3.9,1.9c0.2,0.9,1.3,2.3,5.7,1.7
	c0,0,11,2.3,17.2-5.5C410.5,523.3,410.5,505.1,407.4,500.9z M143.5,370.8c5.8,5.1,4.4,13.9,4.4,13.9c-1.9,4.4-7.8,11.2-7.8,11.2
	c-16.5,26.8-18.4,40-18.4,40c-1.6,10.5-4.8,21-4.8,21c-8.2,22.7-18,25.4-18,25.4c1.1-15.8,3-56.5,3-56.5c0.5-4.1-0.2-13.6-0.2-13.6
	c0.2-4.4,1.2-7.1,1.2-7.1c2.4-1,2.4-6.8,2.4-6.8c2.2-0.5,2.4-6.1,2.4-6.1c0-2.9,13.9-42.8,13.9-42.8
	C123,349.9,143.5,370.8,143.5,370.8z M163,252.5c0,0-0.3,0.9-1.8-0.7c0,0-33.9-41-36.5-41.8c0,0,8.3-7.8,11.9-8.8c0,0,1-0.7,3.1,0.9
	c0,0,11.3,3.3,10.1,4c-1.2,0.7-2.9,1.2-2.6,3c0,0-0.3,3.1,0,3.3c0,0-4.7,1.9-0.3,7.2c0,0-0.8,4.4,0.1,5.7c0,0,4.6,6.4,12.6,9
	C159.5,234.3,163.6,247.9,163,252.5z"/>
<g>
	<path fill="#FFFFFF" d="M284.3,81.8h1.7V70.4h-1.7v-0.8h5.1v0.8h-1.7v11h5.6v-1.9h1.3v3.1h-10.3V81.8z"/>
	<path fill="#FFFFFF" d="M295.6,82h0.9l3.7-8.6h0.5l3.8,8.6h1v0.6h-3.3V82h1.1l-0.9-2H298l-0.9,2h1.1v0.6h-2.6V82z M300.1,74.9
		l-1.8,4.4h3.8L300.1,74.9z"/>
	<path fill="#FFFFFF" d="M306.1,82h1.2v-8h-1.2v-0.6h3.8c2.9,0,5.2,1.6,5.2,4.5c0,3.2-2.4,4.5-5.5,4.5h-3.5V82z M308.5,82h1.1
		c2.7,0,4.2-1.7,4.2-4c0-2.9-1.9-4-3.9-4h-1.5V82z"/>
	<path fill="#FFFFFF" d="M316.5,82h1.2v-8h-1.2v-0.6h3.6V74h-1.2v8h1.2v0.6h-3.6V82z"/>
	<path fill="#FFFFFF" d="M320.8,82h1.3v-8h-1.3v-0.6h7.5v1.8h-0.7v-1h-4.3v3.2h3.6v-1.1h0.7v2.7h-0.7V78h-3.6v3.7h4.4v-1.1h0.7v1.9
		h-7.7V82z"/>
	<path fill="#FFFFFF" d="M336.3,75.8h-0.7v-0.1c0-1.2-1.4-1.8-2.5-1.8c-1,0-1.8,0.4-1.8,1.4c0,2.2,5.5,1.5,5.5,4.8
		c0,1.8-1.5,2.6-3.2,2.6c-1.5,0-2.2-0.3-2.6-0.6v0.5h-0.8v-2.4h0.8v0.6c0,1.1,1.8,1.4,2.5,1.4c1.1,0,2.2-0.4,2.2-1.5
		c0-2.6-5.5-1.6-5.5-4.9c0-1.6,1.4-2.3,3-2.3c1,0,1.9,0.2,2.5,0.8v-0.7h0.7V75.8z"/>
	<path fill="#FFFFFF" d="M343,82h0.9l3.7-8.6h0.5l3.8,8.6h1v0.6h-3.3V82h1.1l-0.9-2h-4.3l-0.9,2h1.1v0.6H343V82z M347.5,74.9
		l-1.8,4.4h3.8L347.5,74.9z"/>
	<path fill="#FFFFFF" d="M353.5,82h1.2v-8h-1.2v-0.6h2.2l6.3,6.9V74h-1.2v-0.6h3.1V74h-1.2v8.6h-0.3l-7-7.7v7h1.2v0.6h-3.1V82z"/>
	<path fill="#FFFFFF" d="M364.6,82h1.2v-8h-1.2v-0.6h3.8c2.9,0,5.2,1.6,5.2,4.5c0,3.2-2.4,4.5-5.5,4.5h-3.5V82z M367,82h1.1
		c2.7,0,4.2-1.7,4.2-4c0-2.9-1.9-4-3.9-4H367V82z"/>
	<path fill="#FFFFFF" d="M393.6,73.1h-1V73c0-1.7-2.3-2.8-4.4-2.8c-3.5,0-5.5,2.7-5.5,5.8c0,3.1,2.2,5.8,5.5,5.8
		c2,0,3.4-0.9,4.2-1.8v-2.6h-2.3v-0.9h4v6h-0.6c-0.2-0.5-0.4-0.9-0.7-1.4c-1.4,1.3-3.2,1.5-4.9,1.5c-4,0-7.1-2.6-7.1-6.6
		c0-4.2,3.1-6.6,7-6.6c1.4,0,3.3,0.3,4.7,1.5v-1.3h1V73.1z"/>
	<path fill="#FFFFFF" d="M396,82h1.3v-8H396v-0.6h7.5v1.8h-0.7v-1h-4.3v3.2h3.6v-1.1h0.7v2.7H402V78h-3.6v3.7h4.4v-1.1h0.7v1.9H396
		V82z"/>
	<path fill="#FFFFFF" d="M405,82h1.2v-8H405v-0.6h2.2l6.3,6.9V74h-1.2v-0.6h3.1V74h-1.2v8.6h-0.3l-7-7.7v7h1.2v0.6H405V82z"/>
	<path fill="#FFFFFF" d="M418.2,82h1.2v-7.7h-2.8v1.1h-0.8v-1.9h8.3v1.9h-0.8v-1.1h-2.8V82h1.2v0.6h-3.7V82z"/>
	<path fill="#FFFFFF" d="M431.5,75.8h-0.7v-0.1c0-1.2-1.4-1.8-2.5-1.8c-1,0-1.8,0.4-1.8,1.4c0,2.2,5.5,1.5,5.5,4.8
		c0,1.8-1.5,2.6-3.2,2.6c-1.5,0-2.2-0.3-2.6-0.6v0.5h-0.8v-2.4h0.8v0.6c0,1.1,1.8,1.4,2.5,1.4c1.1,0,2.2-0.4,2.2-1.5
		c0-2.6-5.5-1.6-5.5-4.9c0-1.6,1.4-2.3,3-2.3c1,0,1.9,0.2,2.5,0.8v-0.7h0.7V75.8z"/>
	<path fill="#FFFFFF" d="M435.3,74.3c0.6,0,0.9,0.5,0.9,1.2s-0.3,1.2-0.9,1.2s-0.9-0.5-0.9-1.2S434.6,74.3,435.3,74.3z M435.3,80.4
		c0.6,0,0.9,0.5,0.9,1.2s-0.3,1.2-0.9,1.2s-0.9-0.5-0.9-1.2S434.6,80.4,435.3,80.4z"/>
	<path fill="#FFFFFF" d="M268.1,94.4L268.1,94.4l-3.1,10.1h-1.2L260,92.2h-1.3v-0.8h4.8v0.8h-1.7l2.9,9.9h0l3.2-10.7h0.9l3.2,10.7h0
		l2.8-9.9h-1.6v-0.8h3.9v0.8H276l-3.7,12.3h-1.2L268.1,94.4z"/>
	<path fill="#FFFFFF" d="M277.9,103.8h1.2v-8h-1.2v-0.6h3.6v0.6h-1.2v3.4h5.5v-3.4h-1.2v-0.6h3.6v0.6H287v8h1.2v0.6h-3.6v-0.6h1.2
		v-4h-5.5v4h1.2v0.6h-3.6V103.8z"/>
	<path fill="#FFFFFF" d="M294.1,95.2c2.7,0,4.9,1.7,4.9,4.6c0,2.8-2,4.6-4.9,4.6c-3.1,0-4.9-2-4.9-4.6
		C289.3,97.3,291.3,95.2,294.1,95.2z M294.1,103.9c2.4,0,3.5-1.9,3.5-4.2c0-2.1-1.2-4-3.5-4s-3.5,1.9-3.5,4
		C290.6,102,291.7,103.9,294.1,103.9z"/>
	<path fill="#FFFFFF" d="M305.6,103.6h1.7V92.2h-1.7v-0.8h5.1v0.8H309v11.4h1.7v0.8h-5.1V103.6z"/>
	<path fill="#FFFFFF" d="M318.3,97.6h-0.7v-0.1c0-1.2-1.4-1.8-2.5-1.8c-1,0-1.8,0.4-1.8,1.4c0,2.2,5.5,1.5,5.5,4.8
		c0,1.8-1.5,2.6-3.2,2.6c-1.5,0-2.2-0.3-2.6-0.6v0.5h-0.8V102h0.8v0.6c0,1.1,1.8,1.4,2.5,1.4c1.1,0,2.2-0.4,2.2-1.5
		c0-2.6-5.5-1.6-5.5-4.9c0-1.6,1.4-2.3,3-2.3c1,0,1.9,0.2,2.5,0.8v-0.7h0.7V97.6z"/>
	<path fill="#FFFFFF" d="M326.4,92.2H325v-0.8h5v0.8h-1.7l4.4,10.4l4.3-10.4h-1.6v-0.8h3.9v0.8H338l-5.2,12.3h-1.1L326.4,92.2z"/>
	<path fill="#FFFFFF" d="M339.7,103.8h0.9l3.7-8.6h0.5l3.8,8.6h1v0.6h-3.3v-0.6h1.1l-0.9-2h-4.3l-0.9,2h1.1v0.6h-2.6V103.8z
		 M344.3,96.8l-1.8,4.4h3.8L344.3,96.8z"/>
	<path fill="#FFFFFF" d="M350.3,103.8h1.2v-8h-1.2v-0.6h3.6v0.6h-1.2v7.7h3.9v-1.4h0.9v2.2h-7.2V103.8z"/>
	<path fill="#FFFFFF" d="M358.3,103.8h1.3v-8h-1.3v-0.6h7.5v1.8h-0.7v-1h-4.3v3.2h3.6v-1.1h0.7v2.7h-0.7v-1.1h-3.6v3.7h4.4v-1.1h0.7
		v1.9h-7.7V103.8z"/>
	<path fill="#FFFFFF" d="M367.3,103.8h1.2v-8h-1.2v-0.6h2.2l6.3,6.9v-6.4h-1.2v-0.6h3.1v0.6h-1.2v8.6h-0.3l-7-7.7v7h1.2v0.6h-3.1
		V103.8z"/>
	<path fill="#FFFFFF" d="M380.5,103.8h1.2v-7.7H379v1.1h-0.8v-1.9h8.3v1.9h-0.8v-1.1H383v7.7h1.2v0.6h-3.7V103.8z"/>
	<path fill="#FFFFFF" d="M387.2,103.8h1.2v-8h-1.2v-0.6h3.6v0.6h-1.2v8h1.2v0.6h-3.6V103.8z"/>
	<path fill="#FFFFFF" d="M391.7,103.8h1.2v-8h-1.2v-0.6h2.2l6.3,6.9v-6.4H399v-0.6h3.1v0.6h-1.2v8.6h-0.3l-7-7.7v7h1.2v0.6h-3.1
		V103.8z"/>
	<path fill="#FFFFFF" d="M402.6,103.8h1.3v-8h-1.3v-0.6h7.5v1.8h-0.7v-1h-4.3v3.2h3.6v-1.1h0.7v2.7h-0.7v-1.1h-3.6v3.7h4.4v-1.1h0.7
		v1.9h-7.7V103.8z"/>
	<path fill="#FFFFFF" d="M418.2,97.6h-0.7v-0.1c0-1.2-1.4-1.8-2.5-1.8c-1,0-1.8,0.4-1.8,1.4c0,2.2,5.5,1.5,5.5,4.8
		c0,1.8-1.5,2.6-3.2,2.6c-1.5,0-2.2-0.3-2.6-0.6v0.5H412V102h0.8v0.6c0,1.1,1.8,1.4,2.5,1.4c1.1,0,2.2-0.4,2.2-1.5
		c0-2.6-5.5-1.6-5.5-4.9c0-1.6,1.4-2.3,3-2.3c1,0,1.9,0.2,2.5,0.8v-0.7h0.7V97.6z"/>
	<path fill="#FFFFFF" d="M425.2,103.6h1.7V92.2h-1.7v-0.8h5.5c4.2,0,7.5,2.3,7.5,6.5c0,4.5-3.4,6.5-7.9,6.5h-5V103.6z M428.6,103.6
		h1.6c3.8,0,6-2.5,6-5.7c0-4.2-2.8-5.7-5.5-5.7h-2.1V103.6z"/>
	<path fill="#FFFFFF" d="M439.6,103.8h0.9l3.7-8.6h0.5l3.8,8.6h1v0.6h-3.3v-0.6h1.1l-0.9-2h-4.3l-0.9,2h1.1v0.6h-2.6V103.8z
		 M444.2,96.8l-1.8,4.4h3.8L444.2,96.8z"/>
	<path fill="#FFFFFF" d="M451.5,103.8h1.2v-2.7l-3.1-5.3h-1v-0.6h3.6v0.6H451l2.5,4.4l2.4-4.4h-1.1v-0.6h2.8v0.6h-0.9l-2.9,5.2v2.8
		h1.2v0.6h-3.6V103.8z"/>
	<path fill="#FFFFFF" d="M312.3,125.4h1.7V114h-1.7v-0.8h5.6c2.3,0,4.4,0.9,4.4,3.6c0,1.8-1.3,3-3,3.3c0.7,0.6,1.4,2.1,2.3,3.4
		c0.6,0.9,1,1.8,2.2,1.8h0.2v0.8h-1.1c-2.2,0-2.8-2.3-5-5.3c-0.2-0.3-0.5-0.4-1-0.4h-1.1v4.9h1.7v0.8h-5.1V125.4z M315.7,119.7h1.8
		c1.9,0,2.9-1.3,2.9-2.9c0-1.6-1-2.8-3.2-2.8h-1.5V119.7z"/>
	<path fill="#FFFFFF" d="M324.6,125.6h1.3v-8h-1.3v-0.6h7.5v1.8h-0.7v-1h-4.3v3.2h3.6V120h0.7v2.7h-0.7v-1.1h-3.6v3.7h4.4v-1.1h0.7
		v1.9h-7.7V125.6z"/>
	<path fill="#FFFFFF" d="M333.4,125.6h0.9l3.7-8.6h0.5l3.8,8.6h1v0.6H340v-0.6h1.1l-0.9-2h-4.3l-0.9,2h1.1v0.6h-2.6V125.6z
		 M338,118.6l-1.8,4.4h3.8L338,118.6z"/>
	<path fill="#FFFFFF" d="M344,125.6h1.2v-8H344v-0.6h3.6v0.6h-1.2v7.7h3.9V124h0.9v2.2H344V125.6z"/>
	<path fill="#FFFFFF" d="M352.1,125.6h1.2v-8h-1.2v-0.6h3.6v0.6h-1.2v7.7h3.9V124h0.9v2.2h-7.2V125.6z"/>
	<path fill="#FFFFFF" d="M361.8,125.6h1.2v-2.7l-3.1-5.3h-1v-0.6h3.6v0.6h-1.2l2.5,4.4l2.4-4.4h-1.1v-0.6h2.8v0.6H367l-2.9,5.2v2.8
		h1.2v0.6h-3.6V125.6z"/>
	<path fill="#FFFFFF" d="M373.9,125.6h1.2v-8h-1.2v-0.6h7.2v1.8h-0.7v-1h-4.1v3.2h3.4V120h0.7v2.7h-0.7v-1.1h-3.4v4h1.2v0.6h-3.6
		V125.6z"/>
	<path fill="#FFFFFF" d="M387.1,117c2.7,0,4.9,1.7,4.9,4.6c0,2.8-2,4.6-4.9,4.6c-3.1,0-4.9-2-4.9-4.6
		C382.3,119.1,384.3,117,387.1,117z M387.1,125.7c2.4,0,3.5-1.9,3.5-4.2c0-2.1-1.2-4-3.5-4s-3.5,1.9-3.5,4
		C383.6,123.8,384.7,125.7,387.1,125.7z"/>
	<path fill="#FFFFFF" d="M393.1,125.6h1.2v-8h-1.2v-0.6h3.9c1.6,0,3.1,0.6,3.1,2.5c0,1.3-0.9,2.1-2.1,2.3c0.5,0.4,1,1.5,1.6,2.4
		c0.4,0.6,0.7,1.3,1.5,1.3h0.1v0.6h-0.8c-1.5,0-2-1.6-3.5-3.7c-0.1-0.2-0.4-0.3-0.7-0.3h-0.8v3.4h1.2v0.6h-3.6V125.6z M395.5,121.6
		h1.3c1.3,0,2-0.9,2-2c0-1.1-0.7-1.9-2.3-1.9h-1.1V121.6z"/>
	<path fill="#FFFFFF" d="M408,122c-0.4,0.7-1.2,1.2-2.2,1.2c-1.2,0-2.2-0.8-2.2-2.1c0-2.5,3.7-3.9,3.7-5.8c0-1-0.6-1.4-1.5-1.4
		c-1.1,0-1.6,0.7-1.6,1.7h-1.5c0-1.8,1.3-2.5,3.1-2.5c2,0,3,1,3,2.6c0,2.8-4,4.1-4,5.8c0,0.6,0.4,0.9,0.9,0.9c0.6,0,0.9-0.6,1.2-1
		L408,122z M405.6,124c0.6,0,0.9,0.5,0.9,1.2s-0.3,1.2-0.9,1.2s-0.9-0.5-0.9-1.2S404.9,124,405.6,124z"/>
</g>
<g>
	<path fill="#FFFFFF" d="M248.5,302.5c-0.1-1.4-1.1-2.4-2.5-2.4c-3.5,0-4.1,4-4.1,6.7v1.1h0.1c0.9-1.7,2.2-2.5,4.2-2.5
		c3.2,0,5.3,2.5,5.3,5.4c0,4-2.3,6.3-5.9,6.3c-5,0-6.1-4.9-6.1-8.8c0-4.2,1.8-9.1,6.8-9.1c2,0,4.3,1.1,4.3,3.3H248.5z M245.4,316.2
		c2.4,0,3.4-2.7,3.4-5.2c0-2.2-0.8-4.3-3.3-4.3c-2.6,0-3.6,2.5-3.6,4.7C242,313.5,242.7,316.2,245.4,316.2z"/>
	<path fill="#FFFFFF" d="M263,302.5c-0.1-1.4-1.1-2.4-2.5-2.4c-3.5,0-4.1,4-4.1,6.7v1.1h0.1c0.9-1.7,2.2-2.5,4.2-2.5
		c3.2,0,5.3,2.5,5.3,5.4c0,4-2.3,6.3-5.9,6.3c-5,0-6.1-4.9-6.1-8.8c0-4.2,1.8-9.1,6.8-9.1c2,0,4.3,1.1,4.3,3.3H263z M259.9,316.2
		c2.4,0,3.4-2.7,3.4-5.2c0-2.2-0.8-4.3-3.3-4.3c-2.6,0-3.6,2.5-3.6,4.7C256.5,313.5,257.1,316.2,259.9,316.2z"/>
	<path fill="#FFFFFF" d="M268,312.2h1.6v1c0,1.5,2,2.8,4,3v-7.3c-2.6-1-5.7-1.8-5.7-5.3c0-3.2,2.9-4.4,5.7-4.4v-1.3h1.2v1.3
		c1.5,0.2,2.8,0.5,3.8,1.4v-1.4h1.4v4.7h-1.4v-0.2c0-2.2-1.9-3.3-3.8-3.6v6.4c2.9,1,6.1,1.9,6.1,5.6c0,3.3-2.9,4.9-6.1,5v1.7h-1.2
		v-1.7c-1.5-0.1-3-0.6-4-1.3v1.1H268V312.2z M273.6,300.1c-1.8,0-3.5,0.7-3.5,2.8c0,1.6,1.5,2.5,3.5,3.1V300.1z M274.8,316.2
		c2-0.1,3.9-1.1,3.9-3.2c0-2.2-1.8-3-3.9-3.7V316.2z"/>
	<path fill="#FFFFFF" d="M289.6,299.2h7v1.1h-2.3v9.7c0,4.3,2.2,5.9,5.1,5.9c3,0,5.1-1.7,5.1-5.1v-10.5h-2.2v-1.1h5.9v1.1h-2.2v10.5
		c0,3.8-2.2,6.3-6.7,6.3c-5.3,0-7.4-2.4-7.4-6.8v-10h-2.3V299.2z"/>
	<path fill="#FFFFFF" d="M309.8,315.8h2.3v-15.5h-2.3v-1.1h7v1.1h-2.3v8.7l8.7-8.7h-2v-1.1h6.1v1.1h-2.2l-6.4,6.3l7,9.2h1.7v1.1
		h-6.9v-1.1h2.2l-5.7-7.5l-2.5,2.5v5h2.3v1.1h-7V315.8z"/>
</g>
<g>
	<path fill="#FFFFFF" d="M235.3,266.3l-3,2.3l-0.8-0.9l4.6-4.1h1.4v16.6h3v1.1h-8.1v-1.1h2.9V266.3z"/>
	<path fill="#FFFFFF" d="M250.5,281.6c-4.1,0-6-4.2-6-9c0-4.8,1.9-9,6-9s6,4.2,6,9C256.5,277.4,254.6,281.6,250.5,281.6z
		 M250.5,264.6c-3.4,0-3.5,5.9-3.5,8c0,2.1,0.1,8,3.5,8s3.5-5.9,3.5-8C254,270.5,253.9,264.6,250.5,264.6z"/>
	<path fill="#FFFFFF" d="M262.8,271.9L262.8,271.9c-2.2-0.5-3.2-2.2-3.2-4c0-2.2,1.7-4.3,5.3-4.3c3.6,0,5.3,2.1,5.3,4.3
		c0,1.8-1.4,3.6-3.2,3.9v0.1c2.3,0.6,3.7,2.5,3.7,4.9c0,2.7-2.3,4.8-5.9,4.8c-3.7,0-5.9-2.2-5.9-4.8
		C259.1,274.4,260.4,272.4,262.8,271.9z M265,280.5c2.4,0,3.4-1.6,3.4-4c0-1.8-0.9-3.8-3.4-3.8s-3.4,2.1-3.4,3.8
		C261.6,278.9,262.6,280.5,265,280.5z M265,271.4c2,0,3.1-1.4,3.1-3.4c0-2-1.2-3.4-3.1-3.5c-2.2,0-3.1,1.4-3.1,3.5
		C261.8,270,263,271.4,265,271.4z"/>
	<path fill="#FFFFFF" d="M273.2,276.7h1.6v1c0,1.5,2,2.8,4,3v-7.3c-2.6-1-5.7-1.8-5.7-5.3c0-3.2,2.9-4.4,5.7-4.4v-1.3h1.2v1.3
		c1.5,0.2,2.8,0.5,3.8,1.4v-1.4h1.4v4.7h-1.4v-0.2c0-2.2-2-3.3-3.8-3.6v6.4c2.9,1,6.1,1.9,6.1,5.6c0,3.3-2.9,4.9-6.1,5v1.7h-1.2
		v-1.7c-1.5-0.1-3-0.6-4-1.3v1.1h-1.6V276.7z M278.7,264.6c-1.8,0-3.5,0.7-3.5,2.8c0,1.6,1.5,2.5,3.5,3.1V264.6z M280,280.6
		c2-0.1,3.9-1.1,3.9-3.2c0-2.2-1.8-3-3.9-3.7V280.6z"/>
	<path fill="#FFFFFF" d="M294.7,263.6h7v1.1h-2.3v9.7c0,4.3,2.2,5.9,5.1,5.9c3,0,5.1-1.7,5.1-5.1v-10.5h-2.2v-1.1h5.9v1.1h-2.2v10.5
		c0,3.8-2.2,6.3-6.7,6.3c-5.3,0-7.4-2.4-7.4-6.8v-10h-2.3V263.6z"/>
	<path fill="#FFFFFF" d="M327.7,268.1h-1.4V268c0-2.4-2.8-3.5-4.9-3.5c-1.9,0-3.6,0.8-3.6,2.8c0,4.4,10.8,2.9,10.8,9.3
		c0,3.4-3,5-6.3,5c-2.9,0-4.3-0.7-5.1-1.2v1h-1.6v-4.7h1.6v1.1c0,2.1,3.5,2.7,4.9,2.7c2.1,0,4.2-0.8,4.2-3c0-5.2-10.8-3.2-10.8-9.5
		c0-3.1,2.8-4.5,5.8-4.5c2,0,3.7,0.4,4.9,1.5v-1.3h1.4V268.1z"/>
</g>
<g>
	<path fill="#FFFFFF" d="M74.8,309.8h0.6c1.6-0.1,2.5-1.1,2.5-2.8c0-0.9-0.7-2.2-2.4-2.2c-1.3,0-1.9,0.9-1.9,2.4h-1.7
		c0-1.6,1.2-3.2,3.7-3.2c2.1,0,4,0.9,4,3.1c0,1.7-0.9,2.7-2.5,3v0c1.8,0.2,2.8,1.7,2.8,3.4c0,2.5-2.1,3.6-4.4,3.6
		c-2.1,0-4-0.9-4.1-3.2h1.7c0.2,1.5,0.9,2.5,2.5,2.5c1.8,0,2.5-1.3,2.5-2.9c0-2-1.2-2.8-2.8-2.9h-0.4V309.8z"/>
	<path fill="#FFFFFF" d="M82.2,304.1h8.3l-2.3,6.1H90l-0.3,0.8h-1.8l-2.4,5.9h-1.8l2.6-5.9h-1.8l0.3-0.8h1.9l2.2-4.9h-5.6v1.5h-1.1
		V304.1z"/>
	<path fill="#FFFFFF" d="M92.6,313.5h1.1v0.7c0,1.1,1.5,2.1,2.9,2.2V311c-1.9-0.7-4.1-1.3-4.1-3.8c0-2.3,2.1-3.2,4.1-3.2v-1h0.9v1
		c1.1,0.1,2.1,0.3,2.8,1v-1h1v3.4h-1v-0.1c0-1.6-1.4-2.4-2.8-2.6v4.7c2.1,0.7,4.4,1.4,4.4,4.1c0,2.4-2.1,3.6-4.4,3.6v1.3h-0.9v-1.3
		c-1.1-0.1-2.2-0.5-2.9-1v0.8h-1.1V313.5z M96.6,304.6c-1.3,0-2.5,0.5-2.5,2.1c0,1.2,1.1,1.8,2.5,2.3V304.6z M97.5,316.4
		c1.4-0.1,2.8-0.8,2.8-2.4c0-1.6-1.3-2.2-2.8-2.7V316.4z"/>
	<path fill="#FFFFFF" d="M108.3,304h5.1v0.8h-1.7v7.1c0,3.1,1.6,4.3,3.7,4.3c2.2,0,3.8-1.3,3.8-3.7v-7.7h-1.6V304h4.3v0.8h-1.6v7.7
		c0,2.8-1.6,4.6-4.9,4.6c-3.9,0-5.4-1.7-5.4-5v-7.3h-1.7V304z"/>
	<path fill="#FFFFFF" d="M123.1,316.1h1.7v-11.4h-1.7V304h5.1v0.8h-1.7v6.3l6.3-6.3h-1.5V304h4.4v0.8h-1.6l-4.7,4.6l5.1,6.7h1.3v0.8
		h-5v-0.8h1.6l-4.2-5.5l-1.8,1.8v3.7h1.7v0.8h-5.1V316.1z"/>
</g>
<g>
	<path fill="#FFFFFF" d="M66.8,278.4c0,1.3,0.8,2.4,2.3,2.4c2.1,0,3-2.2,3-3.7c0-1.6-0.9-3.1-3-3.1c-0.9,0-1.7,0.3-2.4,0.8l-0.4-0.2
		l1.8-5.9h5.5l-0.4,1.3h-4.5l-1.1,3.6c0.8-0.4,1.5-0.5,2.4-0.5c2,0,3.9,1.4,3.9,4.1c0,2.5-1.6,4.6-4.7,4.6c-2.1,0-3.9-1-4-3.2H66.8z
		"/>
	<path fill="#FFFFFF" d="M79.3,274.2h0.6c1.6-0.1,2.5-1.1,2.5-2.8c0-0.9-0.7-2.2-2.4-2.2c-1.3,0-1.9,0.9-1.9,2.4h-1.7
		c0-1.6,1.2-3.2,3.7-3.2c2.1,0,4,0.9,4,3.1c0,1.7-0.9,2.7-2.5,3v0c1.8,0.2,2.8,1.7,2.8,3.4c0,2.5-2.1,3.6-4.4,3.6
		c-2.1,0-4-0.9-4.1-3.2h1.7c0.2,1.5,0.9,2.5,2.5,2.5c1.8,0,2.5-1.3,2.5-2.9c0-2-1.2-2.8-2.8-2.9h-0.4V274.2z"/>
	<path fill="#FFFFFF" d="M86.4,277.9h1.1v0.7c0,1.1,1.5,2.1,2.9,2.2v-5.4c-1.9-0.7-4.1-1.3-4.1-3.8c0-2.3,2.1-3.2,4.1-3.2v-1h0.9v1
		c1.1,0.1,2.1,0.3,2.8,1v-1h1v3.4h-1v-0.1c0-1.6-1.4-2.4-2.8-2.6v4.7c2.1,0.7,4.4,1.4,4.4,4.1c0,2.4-2.1,3.6-4.4,3.6v1.3h-0.9v-1.3
		c-1.1-0.1-2.2-0.5-2.9-1v0.8h-1.1V277.9z M90.5,269.1c-1.3,0-2.5,0.5-2.5,2.1c0,1.2,1.1,1.8,2.5,2.3V269.1z M91.4,280.8
		c1.4-0.1,2.8-0.8,2.8-2.4c0-1.6-1.3-2.2-2.8-2.7V280.8z"/>
	<path fill="#FFFFFF" d="M102.2,268.4h5.1v0.8h-1.7v7.1c0,3.1,1.6,4.3,3.7,4.3c2.2,0,3.8-1.3,3.8-3.7v-7.7h-1.6v-0.8h4.3v0.8h-1.6
		v7.7c0,2.8-1.6,4.6-4.9,4.6c-3.9,0-5.4-1.7-5.4-5v-7.3h-1.7V268.4z"/>
	<path fill="#FFFFFF" d="M117,280.6h1.7v-11.4H117v-0.8h5.1v0.8h-1.7v6.3l6.3-6.3h-1.5v-0.8h4.4v0.8h-1.6l-4.7,4.6l5.1,6.7h1.3v0.8
		h-5v-0.8h1.6l-4.2-5.5l-1.8,1.8v3.7h1.7v0.8H117V280.6z"/>
</g>
<path id="small-heart" fill="#A64F4B" d="M181.7,112.8c0,0-10.4-15.9-27.3-5.4c0,0-13.7,9.3-5.1,27.2c0,0,0.7,4.2,12.1,14.4
	c0,0,8.7,7.5,14,13.5c0,0,3.1,3.6,5.9,7c0,0,8.1-8,9-9.7c0,0,5.6-5.1,14.2-13c0,0,16.1-11.5,11.8-28.9c0,0-5.6-18.9-25.4-12.6
	C190.9,105.4,185.8,106.9,181.7,112.8z"/>
<g id="white-banner">
	<polygon id="white-banner-background" fill="#FFFFFF" points="23.2,390.9 386,390.9 368.3,419.6 383.5,444.3 23.2,444.3 	"/>
	<g>
		<path fill="#754141" d="M25.9,414.9h1.5v-10.2h-1.5V404h4.6v0.7H29v10.2h1.5v0.7h-4.6V414.9z"/>
		<path fill="#754141" d="M31.4,415.1h1.1V408h-1.1v-0.5h1.9l5.6,6.2V408h-1.1v-0.5h2.8v0.5h-1.1v7.7h-0.3l-6.2-6.9v6.3h1.1v0.5
			h-2.8V415.1z"/>
		<path fill="#754141" d="M46.1,415.1h1.1V408h-1.1v-0.5h3.7c1.3,0,2.6,0.5,2.7,2c0,1.1-0.9,1.6-1.8,1.8v0c1.2,0.1,2.3,0.8,2.3,2.1
			c0,1.6-1.5,2.2-3,2.2h-3.9V415.1z M48.2,411.1h1.3c1.2,0,1.8-0.6,1.8-1.5c0-1-0.7-1.5-2-1.5h-1.2V411.1z M48.2,415.1h1.5
			c1.1,0,2-0.5,2-1.7c0-1.1-0.7-1.8-2.2-1.8h-1.3V415.1z"/>
		<path fill="#754141" d="M58.6,407.4c2.4,0,4.3,1.5,4.3,4.2c0,2.5-1.8,4.2-4.3,4.2c-2.8,0-4.3-1.8-4.3-4.2
			C54.3,409.3,56.1,407.4,58.6,407.4z M58.6,415.2c2.2,0,3.1-1.7,3.1-3.7c0-1.9-1-3.6-3.1-3.6s-3.1,1.7-3.1,3.6
			C55.5,413.5,56.4,415.2,58.6,415.2z"/>
		<path fill="#754141" d="M65.9,415.1H67v-6.9h-2.5v1h-0.7v-1.7h7.4v1.7h-0.7v-1h-2.5v6.9h1.1v0.5h-3.3V415.1z"/>
		<path fill="#754141" d="M71.9,415.1H73V408h-1.1v-0.5h3.2v0.5H74v3.1h4.9V408h-1.1v-0.5h3.2v0.5H80v7.1h1.1v0.5h-3.2v-0.5h1.1
			v-3.6H74v3.6h1.1v0.5h-3.2V415.1z"/>
		<path fill="#754141" d="M88.5,415.1h1.1v-6.9h-2.5v1h-0.7v-1.7h7.4v1.7h-0.7v-1h-2.5v6.9h1.1v0.5h-3.3V415.1z"/>
		<path fill="#754141" d="M94.5,415.1h1.1V408h-1.1v-0.5h3.2v0.5h-1.1v3.1h4.9V408h-1.1v-0.5h3.2v0.5h-1.1v7.1h1.1v0.5h-3.2v-0.5
			h1.1v-3.6h-4.9v3.6h1.1v0.5h-3.2V415.1z"/>
		<path fill="#754141" d="M104.3,415.1h1.2V408h-1.2v-0.5h6.7v1.6h-0.6v-0.9h-3.8v2.8h3.2v-0.9h0.6v2.4h-0.6v-1h-3.2v3.3h4v-1h0.6
			v1.7h-6.8V415.1z"/>
		<path fill="#754141" d="M117.2,404h4.6v0.7h-1.5v6.3c0,2.8,1.4,3.9,3.3,3.9c1.9,0,3.4-1.1,3.4-3.3v-6.9h-1.4V404h3.9v0.7H128v6.9
			c0,2.5-1.4,4.1-4.4,4.1c-3.5,0-4.9-1.6-4.9-4.5v-6.5h-1.5V404z"/>
		<path fill="#754141" d="M130.5,414.9h1.5v-10.2h-1.5V404h4.6v0.7h-1.5v5.7l5.7-5.7h-1.3V404h4v0.7h-1.4l-4.2,4.1l4.6,6h1.1v0.7
			h-4.5v-0.7h1.4l-3.8-4.9l-1.6,1.6v3.3h1.5v0.7h-4.6V414.9z"/>
		<path fill="#754141" d="M147.1,415.1h0.8l3.3-7.7h0.4l3.4,7.7h0.9v0.5h-3v-0.5h1l-0.8-1.8h-3.8l-0.8,1.8h0.9v0.5h-2.4V415.1z
			 M151.2,408.8l-1.6,3.9h3.4L151.2,408.8z"/>
		<path fill="#754141" d="M156.6,415.1h1.1V408h-1.1v-0.5h1.9l5.6,6.2V408h-1.1v-0.5h2.8v0.5h-1.1v7.7h-0.3l-6.2-6.9v6.3h1.1v0.5
			h-2.8V415.1z"/>
		<path fill="#754141" d="M166.5,415.1h1.1V408h-1.1v-0.5h3.4c2.6,0,4.7,1.4,4.7,4.1c0,2.8-2.1,4.1-5,4.1h-3.2V415.1z M168.6,415.1
			h1c2.4,0,3.7-1.5,3.7-3.6c0-2.6-1.7-3.6-3.5-3.6h-1.3V415.1z"/>
		<path fill="#754141" d="M180.6,404h4.6v0.7h-1.5v6.3c0,2.8,1.4,3.9,3.3,3.9c1.9,0,3.4-1.1,3.4-3.3v-6.9H189V404h3.9v0.7h-1.4v6.9
			c0,2.5-1.4,4.1-4.4,4.1c-3.5,0-4.9-1.6-4.9-4.5v-6.5h-1.5V404z"/>
		<path fill="#754141" d="M202.2,407h-0.9v-0.1c0-1.6-1.8-2.3-3.2-2.3c-1.2,0-2.4,0.5-2.4,1.8c0,2.9,7.1,1.9,7.1,6.1
			c0,2.2-2,3.3-4.1,3.3c-1.9,0-2.8-0.4-3.3-0.8v0.6h-1v-3.1h1v0.7c0,1.3,2.3,1.7,3.2,1.8c1.4,0,2.8-0.5,2.8-2c0-3.4-7.1-2.1-7.1-6.2
			c0-2.1,1.8-3,3.8-3c1.3,0,2.4,0.3,3.2,1V404h0.9V407z"/>
		<path fill="#754141" d="M205.3,413.7h1.6l-1.1,4.3h-0.7L205.3,413.7z"/>
		<path fill="#754141" d="M213.5,415.1h1V408h-1v-0.5h2l3.5,6.4l3.5-6.4h2.1v0.5h-1v7.1h1v0.5h-3.1v-0.5h1.1v-6.5h0l-3.5,6.4h-0.4
			l-3.4-6.2h0v6.3h1v0.5h-2.7V415.1z"/>
		<path fill="#754141" d="M225.3,415.1h1.2V408h-1.2v-0.5h6.7v1.6h-0.6v-0.9h-3.8v2.8h3.2v-0.9h0.6v2.4h-0.6v-1h-3.2v3.3h4v-1h0.6
			v1.7h-6.8V415.1z"/>
		<path fill="#754141" d="M233.4,415.1h1.1V408h-1.1v-0.5h1.9l5.6,6.2V408h-1.1v-0.5h2.8v0.5h-1.1v7.7h-0.3l-6.2-6.9v6.3h1.1v0.5
			h-2.8V415.1z"/>
		<path fill="#754141" d="M253.9,409.6h-0.6v-0.1c0-1.1-1.3-1.6-2.2-1.6c-0.9,0-1.7,0.4-1.7,1.3c0,2,5,1.3,5,4.2
			c0,1.6-1.4,2.3-2.9,2.3c-1.3,0-2-0.3-2.3-0.5v0.5h-0.7v-2.1h0.7v0.5c0,0.9,1.6,1.2,2.3,1.2c1,0,1.9-0.4,1.9-1.4c0-2.4-5-1.5-5-4.4
			c0-1.4,1.3-2.1,2.6-2.1c0.9,0,1.7,0.2,2.3,0.7v-0.6h0.6V409.6z"/>
		<path fill="#754141" d="M255.3,415.1h1.1V408h-1.1v-0.5h3.4c1.6,0,3,0.6,3,2.4c0,1.7-1.3,2.5-3,2.5c-0.3,0-0.8,0-1.2-0.1v2.8h1.1
			v0.5h-3.2V415.1z M257.4,411.8c0.4,0,0.7,0,1.1,0c1.2,0,2-0.5,2-1.9c0-1.2-0.7-1.9-2.2-1.9h-1V411.8z"/>
		<path fill="#754141" d="M262.5,415.1h1.2V408h-1.2v-0.5h6.7v1.6h-0.6v-0.9h-3.8v2.8h3.2v-0.9h0.6v2.4h-0.6v-1h-3.2v3.3h4v-1h0.6
			v1.7h-6.8V415.1z"/>
		<path fill="#754141" d="M270.5,415.1h1.1V408h-1.1v-0.5h1.9l5.6,6.2V408H277v-0.5h2.8v0.5h-1.1v7.7h-0.3l-6.2-6.9v6.3h1.1v0.5
			h-2.8V415.1z"/>
		<path fill="#754141" d="M280.4,415.1h1.1V408h-1.1v-0.5h3.4c2.6,0,4.7,1.4,4.7,4.1c0,2.8-2.1,4.1-5,4.1h-3.2V415.1z M282.6,415.1
			h1c2.4,0,3.7-1.5,3.7-3.6c0-2.6-1.7-3.6-3.5-3.6h-1.3V415.1z"/>
		<path fill="#754141" d="M296.4,415.1h1.1v-6.9H295v1h-0.7v-1.7h7.4v1.7H301v-1h-2.5v6.9h1.1v0.5h-3.3V415.1z"/>
		<path fill="#754141" d="M308,409.4L308,409.4l-2,6.3h-0.7l-2.4-7.7h-0.8v-0.5h3v0.5h-1.1l1.8,6.2h0l2-6.7h0.5l2,6.7h0l1.8-6.2h-1
			v-0.5h2.4v0.5H313l-2.3,7.7h-0.8L308,409.4z"/>
		<path fill="#754141" d="M314.3,415.1h1.1V408h-1.1v-0.5h3.2v0.5h-1.1v7.1h1.1v0.5h-3.2V415.1z"/>
		<path fill="#754141" d="M326.2,409.8h-0.7v-0.1c0-1-1-1.8-2.5-1.8c-2.1,0-3.3,1.5-3.3,3.7c0,1.9,1.4,3.7,3.3,3.7
			c1.6,0,2.5-0.6,3.1-1.3l0.4,0.5c-1,1-2.2,1.4-3.6,1.4c-2.6,0-4.5-1.7-4.5-4.2c0-2.6,1.9-4.2,4.3-4.2c1.2,0,2,0.2,2.7,0.9v-0.9h0.7
			V409.8z"/>
		<path fill="#754141" d="M327.4,415.1h1.2V408h-1.2v-0.5h6.7v1.6h-0.6v-0.9h-3.8v2.8h3.2v-0.9h0.6v2.4h-0.6v-1h-3.2v3.3h4v-1h0.6
			v1.7h-6.8V415.1z"/>
		<path fill="#754141" d="M340,415.1h0.8l3.3-7.7h0.4l3.4,7.7h0.9v0.5h-3v-0.5h1l-0.8-1.8h-3.8l-0.8,1.8h0.9v0.5H340V415.1z
			 M344,408.8l-1.6,3.9h3.4L344,408.8z"/>
		<path fill="#754141" d="M355.3,409.6h-0.6v-0.1c0-1.1-1.3-1.6-2.2-1.6c-0.9,0-1.7,0.4-1.7,1.3c0,2,5,1.3,5,4.2
			c0,1.6-1.4,2.3-2.9,2.3c-1.3,0-2-0.3-2.3-0.5v0.5h-0.7v-2.1h0.7v0.5c0,0.9,1.6,1.2,2.3,1.2c1,0,1.9-0.4,1.9-1.4c0-2.4-5-1.5-5-4.4
			c0-1.4,1.3-2.1,2.6-2.1c0.9,0,1.7,0.2,2.3,0.7v-0.6h0.6V409.6z"/>
		<path fill="#754141" d="M62.5,431.1h1V424h-1v-0.5h2l3.5,6.4l3.5-6.4h2.1v0.5h-1v7.1h1v0.5h-3.1v-0.5h1.1v-6.5h0l-3.5,6.4h-0.4
			l-3.4-6.2h0v6.3h1v0.5h-2.7V431.1z"/>
		<path fill="#754141" d="M74.4,423.5h3.2v0.5h-1.1v4.4c0,2,1,2.7,2.3,2.7c1.4,0,2.4-0.8,2.4-2.3V424h-1v-0.5H83v0.5h-1v4.8
			c0,1.7-1,2.9-3.1,2.9c-2.4,0-3.4-1.1-3.4-3.1V424h-1.1V423.5z"/>
		<path fill="#754141" d="M91.7,425.8H91v-0.1c0-1-1-1.8-2.5-1.8c-2.1,0-3.3,1.5-3.3,3.7c0,1.9,1.4,3.7,3.3,3.7
			c1.6,0,2.5-0.6,3.1-1.3l0.4,0.5c-1,1-2.2,1.4-3.6,1.4c-2.6,0-4.5-1.7-4.5-4.2c0-2.6,1.9-4.2,4.3-4.2c1.2,0,2,0.2,2.7,0.9v-0.9h0.7
			V425.8z"/>
		<path fill="#754141" d="M93,431.1H94V424H93v-0.5h3.2v0.5h-1.1v3.1h4.9V424h-1.1v-0.5h3.2v0.5h-1.1v7.1h1.1v0.5h-3.2v-0.5h1.1
			v-3.6h-4.9v3.6h1.1v0.5H93V431.1z"/>
		<path fill="#754141" d="M107.4,431.1h0.8l3.3-7.7h0.4l3.4,7.7h0.9v0.5h-3v-0.5h1l-0.8-1.8h-3.8l-0.8,1.8h0.9v0.5h-2.4V431.1z
			 M111.5,424.8l-1.6,3.9h3.4L111.5,424.8z"/>
		<path fill="#754141" d="M122.7,425.6h-0.6v-0.1c0-1.1-1.3-1.6-2.2-1.6c-0.9,0-1.7,0.4-1.7,1.3c0,2,5,1.3,5,4.2
			c0,1.6-1.4,2.3-2.9,2.3c-1.3,0-2-0.3-2.3-0.5v0.5h-0.7v-2.1h0.7v0.5c0,0.9,1.6,1.2,2.3,1.2c1,0,1.9-0.4,1.9-1.4c0-2.4-5-1.5-5-4.4
			c0-1.4,1.3-2.1,2.6-2.1c0.9,0,1.7,0.2,2.3,0.7v-0.6h0.6V425.6z"/>
		<path fill="#754141" d="M134.5,425.4L134.5,425.4l-2,6.3h-0.7l-2.4-7.7h-0.8v-0.5h3v0.5h-1.1l1.8,6.2h0l2-6.7h0.5l2,6.7h0l1.8-6.2
			h-1v-0.5h2.4v0.5h-0.8l-2.3,7.7h-0.8L134.5,425.4z"/>
		<path fill="#754141" d="M145.4,423.4c2.4,0,4.3,1.5,4.3,4.2c0,2.5-1.8,4.2-4.3,4.2c-2.8,0-4.3-1.8-4.3-4.2
			C141,425.3,142.8,423.4,145.4,423.4z M145.4,431.2c2.2,0,3.1-1.7,3.1-3.7c0-1.9-1-3.6-3.1-3.6s-3.1,1.7-3.1,3.6
			C142.2,429.5,143.2,431.2,145.4,431.2z"/>
		<path fill="#754141" d="M150.7,431.1h1V424h-1v-0.5h2l3.5,6.4l3.5-6.4h2.1v0.5h-1v7.1h1v0.5h-3.1v-0.5h1.1v-6.5h0l-3.5,6.4h-0.4
			l-3.4-6.2h0v6.3h1v0.5h-2.7V431.1z"/>
		<path fill="#754141" d="M162.5,431.1h1.2V424h-1.2v-0.5h6.7v1.6h-0.6v-0.9h-3.8v2.8h3.2v-0.9h0.6v2.4h-0.6v-1h-3.2v3.3h4v-1h0.6
			v1.7h-6.8V431.1z"/>
		<path fill="#754141" d="M170.5,431.1h1.1V424h-1.1v-0.5h1.9l5.6,6.2V424H177v-0.5h2.8v0.5h-1.1v7.7h-0.3l-6.2-6.9v6.3h1.1v0.5
			h-2.8V431.1z"/>
		<path fill="#754141" d="M189.8,423.4c2.4,0,4.3,1.5,4.3,4.2c0,2.5-1.8,4.2-4.3,4.2c-2.8,0-4.3-1.8-4.3-4.2
			C185.4,425.3,187.2,423.4,189.8,423.4z M189.8,431.2c2.2,0,3.1-1.7,3.1-3.7c0-1.9-1-3.6-3.1-3.6s-3.1,1.7-3.1,3.6
			C186.6,429.5,187.6,431.2,189.8,431.2z"/>
		<path fill="#754141" d="M195.1,431.1h1.1V424h-1.1v-0.5h1.9l5.6,6.2V424h-1.1v-0.5h2.8v0.5h-1.1v7.7H203l-6.2-6.9v6.3h1.1v0.5
			h-2.8V431.1z"/>
		<path fill="#754141" d="M210.4,424h-0.9v-0.5h3.1v0.5h-1.1l2.7,6.5l2.7-6.5h-1v-0.5h2.4v0.5h-0.7l-3.2,7.7h-0.7L210.4,424z"/>
		<path fill="#754141" d="M217.8,431.1h0.8l3.3-7.7h0.4l3.4,7.7h0.9v0.5h-3v-0.5h1l-0.8-1.8h-3.8l-0.8,1.8h0.9v0.5h-2.4V431.1z
			 M221.8,424.8l-1.6,3.9h3.4L221.8,424.8z"/>
		<path fill="#754141" d="M227.2,431.1h1.1V424h-1.1v-0.5h3.2v0.5h-1.1v6.9h3.5v-1.2h0.8v1.9h-6.5V431.1z"/>
		<path fill="#754141" d="M234.3,431.1h1.2V424h-1.2v-0.5h6.7v1.6h-0.6v-0.9h-3.8v2.8h3.2v-0.9h0.6v2.4h-0.6v-1h-3.2v3.3h4v-1h0.6
			v1.7h-6.8V431.1z"/>
		<path fill="#754141" d="M242.4,431.1h1.1V424h-1.1v-0.5h1.9l5.6,6.2V424h-1.1v-0.5h2.8v0.5h-1.1v7.7h-0.3l-6.2-6.9v6.3h1.1v0.5
			h-2.8V431.1z"/>
		<path fill="#754141" d="M254.3,431.1h1.1v-6.9h-2.5v1h-0.7v-1.7h7.4v1.7h-0.7v-1h-2.5v6.9h1.1v0.5h-3.3V431.1z"/>
		<path fill="#754141" d="M260.3,431.1h1.1V424h-1.1v-0.5h3.2v0.5h-1.1v7.1h1.1v0.5h-3.2V431.1z"/>
		<path fill="#754141" d="M264.2,431.1h1.1V424h-1.1v-0.5h1.9l5.6,6.2V424h-1.1v-0.5h2.8v0.5h-1.1v7.7h-0.3l-6.2-6.9v6.3h1.1v0.5
			h-2.8V431.1z"/>
		<path fill="#754141" d="M274.1,431.1h1.2V424h-1.2v-0.5h6.7v1.6h-0.6v-0.9h-3.8v2.8h3.2v-0.9h0.6v2.4h-0.6v-1h-3.2v3.3h4v-1h0.6
			v1.7h-6.8V431.1z"/>
		<path fill="#754141" d="M288,425.6h-0.6v-0.1c0-1.1-1.3-1.6-2.2-1.6c-0.9,0-1.7,0.4-1.7,1.3c0,2,5,1.3,5,4.2
			c0,1.6-1.4,2.3-2.9,2.3c-1.3,0-2-0.3-2.3-0.5v0.5h-0.7v-2.1h0.7v0.5c0,0.9,1.6,1.2,2.3,1.2c1,0,1.9-0.4,1.9-1.4c0-2.4-5-1.5-5-4.4
			c0-1.4,1.3-2.1,2.6-2.1c0.9,0,1.7,0.2,2.3,0.7v-0.6h0.6V425.6z"/>
		<path fill="#754141" d="M294.1,431.1h1.1V424h-1.1v-0.5h3.4c2.6,0,4.7,1.4,4.7,4.1c0,2.8-2.1,4.1-5,4.1h-3.2V431.1z M296.2,431.1
			h1c2.4,0,3.7-1.5,3.7-3.6c0-2.6-1.7-3.6-3.5-3.6h-1.3V431.1z"/>
		<path fill="#754141" d="M303.2,431.1h0.8l3.3-7.7h0.4l3.4,7.7h0.9v0.5h-3v-0.5h1l-0.8-1.8h-3.8l-0.8,1.8h0.9v0.5h-2.4V431.1z
			 M307.2,424.8l-1.6,3.9h3.4L307.2,424.8z"/>
		<path fill="#754141" d="M313.8,431.1h1.1v-2.4l-2.7-4.7h-0.9v-0.5h3.3v0.5h-1l2.2,4l2.2-4h-1v-0.5h2.5v0.5h-0.8l-2.6,4.6v2.5h1.1
			v0.5h-3.2V431.1z"/>
	</g>
	<g id="dooted-border">
		<g>
			
				<line fill="none" stroke="#754141" stroke-width="3" stroke-linecap="round" stroke-linejoin="round" x1="26.1" y1="395.8" x2="26.1" y2="395.8"/>
			
				<line fill="none" stroke="#754141" stroke-width="3" stroke-linecap="round" stroke-linejoin="round" stroke-dasharray="0,3.9793" x1="30.1" y1="395.8" x2="374.3" y2="395.8"/>
			
				<line fill="none" stroke="#754141" stroke-width="3" stroke-linecap="round" stroke-linejoin="round" x1="376.3" y1="395.8" x2="376.3" y2="395.8"/>
			
				<line fill="none" stroke="#754141" stroke-width="3" stroke-linecap="round" stroke-linejoin="round" stroke-dasharray="0,3.9183" x1="374.3" y1="399.2" x2="363" y2="417.5"/>
			
				<line fill="none" stroke="#754141" stroke-width="3" stroke-linecap="round" stroke-linejoin="round" x1="362" y1="419.2" x2="362" y2="419.2"/>
			
				<line fill="none" stroke="#754141" stroke-width="3" stroke-linecap="round" stroke-linejoin="round" stroke-dasharray="0,3.9337" x1="364" y1="422.6" x2="373.3" y2="437.6"/>
			
				<line fill="none" stroke="#754141" stroke-width="3" stroke-linecap="round" stroke-linejoin="round" x1="374.3" y1="439.3" x2="374.3" y2="439.3"/>
			
				<line fill="none" stroke="#754141" stroke-width="3" stroke-linecap="round" stroke-linejoin="round" stroke-dasharray="0,4.002" x1="370.3" y1="439.3" x2="28.1" y2="439.3"/>
			
				<line fill="none" stroke="#754141" stroke-width="3" stroke-linecap="round" stroke-linejoin="round" x1="26.1" y1="439.3" x2="26.1" y2="439.3"/>
		</g>
	</g>
</g>
<g>
</g>
<g>
</g>
<g>
</g>
<g>
</g>
<g>
</g>
<g>
</g>
</svg>
